<svg xmlns="http://www.w3.org/2000/svg" viewBox="0 0 90.418 29.573"><defs><style>.cls-1{fill:#1099d6;}.cls-2{fill:#ee3e5d;}</style></defs><title>rm_asl19_en</title><g id="Layer_2" data-name="Layer 2"><g id="Layer_1-2" data-name="Layer 1"><path class="cls-1" d="M15.025,29.573a15.027,15.027,0,0,1-4-29.512,1.684,1.684,0,1,1,.894,3.248,11.657,11.657,0,1,0,6.2,0A1.684,1.684,0,1,1,19.021.061a15.027,15.027,0,0,1-4,29.512Z"/><path class="cls-2" d="M9.577,17.725l2.667-2.666,1.629-1.629-.01.01.01-.01a1.656,1.656,0,0,1,1.152-.466h0a1.653,1.653,0,0,1,1.152.466l.011.01-.01-.01L17.7,14.949l2.777,2.776a1.657,1.657,0,0,0,2.345,0h0a1.657,1.657,0,0,0,0-2.345L20.043,12.6,16.2,8.759h0a1.657,1.657,0,0,0-2.345,0h0L9.9,12.713,7.231,15.38a1.659,1.659,0,0,0,0,2.345h0A1.659,1.659,0,0,0,9.577,17.725Z"/><path class="cls-1" d="M41.454,8.486h2.3l5.482,12.6H46.1l-1.085-2.67h-4.9l-1.05,2.67H36.008Zm1.068,3.667-1.531,3.915H44.07Z"/><path class="cls-1" d="M57.615,11.565a2.69,2.69,0,0,0-2.011-.836c-.783,0-1.869.356-1.869,1.3,0,2.3,5.8.819,5.8,5.233,0,2.812-2.261,4.147-4.859,4.147a5.985,5.985,0,0,1-4.236-1.584l1.975-2.172a3.087,3.087,0,0,0,2.421,1.193c.908,0,1.922-.428,1.922-1.317,0-2.314-5.909-1.068-5.909-5.269,0-2.687,2.331-4.093,4.805-4.093A5.7,5.7,0,0,1,59.52,9.483Z"/><path class="cls-1" d="M61.709,8.486h2.777V18.524H69.63v2.563H61.709Z"/><path class="cls-2" d="M75.005,11.476,72.477,13.7l-1.512-1.744,4.111-3.471h2.492v12.6H75.005Z"/><path class="cls-2" d="M85.845,16.584a3.525,3.525,0,0,1-.873.125A3.905,3.905,0,0,1,81.021,12.6c0-2.6,2.065-4.324,4.7-4.324s4.7,1.726,4.7,4.324a7.173,7.173,0,0,1-1.512,4.183l-2.759,4.307H82.89Zm-.125-1.9A1.976,1.976,0,1,0,83.691,12.7,1.931,1.931,0,0,0,85.72,14.68Z"/></g></g></svg>