<svg xmlns="http://www.w3.org/2000/svg" viewBox="0 0 102.449 19.323"><defs><style>.cls-1{fill:#fff;}.cls-2{fill:#6c65c9;}</style></defs><title>rm_majlisnameh</title><g id="Layer_2" data-name="Layer 2"><g id="Layer_1-2" data-name="Layer 1"><path class="cls-1" d="M102.433,1.368a1.375,1.375,0,0,0-.02-.157,1.341,1.341,0,0,0-.04-.169,1.327,1.327,0,0,0-.081-.2c-.018-.037-.03-.077-.051-.112l0-.006A1.724,1.724,0,0,0,102.1.554a1.369,1.369,0,0,0-.088-.113A1.476,1.476,0,0,0,101.709.2a1.486,1.486,0,0,0-1.485,0L86.831,7.975,89.8,9.687l9.7-5.641v13.8a1.475,1.475,0,1,0,2.949.006V1.491C102.449,1.449,102.437,1.41,102.433,1.368Z"/><path class="cls-2" d="M92.738,7.983a9.266,9.266,0,0,0-.97-.6C91.726,7.359,79.353.2,79.353.2a1.293,1.293,0,0,0-.177-.073l-.02-.009a1.469,1.469,0,0,0-.265-.08l-.017,0a1.441,1.441,0,0,0-1.306.4,1.478,1.478,0,0,0-.289.423,1.536,1.536,0,0,0-.078.189c-.016.05-.025.1-.036.152a1.445,1.445,0,0,0-.025.195c0,.033-.013.064-.013.1V17.844a1.475,1.475,0,1,0,2.949-.005V4.047l6.742,3.914a4.8,4.8,0,1,0,5.92.022Zm-2.947,5.824a2.071,2.071,0,1,1,2.071-2.071A2.071,2.071,0,0,1,89.791,13.807Z"/><path class="cls-1" d="M16.6,5.969a1.166,1.166,0,0,0-.342-.231.993.993,0,0,0-.409-.085H13.213a2.839,2.839,0,0,0-1.262.282,3.774,3.774,0,0,0-1.118.853,4,4,0,0,0-.776,1.125,3.131,3.131,0,0,0-.3,1.135v1.808H7.123V6.813a1.047,1.047,0,0,0-.111-.469,1.363,1.363,0,0,0-.29-.392A1.314,1.314,0,0,0,6.3,5.679a1.266,1.266,0,0,0-.512-.043H3.566a3.433,3.433,0,0,0-1.374.281,3.554,3.554,0,0,0-1.117.76A3.628,3.628,0,0,0,.3,7.8,3.462,3.462,0,0,0,0,9.159V11.8a1.061,1.061,0,0,0,.264.683,1.076,1.076,0,0,0,.615.366H.853a6.491,6.491,0,0,0,.7.162l.853.128.853.094h.734V11.1H3.608L3.1,11.061,2.559,11l-.409-.059V9.159a1.345,1.345,0,0,1,.11-.538,1.44,1.44,0,0,1,.3-.426A1.515,1.515,0,0,1,3,7.888a1.276,1.276,0,0,1,.537-.12H4.99v4.206a1.32,1.32,0,0,0,.077.435,1.068,1.068,0,0,0,.213.358.95.95,0,0,0,.333.222,1.062,1.062,0,0,0,.443.068h9.8a1.038,1.038,0,0,0,.435-.068.976.976,0,0,0,.333-.239,1.011,1.011,0,0,0,.2-.358,1.279,1.279,0,0,0,.051-.435V6.711a1.022,1.022,0,0,0-.059-.41A.979.979,0,0,0,16.6,5.969ZM14.791,10.9H11.942V9.048a1.15,1.15,0,0,1,.12-.495,1.484,1.484,0,0,1,.307-.426A1.609,1.609,0,0,1,12.8,7.8a1.19,1.19,0,0,1,.494-.137h1.519Z"/><path class="cls-1" d="M23.978,4.365a1.111,1.111,0,0,0,.793.324,1.165,1.165,0,0,0,.444-.085,1.113,1.113,0,0,0,.358-.239,1.185,1.185,0,0,0,.248-.358,1.069,1.069,0,0,0,.093-.435,1.112,1.112,0,0,0-.093-.444,1.181,1.181,0,0,0-.231-.375,1.1,1.1,0,0,0-.358-.239,1.165,1.165,0,0,0-.444-.085,1.12,1.12,0,0,0-.435.085,1.109,1.109,0,0,0-.6.6,1.165,1.165,0,0,0-.085.444,1.12,1.12,0,0,0,.085.435A1.122,1.122,0,0,0,23.978,4.365Z"/><path class="cls-1" d="M26.443,5.858H24.311V10.9H20.472V2.659H18.391v9.323h0a1,1,0,0,0,.077.418,1.084,1.084,0,0,0,.23.342.985.985,0,0,0,.333.2,1.024,1.024,0,0,0,.418.06H25.42a1.044,1.044,0,0,0,.418-.06,1.025,1.025,0,0,0,.341-.222,1.069,1.069,0,0,0,.222-.332.993.993,0,0,0,.076-.41V5.858Z"/><path class="cls-1" d="M53.953,14.575a1.109,1.109,0,0,0-.359-.238,1.163,1.163,0,0,0-.878,0,1.105,1.105,0,0,0-.6.6,1.163,1.163,0,0,0,0,.878,1.1,1.1,0,0,0,.239.359,1.152,1.152,0,0,0,.358.247,1.072,1.072,0,0,0,.878,0,1.158,1.158,0,0,0,.606-.606,1.072,1.072,0,0,0,0-.878A1.169,1.169,0,0,0,53.953,14.575Z"/><path class="cls-1" d="M67.388,6.3a1.036,1.036,0,0,0-.239-.332,1.174,1.174,0,0,0-.341-.231,1.014,1.014,0,0,0-.41-.085H63.762a2.845,2.845,0,0,0-1.262.282,3.8,3.8,0,0,0-1.118.853,3.893,3.893,0,0,0-.742,1.125,3.087,3.087,0,0,0-.264,1.135v1.808H57.817a7.108,7.108,0,0,0-.35-1.987,4.706,4.706,0,0,0-.768-1.4,3.777,3.777,0,0,0-1.057-.913,5.8,5.8,0,0,0-1.237-.529,7.349,7.349,0,0,0-1.3-.264q-.657-.077-1.245-.094H50.745l-.179,2.124h1.723a5.738,5.738,0,0,1,.905.111,4.1,4.1,0,0,1,.853.281,2.458,2.458,0,0,1,.759.538,2.707,2.707,0,0,1,.563.853,4.318,4.318,0,0,1,.29,1.288H47.9V2.659H45.824V10.9H42.94V5.858H40.868V10.9H39.341V5.858H37.183V10.9H35.664V5.858H33.506v6.517a1.35,1.35,0,0,1-.128.622,1.239,1.239,0,0,1-.358.435,1.54,1.54,0,0,1-.512.256,2.109,2.109,0,0,1-1.194,0,1.54,1.54,0,0,1-.512-.256A1.275,1.275,0,0,1,30.435,13a1.351,1.351,0,0,1-.136-.622V9.133h-2.15v3.242A3.48,3.48,0,0,0,28.49,13.9a3.431,3.431,0,0,0,.853,1.1,3.654,3.654,0,0,0,1.2.674,4.278,4.278,0,0,0,1.374.23,4.42,4.42,0,0,0,1.236-.179,3.715,3.715,0,0,0,1.109-.529,3.323,3.323,0,0,0,.853-.9,3.2,3.2,0,0,0,.469-1.254h30.82a1.043,1.043,0,0,0,.435-.068.972.972,0,0,0,.332-.239,1.081,1.081,0,0,0,.222-.358,1.3,1.3,0,0,0,.085-.435V6.711A1.053,1.053,0,0,0,67.388,6.3ZM65.323,10.89H62.457V9.048a1.173,1.173,0,0,1,.128-.495,1.538,1.538,0,0,1,.307-.426,1.624,1.624,0,0,1,.435-.324,1.191,1.191,0,0,1,.5-.137h1.51Z"/></g></g></svg>