<svg xmlns="http://www.w3.org/2000/svg" xmlns:xlink="http://www.w3.org/1999/xlink" viewBox="0 0 238 75.02"><defs><style>.cls-1{fill:none;}.cls-2{fill:#18223c;}.cls-3{fill:#689cb8;}.cls-4{fill:#c9e0ed;}.cls-5{clip-path:url(#clip-path);}.cls-6{fill:#fff;}.cls-7{fill:#547da5;}.cls-8{fill:#7899b5;}.cls-9{fill:#1d3562;}.cls-10{fill:#224b7c;}.cls-11{fill:#0d3140;}.cls-12{fill:#90a2ba;}</style><clipPath id="clip-path"><path id="SVGID" class="cls-1" d="M3.21,37.51a34.31,34.31,0,1,0,34.3-34.3,34.31,34.31,0,0,0-34.3,34.3"/></clipPath></defs><title>Rouhanimeter-logo-en</title><g id="Layer_2" data-name="Layer 2"><g id="Layer_1-2" data-name="Layer 1"><path class="cls-2" d="M87.75,14.33h9.74a8.49,8.49,0,0,1,6.21,2.16,6.68,6.68,0,0,1,1.83,4.87v.06A6.61,6.61,0,0,1,101,28l5.21,7.61h-5.48l-4.57-6.82H92.44v6.82H87.75Zm9.44,10.35c2.28,0,3.59-1.22,3.59-3V21.6c0-2-1.4-3-3.68-3H92.44v6.12Z"/><path class="cls-2" d="M109.36,25V25A11.32,11.32,0,0,1,132,24.92V25a11.32,11.32,0,0,1-22.64.06Zm17.74,0V25a6.48,6.48,0,0,0-6.45-6.7,6.38,6.38,0,0,0-6.39,6.64V25a6.47,6.47,0,0,0,6.45,6.69A6.36,6.36,0,0,0,127.1,25Z"/><path class="cls-2" d="M136.35,26.5V14.33H141v12c0,3.47,1.74,5.26,4.6,5.26s4.59-1.73,4.59-5.11V14.33h4.69v12c0,6.45-3.62,9.62-9.34,9.62S136.35,32.77,136.35,26.5Z"/><path class="cls-2" d="M160.24,14.33h4.69v8.43h8.64V14.33h4.69v21.3h-4.69V27.08h-8.64v8.55h-4.69Z"/><path class="cls-2" d="M191.22,14.18h4.33l9.12,21.45h-4.89l-1.95-4.78h-9l-1.95,4.78h-4.78Zm4.93,12.53-2.83-6.9-2.83,6.9Z"/><path class="cls-2" d="M208.51,14.33h4.32l10,13.11V14.33h4.63v21.3h-4L213.13,22.09V35.63h-4.62Z"/><path class="cls-2" d="M233.31,14.33H238v21.3h-4.69Z"/><path class="cls-3" d="M87.71,42.69h3.44l5.59,8.68,5.59-8.68h3.44V61.06h-3.23V47.88l-5.8,8.66h-.1l-5.75-8.61V61.06H87.71Z"/><path class="cls-3" d="M110.47,42.69h13.62v2.88H113.7v4.78h9.21v2.89H113.7v4.93h10.52v2.89H110.47Z"/><path class="cls-3" d="M132.54,45.68h-5.83v-3h14.91v3H135.8V61.06h-3.26Z"/><path class="cls-3" d="M145,42.69h13.62v2.88H148.24v4.78h9.21v2.89h-9.21v4.93h10.52v2.89H145Z"/><path class="cls-3" d="M162.57,42.69h8.19a7.41,7.41,0,0,1,5.3,1.83,5.56,5.56,0,0,1,1.52,4v0a5.5,5.5,0,0,1-4.38,5.56l5,7h-3.81l-4.51-6.41h-4v6.41h-3.23Zm8,9.1c2.31,0,3.78-1.2,3.78-3.07v0c0-2-1.42-3.05-3.81-3.05H165.8v6.17Z"/><path class="cls-4" d="M75,37.51A37.51,37.51,0,1,1,37.51,0,37.51,37.51,0,0,1,75,37.51"/><path class="cls-2" d="M71.82,37.51A34.31,34.31,0,1,1,37.51,3.21a34.31,34.31,0,0,1,34.31,34.3"/><g class="cls-5"><path class="cls-6" d="M54.82,39.79s.65-1.34,1-1.45.14.5.11.73a13.05,13.05,0,0,1-1,2c-.2.26-.1-1.26-.1-1.26"/><path class="cls-7" d="M17,40.81S33.51,59.89,34.26,60.64l3.5-4.17-20-16.82Z"/><path class="cls-4" d="M54.24,24.16c.22.53,1.77,2.31.93,7.69,0,0,.71,4-.77,5.24,0,0,.43,3,.71,4.19.1.46.42,1.13.62,1.86.34,1.21.51,3-.14,3.8s-2.41.83-3.52.54-14.7,8.2-14.7,8.2l-2-.38s-9-7.84-12-10.71a34.22,34.22,0,0,0-5.92-4.51s.27-.4.83-1.36,5.44-9.19,5.44-9.19L44.33,21.1l3.53-.69,4.64,2.22Z"/><path class="cls-8" d="M47.36,23.72l.25,6.69-5,1.75a18.56,18.56,0,0,0,0,8.39c.45,2,2.45,3.49,3,5.68.32,1.28.4,2.76,1,3.33,0,0,2.48-4.27,5.31-2.27l.6.44a5.55,5.55,0,0,1-.69,3.18l-2.43.48-.11.09L50.13,53l.71,2.56-1.19,2,.4,5.54a14.37,14.37,0,0,1-3,1.84c-3.1,1-6.21-2.55-6.21-2.55s-2.7-2.91-4.37-4.91-5.12-6.57-3.2-12c1.87-5.27,5.54-6.88,4.39-11.72s-3.47-4.06-3.47-4.06L47.42,22.8Z"/><path class="cls-8" d="M28.5,32.44a8.41,8.41,0,0,0-1,4.53s.07,3.22-2.62,4.09l-6.53-2.34,3.25-5.59Z"/><path class="cls-8" d="M48,23.15s5.52.81,7.22,3.6c0,0,.22-3.45-1.78-5.15-4-3.38-4.36-1-4.36-1Z"/><path class="cls-9" d="M51.52,45.89a1.34,1.34,0,0,1,1.27,0,8.54,8.54,0,0,1,1.43,1.16,8.61,8.61,0,0,1-2-.29c-.65-.24-.88-.61-.73-.87"/><path class="cls-9" d="M48.47,37.07l1.72,2.21L50,38.44l.43-.17,1.36.59a5,5,0,0,0-1.72-1.34,2.72,2.72,0,0,0-1.62-.45"/><path class="cls-1" d="M75,37.51a37.51,37.51,0,1,0-71,16.94A141.34,141.34,0,0,1,17,40.81L34.26,60.64a90.21,90.21,0,0,1,10.2,13.73A37.52,37.52,0,0,0,75,37.51Z"/><path class="cls-10" d="M17,40.81A141.34,141.34,0,0,0,4.05,54.45,37.48,37.48,0,0,0,37.51,75a37.91,37.91,0,0,0,7-.65,90.21,90.21,0,0,0-10.2-13.73Z"/><polygon class="cls-11" points="47.42 49.88 50.77 50.81 49.5 50.67 48.92 51.15 47.42 49.88"/><path class="cls-8" d="M32.84,41.75a2.46,2.46,0,0,1-.65-.08c-2.57-.61-3-5-3-5-.84-4.11-.07-6.6,2.28-7.4A4.84,4.84,0,0,1,32.65,29,3.31,3.31,0,0,1,36,31.71v.07a17.62,17.62,0,0,1-1.27,8.11,2.48,2.48,0,0,1-1.94,1.86Z"/><path class="cls-6" d="M53.42,37.5c.34-.44.86-1.09,1.58-.7s.63.78.65,1a8.1,8.1,0,0,1-1.29,2.42,10.18,10.18,0,0,1-2.42,2.35,1.59,1.59,0,0,1-.47-2.08c.72-1.23,2-3,2-3"/><path class="cls-8" d="M53.3,38a6.51,6.51,0,0,0-.94-.5L45,34.05l-.11.29s4.9,2.14,6.39,3,1.7,1,1.84,1A.32.32,0,0,0,53.3,38"/><path class="cls-11" d="M35.53,30.1a9.6,9.6,0,0,1,2,.54c.95.39,7.11,3.24,7.47,3.41s.06.45-.39.25-5.8-2.7-8.31-3.13-.73-1.07-.73-1.07"/><path class="cls-6" d="M35.72,30.27c1.85-1.49,4.33-1.66,6.12-2.79s6.84-5,11.54-5.85c0,0,2.3-1,0-4.39a9.54,9.54,0,0,0-2.5-7.54c-2.34-2.76-7.45,1.21-9.16,2.42,0,0-3.23-2.47-12.32,1.48-11.16,4.87-11.81,9.91-11.81,9.91a5.55,5.55,0,0,0-4.36,8.93l2.29,3.08s1.75,2.5,5.08.5,12.91-4,15.12-5.75"/><path class="cls-4" d="M36.9,32.1s-.53-3.16-4.24-2.25-2.76,5.81-2.6,6.9,1.09,4.12,2.6,4.62,2.24-1.31,2.24-1.31a16.35,16.35,0,0,0,2-8"/><path class="cls-12" d="M54.94,39.06a.34.34,0,0,1,.25.49c-.1.18-.25-.18-.39-.25s0-.25.14-.24"/><polygon class="cls-9" points="51.24 37.73 48.53 37.06 49.89 37.73 51.24 37.73"/><path class="cls-8" d="M52.23,37.06a8.26,8.26,0,0,0,.46-2.31c0-.9,1.67,1.25,1.67,1.25s-1,.55-1.36.8a1.66,1.66,0,0,1-.77.26"/><path class="cls-9" d="M53.05,35.29a14.46,14.46,0,0,0-1.34-.9c-.42-.22-2.77.7-2.77.7a6.07,6.07,0,0,1,2.3-2.28,1.32,1.32,0,0,1,1.15.16,11.89,11.89,0,0,1,1.75,1.36A5,5,0,0,1,54.36,36l-.73.06Z"/><path class="cls-4" d="M50.26,42.19s-.86,5.06-3.75,7.37l-.17-5s1.29-.87,1.44-.94,2.48-1.45,2.48-1.45"/></g></g></g></svg>