<svg xmlns="http://www.w3.org/2000/svg" width="27.714" height="27.738" viewBox="0 0 27.714 27.738"><defs><style>.a{fill:#fff;}</style></defs><g transform="translate(-274.293 -10.453)"><g transform="translate(274.293 10.453)"><path class="a" d="M302.007,24.321a14.162,14.162,0,0,1-1.252,5.874,13.151,13.151,0,0,1-3.314,4.418,14.268,14.268,0,0,1-4.872,2.843,13.658,13.658,0,0,1-3.324.689,13.5,13.5,0,0,1-6.04-.874A14.167,14.167,0,0,1,274.785,28a13.419,13.419,0,0,1-.463-4.492,13.885,13.885,0,0,1,4.423-9.365,12.975,12.975,0,0,1,5.291-3.1,13.53,13.53,0,0,1,2.939-.545,14.34,14.34,0,0,1,5.548.634,13.794,13.794,0,0,1,8.7,8.506,13.641,13.641,0,0,1,.718,3.471C301.973,23.512,301.986,23.917,302.007,24.321Zm-2.519.015a11.7,11.7,0,0,0-.48-3.359,11.311,11.311,0,0,0-7.223-7.441,11.542,11.542,0,0,0-5.389-.446,10.572,10.572,0,0,0-4.367,1.654,11.532,11.532,0,0,0-3.56,3.721,10.907,10.907,0,0,0-1.325,8.544,11.55,11.55,0,0,0,9.442,8.524,11.3,11.3,0,0,0,8.232-2.058,11.085,11.085,0,0,0,3.434-3.892A11.284,11.284,0,0,0,299.488,24.336Z" transform="translate(-274.293 -10.453)"/><path class="a" d="M318.3,37.305l-1.839.966-.072-.132a1.736,1.736,0,0,0-1.2-.954,1.592,1.592,0,0,0-1.86.958,3.7,3.7,0,0,0,.015,2.908,1.769,1.769,0,0,0,2.65.7,1.96,1.96,0,0,0,.579-.763c.018-.038.036-.075.056-.117l1.715.874a4.2,4.2,0,0,1-.8,1.026,4.4,4.4,0,0,1-5.266.476,3.588,3.588,0,0,1-1.522-2.175,5.183,5.183,0,0,1,.187-3.407,3.678,3.678,0,0,1,2.978-2.3,4.6,4.6,0,0,1,2.766.374A3.586,3.586,0,0,1,318.3,37.305Z" transform="translate(-296.608 -25.741)"/><path class="a" d="M295.831,40.871l1.717.875A4.277,4.277,0,0,1,296.489,43a4.429,4.429,0,0,1-4.965.27,3.588,3.588,0,0,1-1.556-2.178,5.225,5.225,0,0,1,.11-3.246,3.691,3.691,0,0,1,3.065-2.482,4.58,4.58,0,0,1,2.786.393,3.566,3.566,0,0,1,1.568,1.549l-1.831.963c-.026-.046-.051-.087-.074-.13a1.727,1.727,0,0,0-1.212-.956,1.622,1.622,0,0,0-1.855.957,3.65,3.65,0,0,0-.258,1.506,3.359,3.359,0,0,0,.255,1.365,1.69,1.69,0,0,0,1.891,1.039,1.643,1.643,0,0,0,1.354-1.044Z" transform="translate(-283.811 -25.741)"/></g></g></svg>