<svg xmlns="http://www.w3.org/2000/svg" width="17.099" height="16.677" viewBox="0 0 17.099 16.677"><defs><style>.a{fill:#202020;fill-rule:evenodd;}</style></defs><path class="a" d="M2150.5,220.27a8.55,8.55,0,0,0-2.7,16.66c.428.075.588-.181.588-.406,0-.2-.011-.876-.011-1.592-2.148.4-2.7-.524-2.875-1a3.106,3.106,0,0,0-.876-1.208c-.3-.16-.727-.556-.011-.566a1.711,1.711,0,0,1,1.315.876,1.827,1.827,0,0,0,2.49.705,1.8,1.8,0,0,1,.545-1.143c-1.9-.214-3.89-.951-3.89-4.221a3.327,3.327,0,0,1,.876-2.3,3.072,3.072,0,0,1,.086-2.266s.716-.224,2.351.876a8.062,8.062,0,0,1,4.275,0c1.635-1.111,2.351-.876,2.351-.876a3.071,3.071,0,0,1,.085,2.266,3.307,3.307,0,0,1,.876,2.3c0,3.281-2,4.007-3.9,4.221a2.025,2.025,0,0,1,.577,1.582c0,1.143-.011,2.063-.011,2.351,0,.225.161.492.588.406a8.554,8.554,0,0,0-2.725-16.66Z" transform="translate(-2141.947 -220.27)"/></svg>