<svg width="45" height="46" viewBox="0 0 45 46" fill="none" xmlns="http://www.w3.org/2000/svg">
<rect width="45" height="46" fill="white"/>
<path d="M39.9999 23.3756C39.9999 21.9069 39.8704 20.8298 39.6114 19.6875H22.8398V26.3784H32.6826C32.4883 28.043 31.4199 30.5235 29.024 32.2207L28.9916 32.4492L34.3015 36.5943L34.6576 36.6269C38.0573 33.4936 39.9999 28.8589 39.9999 23.3756Z" fill="#4877BB"/>
<path d="M22.8399 40.9999C27.6642 40.9999 31.7114 39.4006 34.6577 36.6263L29.024 32.2201C27.5023 33.2645 25.4949 34.0152 22.8399 34.0152C18.1128 34.0152 14.098 30.8819 12.6734 26.541L12.4791 26.5736L6.97492 30.8819L6.91016 31.0778C9.82414 36.9527 15.8464 40.9999 22.8399 40.9999Z" fill="#21A849"/>
<path d="M12.6735 26.5417C12.285 25.432 12.0907 24.2244 12.0907 22.9841C12.0907 21.7438 12.3173 20.5362 12.6735 19.4265V19.198L7.10454 14.8245L6.91027 14.9224C5.7123 17.3703 5 20.1119 5 23.0167C5 25.9216 5.67993 28.6632 6.91027 31.1111L12.6735 26.5417Z" fill="#FBBA10"/>
<path d="M22.841 11.952C26.2083 11.952 28.4423 13.4207 29.7374 14.6284L34.7883 9.66731C31.6801 6.76248 27.6653 5 22.841 5C15.8475 5 9.82526 9.04718 6.87891 14.9221L12.6421 19.4589C14.0991 15.0853 18.1139 11.952 22.841 11.952Z" fill="#DB1111"/>
</svg>
