<svg xmlns="http://www.w3.org/2000/svg" width="20" height="20" viewBox="0 0 20 20"><defs><style>.a{fill:#202020;fill-rule:evenodd;}</style></defs><g transform="translate(-380 -3319)"><g transform="translate(56 160)"><path class="a" d="M340,3170.875a2,2,0,1,1,2-2,2,2,0,0,1-2,2M328,3177a2,2,0,0,1,0-4,2,2,0,0,1,0,4m0-12a2,2,0,0,1,0-4,2,2,0,0,1,0,4m12-.125a3.975,3.975,0,0,0-3.034,1.421l-5.007-2.891a3.971,3.971,0,1,0-.7,1.9l4.822,2.784a3.939,3.939,0,0,0,.009,1.611l-4.947,2.847a3.993,3.993,0,1,0,.8,1.848l5.056-2.909a3.993,3.993,0,1,0,3.005-6.615"/></g></g></svg>