<?xml version="1.0" encoding="iso-8859-1"?>

<!DOCTYPE svg PUBLIC "-//W3C//DTD SVG 1.1//EN" "http://www.w3.org/Graphics/SVG/1.1/DTD/svg11.dtd">
<svg version="1.1" id="Capa_1" xmlns="http://www.w3.org/2000/svg" xmlns:xlink="http://www.w3.org/1999/xlink" x="0px" y="0px"
	 width="20px" height="20px" viewBox="0 0 534.493 534.492" style="enable-background:new 0 0 534.493 534.492;"
	 xml:space="preserve">
	 <defs><style>.a{fill:#005dfd;fill-rule:evenodd;}</style></defs>
<g>
	<path class="a" d="M437.243,169.981c-48.87,0-89.323,36.266-96.145,83.271H193.397c-6.821-47.005-47.271-83.271-96.139-83.271
		C43.633,169.981,0,213.615,0,267.249c0,53.629,43.633,97.262,97.259,97.262c48.867,0,89.312-36.251,96.133-83.271h147.707
		c6.821,47.02,47.274,83.271,96.133,83.271c53.629,0,97.262-43.633,97.262-97.262C534.493,213.615,490.872,169.981,437.243,169.981z
		 M97.265,328.16c-33.585,0-60.914-27.326-60.914-60.911c0-33.594,27.329-60.916,60.914-60.916
		c33.591,0,60.914,27.322,60.914,60.916C158.178,300.834,130.85,328.16,97.265,328.16z M437.243,328.16
		c-33.597,0-60.916-27.326-60.916-60.911c0-33.594,27.331-60.916,60.916-60.916s60.911,27.322,60.911,60.916
		C498.154,300.834,470.828,328.16,437.243,328.16z"/>
</g>

</svg>
