<svg xmlns="http://www.w3.org/2000/svg" width="17" height="20" viewBox="0 0 17 20"><defs><style>.a{fill:#005dfd;fill-rule:evenodd;}</style></defs><g transform="translate(-301 -720)"><g transform="translate(56 160)"><path class="a" d="M257.75,574h-8.5v-6a3.975,3.975,0,0,1,4.249-4h0a3.975,3.975,0,0,1,4.249,4Zm-3.187,3a1.064,1.064,0,0,1-2.125,0v-1h2.125Zm5.313-3v-6a5.813,5.813,0,0,0-5.312-5.921V560h-2.125v2.079A5.813,5.813,0,0,0,247.125,568v6H245v2h5.313v1a3.193,3.193,0,0,0,6.375,0v-1H262v-2Z"/></g></g></svg>