<svg xmlns="http://www.w3.org/2000/svg" width="183.536" height="104.408" viewBox="0 0 183.536 104.408"><defs><style>.a{fill:#202020;}</style></defs><path class="a" d="M249.173,95.57h-7.049v4.067h2.508V102.4H238.79v11.087h6.661v-4.125h-2.127v-2.838h5.849v-.216h0V95.786h0Z" transform="translate(-67.204 -26.897)"/><path class="a" d="M159.357,20.716H130.629V17.734h60.8V7.495H137.347V4.074h25.186V0H132.059V11.131h54.086v2.975h-60.8v10.24h34.017Z" transform="translate(-35.275)"/><path class="a" d="M125.769,42.066V39.113h74.486V28.83h-38.81v3.629h33.521v3.018H120.48V45.666H123.4v.029h88.75v2.932H144.5v10.3h35.943V55.3H149.79v-3.04h67.653v-10.2Z" transform="translate(-33.907 -8.114)"/><path class="a" d="M192.815,102.55v3.629h18.762v3.011H176.69v10.326h25.143v2.9H185.794v10.85h13.114v-4.125h-7.825v-3.1h16.031V115.851h-5.281v.036H181.986v-3.068h34.879V102.55h-24.05Z" transform="translate(-49.727 -28.861)"/><path class="a" d="M199.439,65.67V69.3h21.909v2.953H175.69V82.441h1.94V82.5h32v2.975h-30.28V95.8h9.729V92.171h-4.441V89.11h30.28V78.863H180.979V75.888h45.658V65.67Z" transform="translate(-49.445 -18.482)"/><path class="a" d="M28.919,86.2,27.481,87.28a7.646,7.646,0,0,0-2.766-2.292,8.17,8.17,0,0,0-3.593-.783,7.947,7.947,0,0,0-3.959,1.02,7.444,7.444,0,0,0-2.824,2.759,7.631,7.631,0,0,0-1.006,3.895,7.308,7.308,0,0,0,2.242,5.454,7.775,7.775,0,0,0,5.655,2.156,7.9,7.9,0,0,0,6.28-2.939l1.437,1.071a8.939,8.939,0,0,1-3.334,2.63,10.462,10.462,0,0,1-4.462.927,9.284,9.284,0,0,1-7.394-3.119,9.428,9.428,0,0,1-2.278-6.366,8.867,8.867,0,0,1,2.752-6.6,9.514,9.514,0,0,1,6.9-2.68,10.132,10.132,0,0,1,4.52.992,8.731,8.731,0,0,1,3.3,2.781" transform="translate(-3.23 -23.192)"/><path class="a" d="M48.927,82.439A9.284,9.284,0,0,1,55.7,85.148a9.392,9.392,0,0,1-6.654,16.06,9.14,9.14,0,0,1-6.7-2.716A8.953,8.953,0,0,1,39.6,91.9a9.485,9.485,0,0,1,1.279-4.75,9.018,9.018,0,0,1,3.392-3.442,9.126,9.126,0,0,1,4.656-1.25m.079,1.739a7.638,7.638,0,0,0-6.532,3.816,7.739,7.739,0,0,0-1,3.909A7.523,7.523,0,0,0,49.006,99.5a7.617,7.617,0,0,0,3.852-1.013,7.186,7.186,0,0,0,2.759-2.759,7.746,7.746,0,0,0,.992-3.887,7.574,7.574,0,0,0-.992-3.851,7.43,7.43,0,0,0-2.8-2.774A7.545,7.545,0,0,0,49,84.178" transform="translate(-11.144 -23.201)"/><path class="a" d="M70.83,100.933V83.062h3.715a18.769,18.769,0,0,1,5.813.647,7.761,7.761,0,0,1,4.067,3.155,9.6,9.6,0,0,1,1.437,5.36A9.341,9.341,0,0,1,84.7,96.945a7.423,7.423,0,0,1-3.011,3.018,11.375,11.375,0,0,1-5.2.97Zm1.71-1.689H74.61a19.494,19.494,0,0,0,5.138-.46,5.943,5.943,0,0,0,3.169-2.364,7.272,7.272,0,0,0,1.157-4.168,7.653,7.653,0,0,0-1.25-4.419,6.3,6.3,0,0,0-3.492-2.515,21.183,21.183,0,0,0-5.526-.5H72.54Z" transform="translate(-19.934 -23.371)"/><path class="a" d="M96.61,83.07h10.24v1.746H98.4v5.6h8.378v1.746H98.4v7.02h8.378v1.753H96.61Z" transform="translate(-27.19 -23.379)"/><path class="a" d="M8.479,113.92h4.247l8.458,21.988H16.836l-1.725-4.527H6.137l-1.789,4.527H0Zm2.156,5.828L7.689,127.3h5.878Z" transform="translate(0 -32.061)"/><path class="a" d="M34.07,113.92H44.985V118H38.223v3.988h6.762v4.024H38.223v9.895H34.07Z" transform="translate(-9.589 -32.061)"/><path class="a" d="M54.83,113.92h4.434a14.8,14.8,0,0,1,5.2.647,5.39,5.39,0,0,1,2.486,2.156,6.632,6.632,0,0,1,.934,3.593,6.129,6.129,0,0,1-1.035,3.593,6.287,6.287,0,0,1-3.133,2.2l5.21,9.78H64.344L59.4,126.545h-.381v9.341H54.83Zm4.189,8.623h1.308a5.123,5.123,0,0,0,2.752-.525,1.969,1.969,0,0,0,.719-1.739,2.156,2.156,0,0,0-.374-1.257,2.113,2.113,0,0,0-1-.762,7.761,7.761,0,0,0-2.3-.23H59.019Z" transform="translate(-15.431 -32.061)"/><rect class="a" width="4.153" height="21.988" transform="translate(56.58 81.859)"/><path class="a" d="M110.87,117.561l-2.925,2.788a9.061,9.061,0,0,0-6.726-3.154,7.351,7.351,0,0,0-7.466,7.466,7.81,7.81,0,0,0,.956,3.9,6.826,6.826,0,0,0,2.7,2.68,7.9,7.9,0,0,0,3.887.97,8.005,8.005,0,0,0,3.327-.675,11.906,11.906,0,0,0,3.32-2.479l2.874,2.96a15.5,15.5,0,0,1-4.606,3.3,12.619,12.619,0,0,1-4.951.92,11.411,11.411,0,0,1-8.393-3.248,11.267,11.267,0,0,1-3.262-8.335,11.418,11.418,0,0,1,1.452-5.871,11.051,11.051,0,0,1,4.254-4.11,12.065,12.065,0,0,1,5.978-1.552,12.661,12.661,0,0,1,9.578,4.419" transform="translate(-25.217 -31.836)"/><path class="a" d="M130.316,113.92h4.239l8.465,21.988h-4.354l-1.717-4.527h-8.975l-1.789,4.527H121.83Zm2.156,5.828-2.953,7.552H135.4Z" transform="translate(-34.287 -32.061)"/><path class="a" d="M121.806,89.245c.057-.18.108-.331.137-.453a1.553,1.553,0,0,0,.043-.338,1.171,1.171,0,0,0-.2-.719.719.719,0,0,0-.589-.252c-.525,0-1.193.474-1.99,1.437a29.835,29.835,0,0,0-2.874,4.311h3.895l-.216.2h-3.816L112.731,99a13.941,13.941,0,0,1-3.284,3.895,5.957,5.957,0,0,1-3.593,1.243,3.8,3.8,0,0,1-2.156-.525,1.7,1.7,0,0,1-.769-1.48,1.487,1.487,0,0,1,.489-1.128,1.7,1.7,0,0,1,1.222-.46,3.173,3.173,0,0,1,.374,0,2.308,2.308,0,0,1,.381.05v.122h-.251a1.243,1.243,0,0,0-.941.4,1.387,1.387,0,0,0-.374,1,1.725,1.725,0,0,0,.589,1.344,2.235,2.235,0,0,0,1.538.532,4.311,4.311,0,0,0,2.874-1.315,23.6,23.6,0,0,0,3.514-4.649l2.874-4.592H113.78l.165-.2H115.3l1.581-2.35a10.9,10.9,0,0,1,2.35-2.652,3.859,3.859,0,0,1,2.314-.913,1.5,1.5,0,0,1,.934.273.812.812,0,0,1,.359.719.927.927,0,0,1-.266.683,1.243,1.243,0,0,1-.719.331" transform="translate(-28.968 -24.574)"/><path class="a" d="M131.671,96.478l.108.072a4.146,4.146,0,0,1-1.006.92,1.99,1.99,0,0,1-1.035.287,1.329,1.329,0,0,1-.877-.273,1.487,1.487,0,0,1-.5-.8,5.137,5.137,0,0,1-.6,1.725,6.539,6.539,0,0,1-2.781,2.529,3.32,3.32,0,0,1-1.437.359,1.358,1.358,0,0,1-1.063-.4,1.861,1.861,0,0,1-.352-1.222,3.514,3.514,0,0,1,.719-1.94,7.812,7.812,0,0,1,1.94-1.919,5.189,5.189,0,0,1,1.178-.632,3.212,3.212,0,0,1,1.135-.237c.675,0,1.143.568,1.4,1.7a.136.136,0,0,0,0,.057,1.143,1.143,0,0,0,.438.675,1.272,1.272,0,0,0,.8.244,1.861,1.861,0,0,0,.97-.266,3.816,3.816,0,0,0,.963-.869m-4.16-.4a1.085,1.085,0,0,0-.194-.719.647.647,0,0,0-.532-.251,1.717,1.717,0,0,0-.891.316,4.5,4.5,0,0,0-.984.941,10,10,0,0,0-1.351,2.019,3.96,3.96,0,0,0-.489,1.71,1.135,1.135,0,0,0,.223.719.719.719,0,0,0,.589.287,1.883,1.883,0,0,0,1.063-.46,5.915,5.915,0,0,0,1.186-1.258,8.473,8.473,0,0,0,1.006-1.8,4.269,4.269,0,0,0,.374-1.531" transform="translate(-34.37 -26.72)"/><path class="a" d="M138.473,95.09a5.928,5.928,0,0,0-.611,1.042,2.313,2.313,0,0,0-.216.855.618.618,0,0,0,.151.453.719.719,0,0,0,.489.144,2.156,2.156,0,0,0,.913-.28,3.592,3.592,0,0,0,.992-.719l.093.1a3.966,3.966,0,0,1-1.092.812,2.63,2.63,0,0,1-1.171.3,1.272,1.272,0,0,1-.891-.295,1.042,1.042,0,0,1-.316-.8,1.719,1.719,0,0,1,.065-.453,3.045,3.045,0,0,1,.194-.51,17.5,17.5,0,0,0-2.731,2.551,12.625,12.625,0,0,0-1.825,2.874l-1.236.072,3.657-5.892,1.15-.072-2.307,3.277.065.05a18.883,18.883,0,0,1,1.495-1.552c.546-.51,1.135-1.013,1.768-1.516h.036a.833.833,0,0,1,.517-.345Z" transform="translate(-36.947 -26.762)"/></svg>