<svg xmlns="http://www.w3.org/2000/svg" width="256" height="119" viewBox="0 0 256 119"><defs><style>.a{fill:#f7f7f7;}.b{opacity:0.5;}</style></defs><g transform="translate(-672 -4267)"><g transform="translate(531)"><g transform="translate(141 4267.143)"><rect class="a" width="256" height="119" transform="translate(0 -0.143)"/></g></g><g class="b" transform="translate(704 4297)"><g transform="translate(0 0)"><path d="M22.582,32.573C22.67,30.3,21,29,19.766,27.431c.729-1.767.679-2.682-.24-3.351a1.922,1.922,0,0,0-2.49.025c-.945.724-.993,1.628-.217,3.236A11.13,11.13,0,0,0,14.9,29.915a7.577,7.577,0,0,0-.1,3.071c.012.161.712.38,1.1.387,1.938.034,1.866-.174,1.866,1.961,0,1.092,0,2.184,0,3.276,0,1.555,0,1.555,1.52,1.568,1.673.014,2.35.9,2.029,2.56-.217,1.115-.9,1.409-1.936,1.4-1.606-.013-1.61.026-1.612,1.611,0,3.042,0,6.085,0,9.127,0,.414-.04.828-.074,1.459A28.6,28.6,0,0,1,6.647,48,28.617,28.617,0,0,1,.013,28.61,29.426,29.426,0,0,1,26.3.168C41.084-1.394,53,8.176,56.692,18.475a10.075,10.075,0,0,0-1.832-.464,28.176,28.176,0,0,0-5.344-.105,4.92,4.92,0,0,0-4.353,4.447,42.192,42.192,0,0,0-.276,6.058c0,.985-.35,1.268-1.3,1.262-2.3-.015-2.743.549-2.213,2.862a1.533,1.533,0,0,0,1.148.792c2.335.2,2.339.161,2.339,2.552,0,3.784-.03,7.568.02,11.35.014,1.038-.254,1.57-1.369,1.393a.747.747,0,0,0-.117,0c-1.987.012-2.7,1.013-1.991,2.938a1.4,1.4,0,0,0,1.075.591,43.454,43.454,0,0,1,5.135.3,11.714,11.714,0,0,1-.882.774,27.861,27.861,0,0,1-14.874,5.45,70.623,70.623,0,0,1-7.8-.358c-.937-.049-1.236-.552-1.209-1.464.054-1.864.016-3.731.016-5.7a2.584,2.584,0,0,1,.66.153c5.135,3.163,13.512,1.452,14.911-7.123a20.771,20.771,0,0,0-.157-8.479c-.827-3.3-2.766-5.623-6.194-6.3-3.359-.66-6.479-.18-8.783,2.726a2.38,2.38,0,0,1-.321.339C22.929,32.516,22.838,32.512,22.582,32.573Zm-8.016,9.876a3.191,3.191,0,0,0-3.606-.01A6.283,6.283,0,0,0,14.566,42.449Zm.357,1.748c-.214-.118-.4-.3-.507-.266-.7.233-1.391.5-2.066.8a.492.492,0,0,0-.136.467.506.506,0,0,0,.457.191c.663-.226,1.313-.492,1.955-.772C14.737,44.565,14.792,44.387,14.923,44.2Zm-1.837-5.258c-.18.255-.408.557-.4.565.559.45,1.138.875,1.715,1.3a4.628,4.628,0,0,0,.34-.478C14.233,39.869,13.7,39.438,13.086,38.938Z" transform="translate(0 0)"/><path d="M113.774,43.244a26.882,26.882,0,0,1,1.49,9.1,29.089,29.089,0,0,1-6.422,18.3,3.043,3.043,0,0,1-.72.757,1.188,1.188,0,0,1-1.92-1.112c-.008-4.249.018-8.5-.018-12.747-.008-.976.348-1.3,1.3-1.257,1.247.062,2.5,0,3.749.016.816.012,1.186-.3,1.213-1.168.078-2.543.108-2.541-2.4-2.542a28.379,28.379,0,0,1-2.926-.04c-.328-.034-.875-.481-.874-.738a46.285,46.285,0,0,1,.241-5.476c.181-1.487,1.014-2.074,2.535-1.983a8.617,8.617,0,0,1,2.506.515c1.005.38,1.661.358,1.85-.867A3.7,3.7,0,0,1,113.774,43.244Z" transform="translate(-56.313 -22.934)"/><path d="M48.686,79.774c0-1.324-.033-2.65.008-3.973a4.622,4.622,0,0,1,2.875-4.328,5.6,5.6,0,0,1,5.593.28,4.507,4.507,0,0,1,1.583,2.222,14.636,14.636,0,0,1,.126,8.969A4.6,4.6,0,0,1,53.993,86.5a9.01,9.01,0,0,1-2.306-.312c-2.695-.745-3.011-1.195-3.011-3.961V79.774Z" transform="translate(-25.813 -37.58)"/><path d="M325.8,87.957c2.986-2.255,5.04-1.643,6.684.3a4.386,4.386,0,0,1,3.894-1.7,2.859,2.859,0,0,1,2.959,2.621c.2,1.85.144,3.73.175,5.6.013.763-.08,1.511,1.072,1.523.191,0,.541.628.516.942a1.079,1.079,0,0,1-.7.779,38.327,38.327,0,0,1-4.213,0,1.059,1.059,0,0,1-.742-.736c.006-.354.341-.97.594-1,.835-.1.893-.573.881-1.216-.027-1.441.038-2.887-.056-4.323s-.618-1.873-1.875-1.858a2.01,2.01,0,0,0-2.266,1.993c-.06,1.478-.058,2.963.006,4.441a1.135,1.135,0,0,0,.65.853.826.826,0,0,1,.7,1.2,1.291,1.291,0,0,1-.956.655,26.058,26.058,0,0,1-3.51,0c-.3-.02-.836-.444-.818-.643a2.767,2.767,0,0,1,.6-1.148c.206-.3.673-.549.685-.836.067-1.478.08-2.963.005-4.441-.079-1.579-.619-2.1-1.931-2.073a2.1,2.1,0,0,0-2.253,2.276c-.026,1.363.008,2.728-.01,4.092-.008.6.157.985.843.966.768-.022.859.469.848,1.088-.013.752-.508.755-1.043.754-1.289,0-2.58.046-3.864-.035a1.273,1.273,0,0,1-.924-.7c-.184-.554,0-1.02.761-1.154a1.2,1.2,0,0,0,.73-.88c.068-1.907.068-3.82,0-5.727a1.181,1.181,0,0,0-.764-.843c-.784-.113-.931-.6-.759-1.148a1.491,1.491,0,0,1,.91-.733,4.278,4.278,0,0,1,1.279-.032C325.29,86.823,325.29,86.823,325.8,87.957Z" transform="translate(-170.583 -45.882)"/><path d="M190.558,97.514a16.561,16.561,0,0,1-3.249.841,3.731,3.731,0,0,1-4.15-3.178,13.512,13.512,0,0,1-.1-4.627c.64-3.768,4.758-5.2,7.824-2.78.8-1.51,2.188-.8,3.372-.835.157,0,.466.567.462.868s-.31.85-.491.852c-1.1.017-.987.74-1,1.453-.037,3.04-.03,6.082-.151,9.118a4.022,4.022,0,0,1-4.288,4.271,22.558,22.558,0,0,1-3.825-.363c-.711-.1-.945-.545-.691-1.282.245-.714.623-.935,1.317-.629a3.275,3.275,0,0,0,.564.154C189.524,102.185,190.977,100.867,190.558,97.514Zm.057-5.312h.019a15.353,15.353,0,0,0-.018-1.747,1.8,1.8,0,0,0-.408-1.027,2.694,2.694,0,0,0-4.579,1.311,11.347,11.347,0,0,0,.023,3.7,2.179,2.179,0,0,0,2.585,1.957,2.538,2.538,0,0,0,2.368-2.329C190.665,93.449,190.615,92.823,190.615,92.2Z" transform="translate(-97 -45.916)"/><path d="M369.393,81.88a16.2,16.2,0,0,1,2.533-1.209,3.865,3.865,0,0,1,4.954,2.909,13.718,13.718,0,0,1-.005,5.294c-.754,3.439-4.789,4.563-7.8,2.393a3.853,3.853,0,0,1-3.436.7,1.01,1.01,0,0,1-.374-.848c.045-.3.363-.771.579-.781.843-.037.92-.519.918-1.171q-.016-5.554,0-11.109c0-.6-.083-1.015-.853-1.116-.278-.037-.651-.674-.654-1.038,0-.266.528-.541.832-.8.046-.039.152-.01.23-.009,3.653.059,3.016-.519,3.079,2.957C369.412,79.316,369.393,80.582,369.393,81.88Zm0,4.933-.106.011a6.96,6.96,0,0,0,.386,2.591c.952,1.566,4.04,1.214,4.523-.552a11.3,11.3,0,0,0,.174-4.338,2.164,2.164,0,0,0-2.671-1.842,2.5,2.5,0,0,0-2.3,2.5C369.379,85.723,369.4,86.268,369.4,86.813Z" transform="translate(-193.705 -39.819)"/><path d="M142.741,86.094c0-1.6-.017-3.2.008-4.8.011-.7-.035-1.214-.953-1.243-.21-.007-.57-.6-.556-.909s.411-.851.645-.853a44.887,44.887,0,0,1,6.888.137c2.6.376,3.674,1.925,3.615,4.376a4.56,4.56,0,0,1-3.871,4.605,12.224,12.224,0,0,1-2.332.148c-.606,0-.857.223-.837.82a14.7,14.7,0,0,1-.011,1.87c-.108,1.125.045,1.924,1.5,1.756.2-.023.681.552.647.8-.045.33-.451.855-.725.869-1.6.083-3.2.077-4.8,0a1.074,1.074,0,0,1-.709-.772c-.023-.3.347-.891.55-.893.937-.011.96-.555.952-1.24C142.727,89.213,142.741,87.654,142.741,86.094Zm2.606-3.258h.008a20.258,20.258,0,0,0,.024,2.1c.028.268.305.7.513.726a3.345,3.345,0,0,0,3.149-.843,2.948,2.948,0,0,0,.52-3.077,3,3,0,0,0-3.539-1.628c-1.29.25-.428,1.346-.663,2.02A2.245,2.245,0,0,0,145.347,82.837Z" transform="translate(-74.905 -41.488)"/><path d="M251.521,78.294c1.485,0,2.97.015,4.455-.007.686-.01,1.019.255.991.961-.023.584-.013,1.17,0,1.755.012.619-.117,1.058-.889,1.065-.727.007-1.13-.213-1.037-1.005.089-.754-.335-.933-.992-.916-.976.024-1.955.032-2.931,0-.714-.025-.994.277-.951.971.029.466,0,.936,0,1.4,0,2.376.5,2.779,2.884,2.274.226-.047.562-.362.562-.551,0-.869.526-.9,1.17-.9.83,0,.8.567.8,1.129a23.287,23.287,0,0,1-.037,2.687,1.272,1.272,0,0,1-.732.888c-.487.141-1.089.169-1.208-.673a1.076,1.076,0,0,0-.8-.662c-3.229-.029-2.559-.351-2.636,2.4-.008.273,0,.546,0,.819,0,1.842.006,1.807,1.843,2.092a.846.846,0,0,1-.023,1.68c-1.755.077-3.517.07-5.272,0-.256-.01-.672-.5-.69-.785s.351-.873.566-.88c.929-.031.95-.58.947-1.26q-.019-4.739,0-9.477c0-.67-.1-1.094-.913-1.181-.25-.027-.629-.656-.6-.978a1.167,1.167,0,0,1,.8-.808c1.559-.082,3.125-.038,4.688-.038Z" transform="translate(-130.478 -41.519)"/><path d="M217.408,97.394a23.115,23.115,0,0,1-3.933.894,2.759,2.759,0,0,1-2.993-2.4,3.134,3.134,0,0,1,1.808-3.768,23.515,23.515,0,0,1,3.5-.832c.492-.107,1.3.134,1.2-.691a3.118,3.118,0,0,0-.825-1.984,2.031,2.031,0,0,0-2.954.861c-.477.939-1.241.667-1.908.514a1.967,1.967,0,0,1-.058-1.365,2.815,2.815,0,0,1,1.094-1.3,5.95,5.95,0,0,1,5.511-.313,3,3,0,0,1,1.722,2.96c.031,1.673.015,3.348.013,5.022,0,.595-.058,1.144.8,1.3.229.04.465.712.466,1.095,0,.219-.445.589-.727.629A5.845,5.845,0,0,1,218.147,98C217.789,97.923,217.508,97.481,217.408,97.394Zm-.241-3.761c-.075-.091-.37-.711-.612-.69a8.936,8.936,0,0,0-2.9.627c-.394.177-.653,1.008-.666,1.55a1.548,1.548,0,0,0,.79,1.136C215.433,97.032,217.17,95.85,217.166,93.633Z" transform="translate(-111.581 -45.863)"/><path d="M289.58,88.544c1.177-1.529,2.394-2.157,3.988-1.945.681.091,1.094.35,1.049,1.108-.028.466.029.938-.011,1.4-.054.626.315,1.435-.875,1.528-1.132.088-1.334-.471-1.308-1.37,0-.067-.069-.135-.106-.2a1.917,1.917,0,0,0-2.307,1.61,27.505,27.505,0,0,0-.16,5c.008.21.965.493,1.5.547.732.073,1.409.116,1.205,1.076-.064.3-.475.744-.741.754-1.794.067-3.593.067-5.387,0a1.05,1.05,0,0,1-.736-.728c.005-.353.328-.967.58-1,.826-.116.883-.592.878-1.23-.015-1.754-.018-3.509,0-5.263.007-.66-.085-1.1-.918-1.171-.252-.02-.65-.639-.626-.958.022-.3.465-.686.806-.815a5.26,5.26,0,0,1,1.276-.045C288.736,86.736,289.571,86.9,289.58,88.544Z" transform="translate(-151.47 -45.905)"/><path d="M171.995,92.084c0,1.208.017,2.417-.005,3.624-.012.642.135,1.077.9,1.018.694-.054.971.378.8.942a1.262,1.262,0,0,1-.837.782,39.917,39.917,0,0,1-4.448,0,1.14,1.14,0,0,1-.756-.83c-.007-.29.455-.836.724-.844.856-.025,1.053-.41,1.039-1.169-.033-1.831-.017-3.663-.009-5.5,0-.565-.079-1.025-.8-1-.81.027-.934-.554-.767-1.1a1.253,1.253,0,0,1,.88-.753c4.013-.014,3.19-.54,3.282,2.957C172.008,90.836,171.994,91.461,171.995,92.084Z" transform="translate(-88.909 -46.257)"/><path d="M275.3,92.064c0,1.208.016,2.416,0,3.624-.011.626.092,1.091.876,1.027.684-.057.852.331.853.942,0,.712-.406.829-.984.825-1.406-.011-2.811-.017-4.217,0-.627.008-.932-.211-.936-.877,0-.648.25-.951.9-.894.768.067.9-.383.9-1.019-.016-1.831-.019-3.663,0-5.495.008-.673-.109-1.094-.93-1.161-.253-.021-.652-.628-.631-.943s.488-.59.772-.872c.04-.04.151-.013.229-.012,3.858.04,3.084-.473,3.17,2.983C275.314,90.817,275.3,91.441,275.3,92.064Z" transform="translate(-143.662 -46.246)"/><path d="M397.64,92.084c0,1.209.017,2.419,0,3.628-.012.655.174,1.063.921,1.005.7-.054.962.388.785.947a1.26,1.26,0,0,1-.838.776,39.984,39.984,0,0,1-4.451-.005,1.141,1.141,0,0,1-.751-.836c-.007-.289.46-.831.729-.837.863-.019,1.049-.411,1.035-1.169-.033-1.794-.024-3.589,0-5.383.008-.666-.09-1.1-.921-1.169-.255-.02-.658-.612-.645-.927s.47-.6.736-.893c.018-.02.075-.007.115-.007,3.976.037,3.2-.509,3.289,3C397.651,90.836,397.638,91.46,397.64,92.084Z" transform="translate(-208.583 -46.247)"/><path d="M311.486,92.083c0,1.208.019,2.417-.006,3.625-.013.644.129,1.08.9,1.008.668-.062.884.282.882.913,0,.682-.345.865-.955.857-1.406-.018-2.812-.016-4.218,0-.6.006-.962-.167-.968-.852,0-.635.231-.965.888-.916.676.05.875-.3.869-.921-.02-1.91-.016-3.82,0-5.73,0-.586-.111-1-.821-.972s-.794-.445-.8-1.012c-.01-.679.349-.876.955-.87,4.033.043,3.181-.479,3.277,3C311.5,90.835,311.485,91.459,311.486,92.083Z" transform="translate(-162.877 -46.248)"/><path d="M398.9,78.667a1.583,1.583,0,0,1-1.627,1.606,1.527,1.527,0,0,1-1.614-1.593,1.556,1.556,0,0,1,1.664-1.667A1.58,1.58,0,0,1,398.9,78.667Z" transform="translate(-209.835 -40.843)"/><path d="M276.616,78.625a1.584,1.584,0,0,1-1.587,1.647,1.564,1.564,0,0,1-1.675-1.548A1.6,1.6,0,0,1,275,77.013,1.58,1.58,0,0,1,276.616,78.625Z" transform="translate(-144.969 -40.843)"/><path d="M312.782,78.61a1.574,1.574,0,0,1-1.567,1.66,1.527,1.527,0,0,1-1.673-1.532,1.622,1.622,0,1,1,3.24-.128Z" transform="translate(-164.161 -40.842)"/><path d="M171.591,77.015a1.629,1.629,0,1,1,.027,3.258,1.544,1.544,0,0,1-1.6-1.611A1.562,1.562,0,0,1,171.591,77.015Z" transform="translate(-90.166 -40.844)"/><path d="M39.109,53.727c-.456.318-.914.886-1.365.879a1.493,1.493,0,0,1-1.052-1.054,1.473,1.473,0,0,1,.968-1.111c.45-.042.952.477,1.431.752Z" transform="translate(-19.459 -27.81)"/></g></g></g></svg>