<svg xmlns="http://www.w3.org/2000/svg" width="256" height="119" viewBox="0 0 256 119"><defs><style>.a{fill:#f7f7f7;}.b{opacity:0.5;}</style></defs><g transform="translate(-912 -4295)"><g transform="translate(240 28)"><g transform="translate(531)"><g transform="translate(141 4267.143)"><rect class="a" width="256" height="119" transform="translate(0 -0.143)"/></g></g></g><g class="b" transform="translate(822.282 4005.55)"><g transform="translate(170.974 321.562)"><path d="M257.811,345.321q.627-2.654,1.254-5.309,1.746-7.4,3.494-14.8c.315-1.328.627-1.562,1.99-1.562.85,0,1.7-.006,2.551.011a1.283,1.283,0,0,1,1.419,1.1c.321,1.22.6,2.451.886,3.679q2,8.481,4,16.961c.011.046.025.091.07.248.07-.211.115-.325.145-.442q2.562-9.916,5.124-19.832c.076-.292.188-.576.291-.86a1.23,1.23,0,0,1,1.233-.849c1.093-.019,2.187-.018,3.28-.008a.586.586,0,0,1,.644.67,4.325,4.325,0,0,1-.182,1.07q-3.688,11.863-7.395,23.721c-.087.278-.187.551-.29.823a1.308,1.308,0,0,1-1.29.9c-1.117.021-2.235.018-3.352,0a1.25,1.25,0,0,1-1.249-1.03c-.236-.878-.443-1.764-.656-2.648q-2.074-8.613-4.146-17.227a.425.425,0,0,0-.141-.24c-.154.635-.31,1.27-.462,1.905q-2.11,8.81-4.221,17.62c-.334,1.391-.639,1.617-2.061,1.618-.765,0-1.531,0-2.3,0-1.11,0-1.485-.244-1.821-1.3-.645-2.034-1.256-4.08-1.877-6.121q-2.73-8.98-5.454-17.962a5.3,5.3,0,0,1-.214-.993c-.055-.535.2-.8.733-.8,1.093,0,2.186,0,3.28.006a1.2,1.2,0,0,1,1.276.883q.492,1.654.917,3.329,2.19,8.583,4.366,17.171c.023.092.054.181.081.272Z" transform="translate(-218.257 -322.858)"/><path d="M217.134,436.136c-1.869-.072-3.448-.085-5.02-.2a69.356,69.356,0,0,1-16.516-3.2,66.617,66.617,0,0,1-19.55-10.163c-1.57-1.181-3.046-2.487-4.562-3.738a2.221,2.221,0,0,1-.284-.283.853.853,0,0,1-.122-.979.755.755,0,0,1,.981-.216c.662.33,1.3.7,1.952,1.058a89.1,89.1,0,0,0,16.4,6.947,86.587,86.587,0,0,0,10.726,2.648c2.05.362,4.11.682,6.178.92s4.172.4,6.263.512c2.059.106,4.125.172,6.185.123,2.167-.052,4.334-.211,6.494-.407a88.969,88.969,0,0,0,21.495-4.728c1.716-.6,3.393-1.316,5.1-1.943a2.507,2.507,0,0,1,1.165-.13,1.106,1.106,0,0,1,.931.874,1.2,1.2,0,0,1-.431,1.245c-.407.344-.846.651-1.285.956a55.172,55.172,0,0,1-12.491,6.36,67.329,67.329,0,0,1-13.292,3.424c-1.843.276-3.7.486-5.554.649C220.214,436.017,218.528,436.061,217.134,436.136Z" transform="translate(-170.974 -381.019)"/><path d="M198.278,346.067c-.26.273-.49.522-.726.763a11.209,11.209,0,0,1-8.591,3.449,8.586,8.586,0,0,1-4.98-1.481,7.364,7.364,0,0,1-3.083-5.621,8.589,8.589,0,0,1,.9-5.017,8.683,8.683,0,0,1,5.678-4.22,14.821,14.821,0,0,1,5.711-.32c1.49.188,2.965.489,4.447.739.092.016.186.018.314.03a21.791,21.791,0,0,0-.3-4.983,4.258,4.258,0,0,0-3.688-3.353,14.41,14.41,0,0,0-7.078.537c-.981.31-1.94.695-2.915,1.026s-1.3.1-1.307-.932c0-.51.011-1.021,0-1.531a1.418,1.418,0,0,1,.91-1.44c.97-.409,1.934-.848,2.936-1.165a19.1,19.1,0,0,1,9.425-.56,7.942,7.942,0,0,1,5.272,3.08,9.146,9.146,0,0,1,1.6,4.434,28.435,28.435,0,0,1,.145,2.908c.018,2.927-.006,5.855.015,8.783a18.186,18.186,0,0,0,.183,2.243,9.716,9.716,0,0,0,1.164,3.082,1.124,1.124,0,0,1-.424,1.708q-.9.618-1.818,1.212a1.214,1.214,0,0,1-1.855-.279c-.559-.727-1.034-1.52-1.532-2.293C198.533,346.623,198.424,346.353,198.278,346.067Zm-5.737-9.008c-.878.1-1.77.133-2.632.309a4.2,4.2,0,0,0-3.533,3.069,6.174,6.174,0,0,0-.1,2.494,3.611,3.611,0,0,0,3.005,3.229,8.3,8.3,0,0,0,6-1.2,5.19,5.19,0,0,0,2.563-3.877c.112-1,.117-2.009.176-3.013.012-.208-.1-.259-.275-.3A29.952,29.952,0,0,0,192.541,337.059Z" transform="translate(-177.11 -321.612)"/><path d="M361.366,321.568a17.972,17.972,0,0,1,6,1.023,8.744,8.744,0,0,1,.965.424,2,2,0,0,1,1.258,2.129c-.042.458,0,.924-.036,1.383a.655.655,0,0,1-.928.65c-.452-.13-.884-.329-1.324-.5a14.137,14.137,0,0,0-8.041-.74,5.8,5.8,0,0,0-1.133.386,3.167,3.167,0,0,0-.52,5.446,13.847,13.847,0,0,0,3.485,1.53c1.716.561,3.45,1.078,5.142,1.706a7.413,7.413,0,0,1,3.681,2.743,7.664,7.664,0,0,1-1.21,9.719,10.32,10.32,0,0,1-5.333,2.581,19.107,19.107,0,0,1-10.575-1.1,7.473,7.473,0,0,1-1.029-.54,1.642,1.642,0,0,1-.848-1.476c-.015-.558-.019-1.118,0-1.676.027-.756.412-1.039,1.133-.808.541.173,1.06.417,1.593.617a16.868,16.868,0,0,0,8.333,1,6.19,6.19,0,0,0,2.579-.932,3.287,3.287,0,0,0-.242-5.664,22,22,0,0,0-2.831-1.131c-1.594-.544-3.225-.986-4.809-1.556a8.057,8.057,0,0,1-4.472-3.6,7.209,7.209,0,0,1,1.809-9.333,10.991,10.991,0,0,1,6.409-2.275C360.733,321.553,361.05,321.568,361.366,321.568Z" transform="translate(-282.754 -321.562)"/><path d="M379.672,412.359a19.058,19.058,0,0,1,4.541.561c.281.074.55.188.826.281a1.336,1.336,0,0,1,.959,1.394,19.245,19.245,0,0,1-3.168,11.063,13.811,13.811,0,0,1-2.732,3.2,2.217,2.217,0,0,1-.791.413.4.4,0,0,1-.512-.442,2.237,2.237,0,0,1,.148-.594c.789-2.242,1.618-4.47,2.362-6.726a10.042,10.042,0,0,0,.551-3.505,1.581,1.581,0,0,0-1.178-1.682,9.387,9.387,0,0,0-1.988-.4,31.777,31.777,0,0,0-6.024.194c-1.012.1-2.023.21-3.036.3-.261.024-.564.061-.7-.251a.619.619,0,0,1,.27-.765,17.258,17.258,0,0,1,2.1-1.291,16.765,16.765,0,0,1,5.8-1.566C377.956,412.47,378.815,412.422,379.672,412.359Z" transform="translate(-293.924 -377.969)"/></g></g></g></svg>