<svg xmlns="http://www.w3.org/2000/svg" width="256" height="119" viewBox="0 0 256 119"><defs><style>.a{fill:#f7f7f7;}.b{opacity:0.5;}</style></defs><g transform="translate(-141 -4267)"><g transform="translate(141 4267.143)"><rect class="a" width="256" height="119" transform="translate(0 -0.143)"/></g><g class="b" transform="translate(210.425 4293.121)"><path d="M287.523,44.364v.9q0,10.573,0,21.145c0,1.347-.321,1.664-1.687,1.665q-3.764,0-7.527,0c-1.454,0-1.714-.253-1.714-1.7q0-14.176,0-28.352V4.367c0-.29-.005-.581,0-.871.033-.985.366-1.329,1.355-1.335,2.139-.012,4.279,0,6.418,0q3.8,0,7.607,0a11.757,11.757,0,0,1,11.8,11.7q.044,7.8,0,15.6a11.366,11.366,0,0,1-5.75,10.036.9.9,0,0,0-.471,1.256q3.975,12.689,7.908,25.39a6.384,6.384,0,0,1,.24.835c.118.711-.156,1.084-.872,1.089q-4.358.027-8.716,0c-.865-.007-1.443-.569-1.743-1.573q-1.906-6.368-3.8-12.74c-.857-2.884-1.7-5.771-2.553-8.656-.076-.258-.169-.511-.255-.767Zm0-22.736c0,2.926.01,5.852-.009,8.777,0,.569.162.817.766.779.683-.043,1.371-.006,2.057-.01a2.317,2.317,0,0,0,2.554-2.48q.028-7.038,0-14.076a2.357,2.357,0,0,0-2.426-2.478c-.684-.033-1.375.034-2.056-.023-.7-.058-.908.2-.9.891C287.543,15.882,287.523,18.756,287.524,21.629Z" transform="translate(-188.833 -1.47)"/><path d="M201.272,68.076c-1.294,0-2.588,0-3.882,0-1.271,0-1.646-.353-1.739-1.613-.221-3-.464-6-.643-9-.043-.732-.31-.939-1.006-.916-1.345.044-2.7.056-4.039,0-.771-.034-.99.267-1.036.986-.189,2.975-.424,5.947-.647,8.92-.1,1.306-.437,1.627-1.71,1.628q-4,0-8,0c-1.183,0-1.451-.3-1.319-1.488q1.639-14.67,3.284-29.339,1.293-11.6,2.571-23.193.564-5.074,1.146-10.146c.175-1.509.461-1.75,1.959-1.75q5.862,0,11.725,0c1.225,0,1.594.324,1.732,1.557q1.137,10.146,2.262,20.294,1.7,15.3,3.4,30.59.649,5.821,1.31,11.64c.026.236.043.473.049.711.019.822-.23,1.107-1.063,1.117C204.176,68.088,202.724,68.075,201.272,68.076Zm-7.3-25.022h0q-.614-8.834-1.229-17.669c-.1-1.446-.194-2.893-.327-4.336-.018-.194-.256-.367-.392-.55-.17.18-.406.333-.493.547a2.649,2.649,0,0,0-.066.782q-.278,3.944-.558,7.887-.548,7.85-1.1,15.7c-.034.472.081.682.586.671,1.055-.023,2.111-.025,3.166,0,.509.013.642-.209.6-.669C194.078,44.632,194.029,43.842,193.969,43.054Z" transform="translate(-120.99 -1.473)"/><path d="M43.724,39.484c-.034-2.4-.634-4.651-2.739-6.213-3.86-2.863-7.686-5.771-11.55-8.628a4.369,4.369,0,0,1-1.908-3.564c-.056-2.956-.034-5.913-.013-8.87a2.191,2.191,0,0,1,1.792-2.134c2.248-.386,3.592.64,3.554,2.8-.064,3.589-.022,7.181-.014,10.771,0,1.051.3,1.281,1.313,1.018q4.024-1.048,8.043-2.112c1.223-.324,1.542-.74,1.545-2.023.007-2.957.025-5.914,0-8.87A11.623,11.623,0,0,0,34.151.264,33.777,33.777,0,0,0,27.438.076,11.6,11.6,0,0,0,16.662,10.682c-.2,4.214-.089,8.443-.127,12.665a7.8,7.8,0,0,0,3.455,6.591c3.418,2.573,6.722,5.3,10.2,7.779a6.059,6.059,0,0,1,2.653,5.478c-.022,1.795,0,3.59,0,5.386h-.01c0,2.138.038,4.278-.013,6.415-.036,1.52-1.1,2.308-2.907,2.274a2.27,2.27,0,0,1-2.406-2.37c-.014-1.109.008-2.218-.009-3.326-.016-1.051-.331-1.308-1.313-1.054q-4.1,1.061-8.194,2.153a1.634,1.634,0,0,0-1.446,1.8,19.675,19.675,0,0,0,.077,2.054,11.685,11.685,0,0,0,9.4,10.491,38.242,38.242,0,0,0,6,.23A11.707,11.707,0,0,0,43.737,55.72Q43.825,47.6,43.724,39.484ZM36.91,16.414,38.1,13.795l1.189,2.2,2.659-.082-1.924,2.215.454,2.568L38.1,19.864l-2.378,1.67.454-2.728-1.924-1.536Z" transform="translate(-11.289 0)"/><path d="M124.313,40.267q0,12.989,0,25.977c0,1.624-.209,1.834-1.812,1.835q-3.645,0-7.289,0c-1.457,0-1.831-.373-1.831-1.823q0-25.9,0-51.795c0-1.52.19-1.372-1.416-1.378-1.691-.007-3.381,0-5.071,0-1.04,0-1.4-.326-1.411-1.365q-.033-4.078,0-8.157c.008-1.043.371-1.391,1.392-1.391q12.044-.009,24.088,0c.987,0,1.348.361,1.351,1.336q.015,4.118,0,8.236c0,.991-.351,1.334-1.337,1.339-1.9.01-3.8.04-5.7-.014-.782-.022-.971.243-.969.989Q124.333,27.16,124.313,40.267Z" transform="translate(-72.001 -1.475)"/><path d="M19.335,124.187c0,1.068-.024,2.139.012,3.207.014.409-.26,1.045.53,1.075.694.026.984-.313.992-1.111.009-.843,0-1.687,0-2.53,0-1.3.17-1.464,1.619-1.5.016.227.047.458.047.689q0,4.666,0,9.331a1.042,1.042,0,0,1-1.269,1.166c-.157-.022-.37-.391-.378-.607-.04-1.053.013-2.11-.041-3.161-.015-.287-.284-.8-.439-.8-.514,0-1.081.1-1.075.854.009,1.16,0,2.319,0,3.479A1.124,1.124,0,0,1,17.9,135.34a.681.681,0,0,1-.315-.531q-.029-4.863-.007-9.726C17.582,124.425,17.993,124.221,19.335,124.187Z" transform="translate(-11.995 -84.197)"/><path d="M38.031,130.766c-.024-.34-.055-.571-.055-.8,0-3.109.016-6.219-.017-9.328a.939.939,0,0,1,.844-1.093c.8-.18,1.572-.447,2.372-.6a1.048,1.048,0,0,1,.735.267,2.993,2.993,0,0,1-.321,1.17c-.077.144-.431.142-.659.206-1.184.333-1.184.333-1.185,1.523,0,.079,0,.158,0,.237,0,1.189,0,1.169,1.136.944.236-.047.514.117.773.184-.113.421-.223.842-.344,1.261-.007.026-.1.025-.147.042-1.418.5-1.418.5-1.418,1.98v.316c0,1.62,0,1.6,1.587,1.364.191-.029.592.2.6.331.038.43.259,1.018-.414,1.189C40.4,130.24,39.275,130.48,38.031,130.766Z" transform="translate(-25.915 -81.2)"/><path d="M1.6,139.585c0-1.82,0-3.583,0-5.346,0-1,0-2.006,0-3.009-.006-.972-.061-1.011-.992-.807-.147.032-.3.043-.443.063-.333-1.27-.222-1.5.934-1.783,1.194-.293,2.4-.546,3.6-.816.274,1.2.2,1.286-.734,1.687a1.1,1.1,0,0,0-.583.766c-.076,1.738-.078,3.48-.1,5.22-.009.818,0,1.636,0,2.455C3.276,139.373,3.183,139.467,1.6,139.585Z" transform="translate(0 -87.311)"/></g></g></svg>