<svg xmlns="http://www.w3.org/2000/svg" xmlns:xlink="http://www.w3.org/1999/xlink" width="256" height="238.5" viewBox="0 0 256 238.5"><defs><style>.a,.j{fill:#fff;}.a,.b{stroke:#707070;}.b{fill:#f7f7f7;}.c{fill:none;}.d{clip-path:url(#a);}.e{clip-path:url(#b);}.f{fill:#84c6e7;stroke:#dadada;stroke-width:0.584px;isolation:isolate;}.f,.h{stroke-miterlimit:10;}.g{clip-path:url(#c);}.h{fill:#dadada;stroke-width:0.292px;}.h,.i,.j{stroke:#202020;}.i,.k{fill:#202020;}.i{fill-rule:evenodd;}.l{stroke:none;}</style><clipPath id="a"><rect class="a" width="256" height="238.5" transform="translate(969 707)"/></clipPath><clipPath id="b"><rect class="b" width="456" height="310" transform="translate(969 918)"/></clipPath><clipPath id="c"><rect class="c" width="963.292" height="453.465"/></clipPath></defs><g transform="translate(-969 -680)"><g transform="translate(0 -27)"><g class="d"><g class="e" transform="translate(-112 -258)"><g transform="translate(737.525 834.313)"><rect class="f" width="963.292" height="453.655"/><g class="g"><g transform="translate(-344.712 -473.872)"><g transform="translate(0 0)"><path class="h" d="M1982.409,1661.768l-11.1,20.819,6.25,20.112,14.58,25,24.284,30.546-3.466,10.41v28.454l-10.408,4.865-6.943,6.931v16.659l-14.921-11.455-9.375-9.364-3.465-13.886,6.943-6.932v-13.181l2.42-14.251-8.671-8.658h-24.989l-13.886-13.886-8.33-7.637,1.74-5.91,5.2-11.455,1.046-13.523,7.637-4.864,5.9-5.91-5.558-6.932,1.4-12.841-1.74-8.318,3.465-8.342-2.6-10.239,9.193-9.192-9.716-17.706-3.465-14.228,22.558,2.432h7.806l9.375,16.659,5.728,15.1v19.262l6.25,3.113Z" transform="translate(-1288.294 -604.953)"/><path class="h" d="M1184.289,1815.354l6.251-.34,4.341-4.33,7.114,2.6,5.2,3.113,9.022-2.092,5.205-6.226,7.977-1.046,6.943.341,6.591,7.637,7.3,6.249,135-1.385,13.365,13.352,43.2,2.6,12.841,3.479,15.274-.68,17.011-2.434h10.75l16.319-3.818,18.4-4.183,2.25-2.238-38.695-38.719v-99.931H1549.4v-9.728l7.977-7.978-4.5-9.388v-37.477h-18.057l-6.25,6.25h-18.034l-9.035,2.773-2.079-11.8,5.2-5.2-3.125-17-12.84-12.84v-20.479l4.512-18.75-5.545-13.182.692-18.047-36.8-2.771v-8.342h-28.455l-2.772,13.205-4.171,4.159v11.8h-23.6s-10.409-2.092-12.489,0-16.659.7-16.659.7l-20.125-20.137v-9.727l-7.636-14.569v-6.93l-4.159-9.728-102.048-4.159-25.67,8.317v10.41l7.283,7.3,9.365,9.365s-3.467,9.023.7,13.205c4.159,4.159,11.1,19.432,11.1,19.432l2.08,12.475-2.772,8.342s-6.943,4.16-6.943,7.637,6.251,12.5,6.251,18.751c0,6.226,7.624,16.635,7.624,20.113s9.727,14.567,9.727,18.045v20.819s-3.478,13.207-3.478,16.685c0,3.452-7.636,11.09-7.636,11.09l-12.489,6.955-4.864,11.794-10.057,10.069-3.125,15.614v9.7l-5.557,15.979-6.249,15.274v9.022l-8.671,8.683V1792.1Z" transform="translate(-1184.289 -586.764)"/><path class="h" d="M1547.16,1799.042v-99.931H1600.6v-9.728l7.977-7.978-4.5-9.388v-37.477l13.706,13.716h9.193l11.1-4.694,6.6,1.751,2.772,8.657,8.682,5.91,10.057,3.137,9.375,3.113,10.41,1.385,7.283-1.385,3.82-8.343h2.783l14.229,17.025,9.022,4.159,8.329,1.727,9.023,1.751,3.467,5.886,5.9,7.3,3.137,6.931,2.079,6.59h4.5l11.807-2.407h6.591v-12.841l1.4-13.206v-5.545h-6.25l-5.218,5.2s-4.159.342-6.238.342-23.772-21.694-23.772-21.694l-.523-12.307s6.591-11.114,6.591-13.546,1.4-30.182,1.4-30.182-5.91-14.932-5.91-17c0-2.092,6.079-8.173,6.079-8.173s11.1-7.636,9.377-9.363c-1.74-1.752-1.74-8.172-1.74-8.172l47.376-8.658,22.205,10.75,5.9,5.91,12.841,8.317,14.581,4.158,15.273,5.57,9.715,4.159,3.465,14.227,9.717,17.706-9.194,9.192,2.6,10.24-3.466,8.342,1.74,8.317-1.4,12.84,5.557,6.932-5.9,5.91-7.636,4.864-1.046,13.522-5.2,11.455-1.739,5.91,8.33,7.637-86.848,34.8,6.857,6.833v10.58h-23.432l-9.363,1.313-6.518,4.938-6.761,6.006-1.045,11.187-3.38,3.381-9.5,2.48-5.339,5.328-5.995,2.6-6.76,4.693-22.12,27.068-8.853,4.67h-4.95l-10.408-3.891h-6.774l-13.267-2.334h-7.3l-15.7-11.381-23.25,1.046-6.25.875h-14.056Z" transform="translate(-1235.494 -598.567)"/><path class="h" d="M1206.158,1416.1l-4.694-4.669,11.977-2.6v-19.261l13.011-13.036,14.057,8.852,4.427-4.425,13.79-7.54h6.251l4.693,4.695,5.716,5.714,5.728-5.714,18.216-13.012,9.643-9.631,11.188-11.722,3.125-36.432v-19.8l14.58-18.727,9.364-18.24,4.694-22.376,11.443-14.056,12.756-12.743,1.824-15.371v-11.965s7.283-15.614,9.375-17.706,5.2-14.056,5.2-14.056l3.125-13.521v-21.354l11.966-10.944,12.5-10.919h11.965l19.785,15.1,5.726,5.714,14.581,1.046,8.853,3.113,13.534,1.045h15.09l3.9-3.891,4.949-9.12,11.979-3.649,3.9,3.916,12.235-3.406,11.454-5.2,10.409-5.2h5.2l6.249,4.693,11.978-2.091,6.506-6.494,3.9-3.917,12.488,3.648,9.375,1.046,4.427,4.427,13.267.778,5.218-4.159h9.363l4.95,4.937,7.551,7.538,5.46,5.473,6.507,6.517,5.994,5.983,8.585-9.63h16.137l5.2,1.556,5.726-5.715,10.409,5.715,5.2,5.2,6.251,8.343,8.074,8.074,6.238,6.225h4.427v11.212l-1.035,8.853-4.17,4.159,1.569,7.807,9.885,4.693v7.272l-3.125,8.852-13.533,14.569-10.409,5.229-5.2,5.2-2.6,7.272v8.341l-7.3,7.272v21.354l-3.635,11.965v13.546l-9.375,9.365-3.125,10.944v7.806l-6.251.511v10.944l7.3,7.272,1.556,7.807v18.239l3.647,9.365,1.046,16.659v17.17l5.2,15.1v10.944l4.158,14.057,8.853,7.806,8.33,10.41,6.249,17.681,7.807,13.546-7.284-1.727-47.376,8.658s0,6.42,1.74,8.172c1.725,1.726-9.376,9.363-9.376,9.363s-6.079,6.08-6.079,8.173c0,2.067,5.91,17,5.91,17s-1.4,27.75-1.4,30.181-6.591,13.546-6.591,13.546l.523,12.307s21.681,21.694,23.772,21.694,6.238-.342,6.238-.342l5.218-5.2h6.25v5.545l-1.4,13.206V1639.8h-6.591l-11.807,2.407h-4.5l-2.079-6.59-3.137-6.931-5.9-7.3-3.467-5.886-9.023-1.75-8.329-1.727-9.022-4.159-14.229-17.025H1648.3l-3.82,8.343-7.283,1.385-10.41-1.385-9.375-3.114-10.057-3.137-8.682-5.91-2.772-8.657-6.6-1.751-11.1,4.694H1569L1555.3,1567.6h-18.057l-6.25,6.25h-18.034l-9.035,2.773-2.079-11.795,5.2-5.205-3.125-17-12.84-12.84V1509.3l4.512-18.75-5.545-13.181.692-18.047-36.8-2.771v-8.342H1425.49l-2.773,13.205-4.171,4.159v11.8h-23.6s-10.409-2.092-12.488,0-16.659.7-16.659.7l-20.125-20.137v-9.727l-7.636-14.569v-6.931l-4.159-9.728-102.048-4.159-25.67,8.317Z" transform="translate(-1186.712 -531.623)"/><path class="h" d="M1858.83,1526.492l5.9,5.91,12.841,8.317,14.581,4.158,15.273,5.57,9.715,4.159,22.558,2.433h7.806l9.375,16.659,5.727,15.1v19.261l6.25,3.113-3.137,8.342h21.523l6.944-2.092h7.637l10.409,6.956h6.944l6.591-6.615,7.99,2.432,9.715,3.478h4.159l7.284-7.3,6.6-6.591,9.716,2.092h6.251l9.716-6.955h9.715l15.273-6.25,14.568-9.022,6.6-6.59-7.3-5.206-5.728-2.092s-3.112-1.021-3.112-2.335c0-1.288-2.348-5.2-2.348-5.2l-1.3-7.806-1.3-10.944-5.2-4.67s-2.6-5.739-2.6-7.029c0-1.312-.267-7.028-.267-7.028s-2.858-6.518-2.858-8.075v-5.714l2.858-2.87,2.346-5.739-1.045-4.67h-4.937l-.267-9.632,1.823-4.427,3.126-3.38,1.824-3.649,1.3-3.38-2.08-3.137s-6.907-3.771-8.075-4.937a33.346,33.346,0,0,1-3.125-4.427l-4.425-5.2-4.159-8.074s.255-3.113.255-5.205c0-2.066,3.381-8.074,3.381-8.074l1.569-8.05,2.6-6.518.778-5.472,4.172-5.983v-3.38l-45.029-34.633-4.037-4.013,1.945-9.776-2.335-3.892-105.429-57.785-71.66-3.21-27.761,1.385-10.069,2.432,11.1,14.908-.354,22.909-4.158,4.159-4.512,4.524-.693,8.681,10.409,3.114-1.386,7.3-11.1,11.089-21.524,25.683-9.618,3.138.255,21.158,5.205,15.1v10.944l4.158,14.057,9.291,9.266,7.892,8.951,7,18.994,8.84,14.884Z" transform="translate(-1271.604 -562.702)"/><path class="h" d="M1944.241,1119.023l14.4,14.422v15.614l12.148,12.135v40.956l-13.181,13.182-12.331,25v35.143l-71.66-3.21-27.76,1.386-10.069,2.432-13.194,12.841-4.159-4.183-9.023,1.921v-13.546l3.636-11.965V1239.8l7.3-7.272v-8.342l2.6-7.272,5.2-5.2,10.409-5.229,13.534-14.569,3.125-8.852v-7.272l-9.885-4.693-1.569-7.807,4.17-4.159,1.035-8.852v-11.212l4.17-7.029h8.33l4.852,1.752h11.114l9.717,4.5,5.034-5.034,20.294-3.988,3.99,3.988h10.591Z" transform="translate(-1272.501 -537.525)"/><path class="h" d="M1787.577,1358.25l9.023-2.966,7.468,4.693,10.591-1.556,2.6-10.579,10.579-1.046,15.614-.875-8.669,8.683-.694,8.682,10.409,3.113-1.386,7.3-11.1,11.09-21.523,25.682-9.619,3.138-.791-12.671-3.647-9.364v-18.24l-1.556-7.807Z" transform="translate(-1269.42 -569.542)"/><path class="h" d="M1843.453,1339.707l-15.614.875-10.579,1.046-2.6,10.579-10.591,1.556-7.468-4.693-9.023,2.966v-10.944l6.251-.511v-7.806l3.125-10.944,9.375-9.364,9.022-1.921,4.159,4.183,13.194-12.841,11.1,14.909Z" transform="translate(-1269.42 -563.329)"/><path class="h" d="M2220.591,866.7l11.807,11.8V891.68l13.181,13.887,15.273,11.115,15.273,15.273h20.819l27.774,8.317,16.647,5.545h38.876l-92.32,92.32-11.8,11.819h-33.318l-6.251,6.226h-13.181l-16.66,10.434-14.579,7.637H2172.7l-13.194-13.207-18.045,18.045-12.488,12.5-43.036-11.09-41.648-23.615H2017.9v-10.409l-3.465-15.274h-11.1l-6.249-6.249-5.9-5.886v-9.388l-8.682-14.568-7.624-11.8-12.5-6.931-5.9-5.909s-7.3-7.3-9.375-9.365c-2.08-2.09-15.261-6.249-15.261-6.249v-6.251h5.544V939.59h4.864l14.569.681,7.3-7.272L1961,906.953V896.544s10.069-4.159,10.069-10.045V870.861l6.068-6.055h6.761s7.04-2.092,7.04-7.029c0-4.961.6-16.757.6-16.757l2.09-8.342,11.1-15.249,9.024-12.5h9.716l4.864-16.66,6.25-12.5.693-17.341h13.874l11.115-2.8,7.284,7.3,7.977-19.091,19.443,9.729h35.4l22.9,5.545,14.581,8.341,13.886,15.274,14.579,13.886,10.409,9,4.159,10.434-7.283,7.272-7.285,17-4.171,11.113,8.331,8.343h21.511l4.171,1.385Z" transform="translate(-1289.778 -484.581)"/><path class="h" d="M2032.681,596.446c-1.118-5.3-7.818-9.048-12.464-11.5-2.651-1.387-3.5-2.214-6.275-2.383-1.179-.074-2.286.194-3.38-.317-3.356-1.581-1.593-4.232-2.177-6.98-1.24-5.788-4.888-10.676-6.6-16.295-1.557-5.083-1.472-10.725-1.727-16.318-.413-8.9-.693-17.876-.693-26.8,0-4.135,1.678-7.635,1.41-11.674-.316-4.67-3.112-7.076-5.508-10.822a22.085,22.085,0,0,1-3.9-11.674c-.255-4.475-.436-5.545-3.307-9.071-1.021-1.24-1.617-2.919-2.627-3.965-1.216-1.24-2.748-1.6-3.843-2.651-2.005-1.9-2.724-4.767-5.095-6.347-2.261-1.484-5.229-2.481-7.673-3.771l-11.1-5.2-2.432-8.683h-2.773l-3.478,3.478-4.159,5.545h-5.2l-4.172-.682-4.511,3.113-.694,7.3-4.512,6.59-5.9,2.773-8.671.364-3.125,3.113-1.4,5.2-2.772,5.2-6.932,2.091-7.3-3.088h-4.548l-5.861-5.861L1830,476.352v-4.865h-3.467l-4.864,4.865-3.466.779H1634.948v62.211h-30.194V672.349h-8.073l-9.364-.243s-10.677,2.067-11.978,2.067-1.824,4.159-1.824,4.159v10.677l-4.414,6.517-4.427,7.029-6.505,4.937,1.033,7.3-.778,6.762-5.473,4.159-3.113,6.007-.778,5.2,3.381,9.631-2.347,3.892-6.25,4.426-4.16,4.937s1.3,3.916,2.08,4.695,4.159.778,5.728.778,5.726,1.313,8.061,1.313,1.046,5.2,1.046,5.2l2.87,10.92,3.636,8.342v7.54l5.2,4.425,4.171,5.984.255,14.057,17.705,20.576,2.858,5.2,1.046,5.983s-.257,5.983-.257,7.54a31.622,31.622,0,0,1-1.312,5.739l-1.034,4.159-2.347,4.427,2.079,8.342h3.649l3.379.51,3.9,1.046h7.3l-1.3,11.7a45.523,45.523,0,0,0,7.283,1.045c2.6,0,6.506.778,8.331.778s5.2,1.824,5.2,1.824l7.3,6.762,5.716,3.647.266,3.917V923.8l4.937,5.982,9.9,2.6,4.682,4.695,7.552,5.2,5.471,7.807-.268,6.762,1.046,4.425,5.983,6.007,5.206,1.29,4.948,3.647,4.292,2.724,6.118,6.129,1.823,12.233,4.95,4.937,7.55,7.538,5.46,5.473,6.507,6.517,5.994,5.983,8.585-9.63h16.137l5.205,1.556,5.726-5.715,10.409,5.715,5.2,5.2,6.251,8.342,8.074,8.074,6.238,6.225h4.427l4.17-7.029h8.33l4.852,1.752h11.114l9.717,4.5,5.034-5.034,20.295-3.989,3.99,3.989H1889l17.183-14.227,9.194-9.194h47.192v-10.409L1959.1,988.61H1948l-6.249-6.249-5.9-5.886v-9.388l-8.682-14.568-7.624-11.8-12.5-6.931-5.9-5.909s-7.3-7.3-9.375-9.364c-2.08-2.09-15.261-6.249-15.261-6.249v-6.251h5.544V897h4.864l14.569.681,7.3-7.272-3.126-26.047V853.949s10.069-4.159,10.069-10.045V828.267l6.068-6.055h6.761s7.04-2.092,7.04-7.029c0-4.961.6-16.757.6-16.757l2.091-8.341,11.1-15.249,9.023-12.5h9.716l4.865-16.66,6.25-12.5.693-17.341-1.4-22.91,4.864-12.5v-5.545l7.636-14.592-1.046-17,8.683-8.682H2007v-9.023l12.488-6.226,10.763-5.2,10.069-10.069-3.126-3.138Z" transform="translate(-1234.439 -441.987)"/><path class="h" d="M1200.836,1459.619l11.978-2.6v-19.262l13.7-13.036-6.068-6.055-5.9.681-7.989,8-9.546,12.647,2.346,2.358v7.88l2.554,2.579Z" transform="translate(-1186.085 -579.807)"/><path class="h" d="M1407.152,1085.863v-6.251l11.966-10.944,12.5-10.919h11.965l19.785,15.1,5.726,5.714,14.581,1.046,8.854,3.114,13.534,1.045h15.09l3.9-3.891,4.949-9.12,11.979-3.648,3.9,3.916,12.235-3.405,11.454-5.2,10.409-5.2h5.2l6.249,4.694,11.978-2.092,6.506-6.494,3.9-3.917,12.489,3.648,9.375,1.046,4.427,4.427,13.266.778,5.218-4.159h9.363l-1.823-12.233-6.118-6.129-4.292-2.724-4.948-3.647-5.206-1.29-5.983-6.007-1.046-4.425.268-6.762-5.471-7.807-7.552-5.2-4.682-4.695-9.9-2.6-4.937-5.982V978.1l-.266-3.917-5.716-3.647-7.3-6.762s-3.382-1.824-5.2-1.824-5.728-.778-8.33-.778a45.527,45.527,0,0,1-7.283-1.045l1.3-11.7h-7.3l-3.9-1.046-3.379-.51h-3.649l-2.079-8.342,2.346-4.427,1.034-4.159a31.62,31.62,0,0,0,1.312-5.739c0-1.557.257-7.54.257-7.54l-1.046-5.983-2.859-5.2-17.7-20.576-14.836-4.669-9.364,4.159-9.9,5.2-.523,7.3-9.108,9.1L1481.6,917.177l-17.181,12.5-15.614,8.341h-22.388l-9.375,4.67,5.2,7.807-5.458,5.471-12.756,12.768-13.535,2.579h-16.659l-10.409,6.785-12.756,3.38-7.3-7.3-8.585,8.609-10.932,2.578-8.331-.51-7.162,7.15-4.292,6.128-1.3,5.714-4.159,3.382-2.869,4.694-3.9,6.517-2.079,2.6-4.172,5.2-2.6,2.6s4.172,5.714,4.172,8.584v10.677s.255,4.159.255,5.473c0,1.289.778,8.829.778,8.829l2.091,6.006,5.984,7.272s5.2,4.693,5.2,5.982c0,1.313,2.871,10.167,2.871,10.167l3.9,8.316s4.159,4.185,4.159,6.785,7.028,7.54,7.028,7.54l6.774,5.472,4.158,2.335,1.568,6.249,2.858,8.853,5.2-5.2,2.6-13.547v-10.409l12.5-4.159h9.363l8.33-4.159,11.978,5.2,11.454-1.046,10.932-3.113Z" transform="translate(-1198.216 -503.829)"/><path class="h" d="M1285.052,834.5l-6.859-6.857h-6.08l-4.037-22.472,9.425.948,13.011,15.1,5.727,9.364Z" transform="translate(-1196.112 -493.236)"/><path class="h" d="M2286.264,854.23h-12.489l-10.408-2.068,7.283-7.3,14.921-6.591V827.161L2276.2,817.8l-10.056,10.069-12.5-1.387-7.283,7.272-7.284,17-4.171,11.113,8.331,8.343h21.51l4.171,1.386Z" transform="translate(-1332.542 -495.018)"/><path class="h" d="M2232.049,1088.263,2214.7,1118.1v112.433l17.352,25,9.023-22.2,18.046-18.047,15.272-23.613,20.125-20.137,25.682-14.57,24.99-12.5,15.272-15.273,27.762-27.749,21.513-21.525,13.192-13.181,19.445-25,8.329-22.205,9.716-24.975,13.874-16.685V965.4l15.274-15.274,15.966-15.979.693-22.885,11.114-23.615V854.326s-.706-.681-4.864-4.841c-4.17-4.184-6.591-9.387-11.8-4.184s-15.273,11.8-20.831,11.8-20.818,8.342-27.761,8.342h-15.273c-7.722-1.653-12.537,2.9-20.1,4.233-8.063,1.41-16.331-1.046-24.053,2.675-10.251,4.962-15.164,8.2-26.582,7.782-8.184-.291-13.5-.632-21.439,1.873-15.54,4.863-31.751,15.371-45.065-.414-1.265-1.507-14.459-25.488-16.162-23.784-.011,0-22.909,22.909-22.909,22.909l11.808,11.8V905.69l13.181,13.886,15.273,11.115,15.273,15.273h20.818l27.774,8.318,16.647,5.545h38.877l-92.32,92.32-11.8,11.819h-33.318l-6.251,6.226h-13.181l-16.66,10.434Z" transform="translate(-1329.692 -498.592)"/><path class="h" d="M2250.193,791.4l-10.409-10.41L2226.6,767.807l-10.421-10.434-10.409-10.409-7.636-7.636-5.9-5.885-10.409-3.478-6.251-8.342s-5.556,2.091-7.635,0c-2.08-2.068-6.251-2.068-6.251-2.068l-7.977-7.977h-7.284l-6.943-12.159v-7.636s-7.637-15.274-7.637-18.045-5.557-18.728-5.557-18.728l-7.976-8V630.714h-5.9l-10.069,10.069-10.763,5.2-12.488,6.226v9.023h-8.329l-8.683,8.682,1.046,17-7.636,14.592v5.545l-4.864,12.5,1.4,22.91h13.873l11.115-2.8,7.284,7.3,7.977-19.091,19.443,9.729h35.4l22.9,5.545,14.581,8.341,13.886,15.274,14.579,13.887,10.409,9,4.159,10.434,12.5,1.387Z" transform="translate(-1306.54 -468.619)"/></g><g transform="translate(665.965 536.876)"><path class="h" d="M2165.727,1413.479h0l-.234.049.142-.115.092.066Zm1.786-1.763h0l.224.4-.076.174.2-.234.682.344-.108.458-.934,1.786-.491-.317.388-.76-.2-.016-.727-.972-.4.394-.005.42-.278.054.215-.361-.284-.491.163-.2-.082-.246.224-.229.115.076-.121-.251.262-.017.05.125.13-.125.023.125.284-.087.135.241-.161-.366.344.093.246-.115.037-.295.142.393Zm.181-.8h0l-.049-.06.053.021Zm.524-.229h0l.305.169-.175.13.071.174h.169l-.049.269.229.5-.382.278-.235-.136-.01-.215-.016.13-.442-.371-.215-.612.748-.317Zm.065-1.128h0l-.065-.071.082-.065Zm-1.616-.994h0l-.087-.033.093-.016Zm1.038-.053h0l.223.027-.1.2.262.5-.054.131-.246-.071.06-.2-.464-.289-.229.327-.458-.228.142-.437.245.12.4-.191.218.107Zm-1.4.2h0l.132-.044.022.355-.344.306.465-.142.1.126-.1.075.382.088-.027.186.147-.257.223.038.153,1.169.306.033-.05.148-.339-.049-.083.158.125.164-1.7.071.1-.606-.415.01-.224-.18.018-.792.2-.234-.2-.316.485-.252.464-.622.241.175-.094.393Zm2.605-1.316h0l.311.01-.186.306.158-.076.032.278.333.158-.269.115-.36-.163-.016.2.453-.005-.07.137.273-.12-.126.175.169.093.027-.372.459.175.371-.136.863.306-1.109,1.268-.1.4.137.252-.841,1.127-.448.208-.251-.251-.005-.366-.229-.049.1-.269-.168-.053-.054-.218.153-.049.022-.252-.066.224-.372-.039v-.24l.327-.207-.136-.327.175-.24-.137-.076-.011-.426-.1.262-.125-.24.065-.737-.12-.107-.071.344-.256-.142.146-.256-.1-.3-.24-.148v-.169l.9-.136.491.148Z" transform="translate(-1988.67 -1115.073)"/><path class="h" d="M2154.432,1429.948h0l-.088-.05.116-.038-.028.088Zm-.153-.546h0l-.054-.038.066-.011Zm-.082,0h0l-.1-.038.043-.022Zm-1.07-.934h0l.879.115.181-.12.147.426-.126.076-.47-.229h-.751l.126-.12-.108-.215.126.066Zm-4.171-.115h0l.044-.158.049.065Zm-.4-.215h0l-.033-.1.121.06Zm.36.1h0l-.215-.169.131-.065.083.235Zm-.294-.252h0l-.021-.01.021-.054Zm.388-.06h0l-.115.016.065-.12.05.1Zm.169-.295h0l-.05-.032.071-.158Zm.246-.234h0l-.121-.071,0-.2Zm.158-.153h0l-.06-.06.252-.147Zm.437-.148h0l-.164-.038-.038-.054Zm.781-.508h0l.06.148-.169-.136.053-.224.054.215Zm3.735-.6h0l-.295.017.29-.1.005.082Zm-.262-.066h0l-.125-.043h.082l.044.043Zm-2.867.006h0l-.224.491-.12-.465.283-.114Zm2.911-.06h0l-.044-.044h.044Zm.387-.066h0l-.049-.053.053-.033Zm1.19-.36h0l-.005.486-.388.464-.142-.038-.088-.781-.234-.24.159.131.038-.246.053.131.35.088.241-.831.256.142-.032.5-.208.191Zm2.5-3.587h0l-.044-.1.12-.054Zm-6.694-27.551h0l.246.737.371.107.262.295-.142,1.109.181.043.191.491-.022,1.239-.12-.01-.1.284.2.168.1.634.5.4.574-.125.021.927-.349.169.229.132.022.2-.41.262.06.529.606.53.153-.125.181.088.4-.088.774.879.656.322.546.7.338.126.181.537.627.464-.087.142.1.224.229.059-.083.509.591.725-.05.7.35-.257.426.3.082.322-.224.514.43.551.065,1.507.246.53-.311.537.573-.136.006-.421.4-.393.727.971.2.017-.387.758.48.322-.859,1.45-.475,1.67-.47.039.416.026.016.4-1.524,3.713-.327,1.485-.159-.022.1-.487-.132-.436-.158-.12-.147.093-.077-.2-.065.107-.284-.082-.065.667.093-.159.083.148-.107.486-.207.165-.382-.066.306.142-.065.7-.634.639-.442,1.376-.12-.06-.038-.332-.437-.448-.153.426-.328-.18-.164.1.13.584-.354-.044-.175.5-.136-.076-.449.219.05-.284h-.486l-.049-.115-.034.484.35.229.082.841.186-.262-.153.429.426,1.507-.732.076-.983-.327-.6.19-.289-.289-.049.1-.032-.137-.1.107-.125-.071-.033-.283.153-.289.181.148.011-.2.18.032-.224-.312-.312.136.372-.375-.131-.126.083-.447.344-.355.19.044-.087-.236-.311.05-.312-.279.181.376-.759.088-.484.54-.065-.153-.087.164-.1-.187-.284.12-.546-.475-.081.076.31.709.53.246-.2.088-.148-.164-.3.486.017-.295-.115-.05-.224.454-.125-.158-.246.148.2.115-.2.071-.108.3.307-.017-.459.082-.215.415.088.18.218-.053-.153.382-.158-.107.076.185.18.148.2-.159-.225.366-.36-.06-.13-.284-.262.044-.083-.289-23.249-16.3,15.573-5.58,2.861-6.227-3.419-2.015,1.175-1.986,3,1.8.967-3.822,6.481.039.6-.142Z" transform="translate(-1982.923 -1113.247)"/><path class="h" d="M2123.156,1371.522h0l.545.215.639.021.316.355.459-.12-.022.344,1.082.2.584.519.12.333.983-.082.328-.153.885.349,1.212.027.174.147.913.137-.051.191-.31.053.24.234.917-.262.214-.215.176.24.5-.107.939-.59.661.19.524-.136.163-.18,1.131.187.24-.039.355-.415,1.065-.175.256.12.279-.1.017.3.5.306.563.053.038.247.186.082.07-.294.475-.223.262-.361.486-.169.18.7.246.01.076.229.269-.131.376.649.174-.017.18-.262.229.2.426-.071.7.24-4.885,19.4-3-1.8-1.174,1.993,3.413,2.009-2.855,6.228-15.569,5.579-20.69-14.509-.721-1.759-.518-2.331-.513-.169-.224-.262-.747-.093-.382-.475-.464-.142-1.551.382h-.475l-.082-.273.338-.372.306-1.092-.12-.169-.3.088-.36-.137-.4.125v-.672l2.392-2.6.568-.076.153-.2v-.823l.835-.375-.644-4.035,3.216-.207.333-.2.556.246.345.372.617-.229.037-3.114.519-.039.759-5.984.726-.546.661-2.861,1.07.366,4.215-2.255.591-.546.726.005.333-.6.174.453,3.227,2.363,1.54,1.971.978,1.681.945.978.458.289.388.028.644.859.6.514.274.563.955-.4.142.187.644-.006.18-.262.612-.038.234.19Z" transform="translate(-1978.504 -1108.709)"/><path class="h" d="M2175.282,1382.541h0l-.06-.028.032-.01.028.038Zm.344-.885h0l-.038-.161.225-.076-.187.234Zm-.482-.246h0l-.148.268-.35-.148.442-.107.065-.2Zm.72-.224h0l-.033-.049.038-.038Zm-.4.044h0l-.2-.107.06-.3Zm6.044-11.592h0l-.037-.054.2-.223Zm.29-.169h0l-.214-.486.191.262Zm-.491-.169h0l-.115-.207.076-.252.039.459Zm.088-.977h0l-.028.278-.107-.6.3-.961-.24.928.076.35Zm.191-1.781h0l-.1-.295.108-.158-.011.453Zm.453-2.094h0l-.082-.076.065-.082Zm-.136-.18h0l-.044-.038.044-.01Zm-.2-.633h0l-.011.148-.174-.208.186.06Zm-.262-.022h0l-.153-.215.13,0,.023.218Zm.53-.186h0l.043-.333.054.066Zm-.273-.158h0v-.167l.076-.054Zm.061-.333h0l-.006-.07.169-.154Zm.306-.383h0l.107-.332.077-.011-.187.344Zm.016-.229h0l-.021-.049.049-.126Zm-.115-.038h0l-.262.021.2-.19Zm-.424-.186h0l-.071-.039.082-.083Zm.1-.175h0l-.082-.039.028-.065Zm.18-.306h0l.094.215-.2.219.088-.661.016.229Zm-.07-.316h0l-.076.107-.339-.044.088.438-.269-.017.252.448.163.083.066-.142.06.484-.215.3-.153-.3.039.316-.125.043.2.061.021.24-.268-.021.066.251-.153.132.168.07.082.251.142-.234.41.759-.076.372.1-.071.065.115-.295.273.049.187-.186.443.028-.2-.083.093-.186.776h-.158l-.071-.416-.076.71-.148-.093-.107.158.121.273.665-.371-.234.737-.2-.279-.24.18-.005.279.366-.107-.066.715-.246.088.083.743-.153,1.425.13-.065-.268.268.06.885.207-.147-.142-.1.241-.273.13.179.17-.065.082-.429.35-.235.2-.546.5-.12.563.083.573-.509.136.284-.115.278-.169-.107-.328.269-.523.136-.295.36-.027.35-.426.147-.273.285-.107.327.107.425-.59.623.174.393.038,1.038-.72.874-.383-.306.208.29-.043.215.115-.043-.415.7-.107.552.338.578-.065.775.18.284-.366,1.015-2.075,1.452-.885.438-.01.158-.328.054-.011.174-.229-.039-.994.873-.163-.049.065-.355.35-.257.3.071.142-.114-.191-.044.071-.388-.295-.573.4-.594-1.453.562.17.322-.241.218-.2-.093-.12.107.076.491-.168.174.289.136-.256.4.344-.327.168.23.41.12.065.6-1.267,2.621-.8,2.363-1.07,2.053-.7-.027-.934-.906-.7.076-.06-.107-.061.192-.2.033-.137-.47.126.038-.033-.3.215-.065-.039-.148-.447.332-.005.257.269.409.726.028.028.235.163.076-.4.153-.2-.224-.317.087.415.327.077.388.174-.137.137.24.41-.053.229-.376.093.115.246-.257.224.215.557.126.174.387-.065.7-.328.093-.5-.107.5.158.328-.093.147.53-.812,2.135-.443,1.774-1.8,3.86-.639.388-.491-.269-.322.131-.371-.1-.126-.215.054-.268-.252-.269.459-.813-.005-.12-.169.021-.115.372-.415.2-.136-.159-.065.484-.573-.1-.9.136.033.269.2.049.1.3-.2.18.1.295-.278-.071-.4.191-.256-.229-.344.12-.322-.344-.465.623-.47.224.18.344-.207.234-.421-.306-.35.257.049-.694-.59-.726.082-.508-.229-.06-.153-.545-.486-.284-.181-.537-.338-.125-.546-.7-.655-.322-.775-.879-.4.088-.182-.088-.153.126-.605-.53-.06-.53.41-.262-.022-.2-.229-.131.35-.169-.022-.928-.573.126-.5-.4-.1-.633-.2-.169.1-.284.121.011.021-1.24-.19-.491-.181-.043.142-1.109-.262-.295-.372-.107-.246-.737-.6.142-6.481-.038,3.942-15.568,20.95-23.724,8.927,12.605Z" transform="translate(-1986.235 -1106.811)"/><path class="h" d="M2204.246,1344.887h0l.2.076-.022.2-.256-.125-.011-.215.092.06Zm2.18-.283h0l-.175.016.215-.251Zm-.732-.294h0l-.049-.088.076.049-.028.039Zm.895.038h0l0-.18.093.053-.088.126Zm-.917-.448h0l.294-.022-.392.153-.051-.2Zm-.427-.257h0l.132.053-.049.131-.215-.1.131-.087Zm-.622.027h0l-.065-.066.038-.005Zm5.2-.257h0l.731,1.3-.061.164-1.391.071-1.7,1.073-.022-1.059.1.011.033-.483.175-.235.682.082-.343-.333.262-.283.709-.016.115-.159.065.148.284-.294.262-.088.1.1Zm-2.354.1h0l.247-.256-.083.18Zm-.12-.24h0l.027-.071.093-.011Zm.107-.3h0l.006.071-.219.028.215-.1Zm3.632-.115h0l-.083-.065h.071Zm.3-.049h0l-.054-.054-.005-.065.061.12Zm1.371-.136h0l.148-.016.043.153-.3-.158Zm-.41-.06h0l.475,1.136-.458.464-.573,1.054-.519.284-.616-.027-.18-.24.268-.361.05.142.088-.186.36-.174.567.174.273-.524-.3.229-.312-.192-.322.083-.2-.107-.573-.805-.241-.939.444.065.251.24.038-.093.088.241.306,0-.2.557.235.148.093-.1-.18-.132.4-.5-.082-.215.289.017.251.316-.279.279.17.218.415-.251-.148-.153.126-.328-.24-.256.114-.143.126.066Zm.142-1.906h0l-.033-.016.017-.038Zm2.528-.053h0l-.393-.022-.083-.24.371-.065.186.163-.082.164Zm-2.255-.574h0l.1.148-.429.186.1-.3Zm1.272-.044h0l-.223.028.081-.148Zm1.649-.283h0l.1.125-.131-.028.032-.1Zm-2.6-1.049h0l-.12-.07.087-.083Zm.022-.218h0l.076.049-.082-.005.005-.044Zm4.466.443h0l.24-.107.2.246-.359.158-.475-.218-.06-.164.153-.125.032-.338.17.114-.071.317Zm-2.7-.574h0l.223.174-.279.509-.512.043-.5.514-.333.01.257.246-.121.136-.518.022-.36-.215-.044-.442-.409-.107.115-.306.519-.18.175.016-.049.278.344.252.033-.606.415.137.316-.294.43-.126-.016-.107.317.05Zm1-1.043h0l.366.12-.06-.169.153-.033.537.53-.082-.252.169-.06.383.338-.158.148.452-.071-.234-.246.093-.039.29.234.465.1.07.283-.4.438-.06-.191-.317.2-.126-.42-.791-.038-.307.537-.163.005.365.229.087.278-.13.29.29.192-.3.261-.6-.087.153-.132-.175-.042-.028-.322.262-.107-.071-.148-.081.18-.175-.017-.043-.169-.158.054.153.218-.376.18.29.072-.633.229-.355-.039.247-.107.147-.338-.169-.011.153-.644.332-.027-.278-.448.524-.2.191-.355-.169-.125.223-.387.05.115Zm.787.033h0l-.087-.087.081-.077.006.164Zm-.164-.071h0l-.071-.114.082.033Zm-4.177-.107h0l.06.087-.208.011.071-.317Zm7.2-1.409h0l.191.054.164.327-.394-.208Zm-.738-.524h0l-.12.131.011-.148Zm-.672-.317h0l.175.054-.022.214-.17.038-.07-.158-.06.153-.317-.053.24-.088.071-.191.153.032Zm.923.191h0l-.164-.224.187-.174Zm2.877.612h0l-.714.859-.2.033.747-1.1.961-.944-.8,1.152Zm-.829-1.3h0l.053.053-.218-.083Zm-.41-.094h0l.158.076-.215-.038Zm.13-.053h0l.011.06-.132-.044Zm-2.457.1h0l.005.132.283-.115.076.2-1.015.12.174-.333.094.083.093-.153.2.07.107-.12-.022.12Zm2.249-.065h0l-.06-.065.082-.005Zm1.262-.305h0l.093.107-.153.24Zm-.394.049h0l-.07-.06.153-.01Zm-2.445.006h0l-.038.12-.1-.131.115-.131.027.142Zm.693-.541h0l-.083-.053.116-.093-.033.147Zm.775-.07h0l-.071-.159.083.1-.011.06Zm3.439-.1h0l-.59.574.42-.661Zm-4.052-.1h0l-.136.043.06-.087.076.043Zm.808.038h0l.01-.107.1-.017Zm-.5-.174h0l-.066-.071.1-.066Zm-.421-.125h0l.044.148-.164.049-.011-.175.131-.021Zm4.287.016h0l-.317.136.136-.18Zm-4.308-.2h0l.1.028-.126.093Zm4.974-.033h0l-.017-.021.039-.022-.022.043Zm-.607.421h0l.257-.465.126,0Zm-3.849-.279h0l.071-.191h.2Zm4.342-.169h0l-.023-.021.088-.039Zm.262-.4h0l.107-.24.1.016Zm.785-1.2h0l.107.07-.29.12Zm1.235-.579h0l-1.676,1.534.825-1.059.578-.311.12-.208.154.044Zm.053-.044h0l-.027-.043.049-.054Zm.317-.36h0l-.022-.022.033-.053Zm-.4.005h0l-.027-.06.075-.1Zm.475-.148h0l.093-.262v.107Zm.709-.485h0l-.049-.011.088-.1Zm.29-.562h0l-.033-.006.028-.075.005.082Zm.043-.107h0l-.038-.006-.005-.043.042.049Zm.584-.836h0l-.333.426.18-.442.41-.208Zm.163-.24h0l-.053-.186.093.125Zm-2.768,2.151h0l.107.005-.207.339-.71.557-.087.186.1.06-.251.278-.115.05-.2-.274-.355.159-.011.125.35-.107v.137l.252.12.147-.107-.9.808-.311.606-.365.093-.5.655-.005.278-.307.208-.06.344-.017-.215h-.24l-.269.437-.546.425-.071-.6.235-.273-.077-.48-.382-.136-.1.136-.071-.2-.208.218-.186-.06.093.2-.191.082.06.175-.388-.076.169-.174h-.164v-.186l.218.01-.016-.164.283-.18-.114-.448.1-.153-.42.327.077-.36-.164.125.022-.344-.546.312.191-.42-.153-.054.18-.24-.5.344h-.241l-.153.327-.42.338-.131-.053-.049.251-.169-.1.005.185-.305.083.06.229-.514.475.038-.169-.458.41-.191-.05-.066.192-.12-.192-.107.393-.18-.376-.53.273-.115-.082-.693.475-.131-.077.028.257-.192-.005.083.234-.12.12.136.1-.142.017.017.355-.071-.284-.148-.005-.1.24-.245.125.028.169-.361.6-.305-.164-.028.186-.262.191-.153-.2.12-.234-.107-.164-.475.229-.093-.437-.208-.174.241-.191-.215-.514.13-.338.142.033-.07-.743.12-.038-.333-.388.158-.032.492-.82.1.137.043-.2.153.065-.026-.366.268-.093.12.121.083-.24.513-.393.115.06-.043-.191.175-.148-.208-.42-.131-.011-.148.361-.524.475-.262-.054-.107.164-.142-.3.005.262-.215.208.153.071-.349.169.1.087-.23-.011-.19-.215.148.344.223.06-.131.252-.142.038-.257-.207.148.24-.185.027-.4.514.108.021.01.4.224.06-.2.429.131.295-.224.257.01.268-.114-.2.071.311-.371.7.208.115.027.355.115,0-.092.4.142.3-.121.2-.2-.208-.093.191.137.142-.181.049-.142-.021-.2-.426.2-.311-.634-.579.071-.077-.18-.016.218-.262.148.093-.148-.192.234.017.083-.333-.486-.033-.175-.5-.557-.038.158-.24-.24.043-.087.262-.18-.028.251-.1-.492.005-.153-.191.2-.387-.192.033-.015-.644-.3.65-.365-.121.1-.3-.141-.375-.339-.174.022-.306-.154.3.273.475-.077.136-.333-.039.017-.13-.568.027.142-.077-.187.01.1-.229-.19.2-.2-.257-.508-.022-.028-.181-.126.164-.24-.083-.032-.2-.148.274.514.168.215.142-.077.126.148-.038.207.24.551.175-.158.191.283-.01.366.215.279-.071.375.269-.07.125.322.021.268.262-.027.126-.257-.044-.142.191-.8.038-.13.218.605-.071.344.164.235-.29.393.18.323-.093.092-.169.328.065-.093,1.109-.389-.308v-.148l-.317.016.208.164-.283.2.483.185.12.344-.425-.219-.224.312-.709.174.563.038v.175l.491-.459.017.18-.273.2.218.071.192-.19.174.087.093-.093-.065.415.262-.191.257.376-.054,1.19.24.961-.093.776.125.846.208.338-.715-.278-.121-.43-.076.13-.164-.107-.147.12.065-.415-.208-.1-.049.295-.366.148.29.082.126.3-.7-.033.59.3-.142.032.076.12-.279-.088-.2.268.483.017-.841.223.181-.174-.175-.027-.682.317.42-.382-.677-.1-.573.295-.038-.159h-.148l-.174.215.169-.01.135.2-.578.475-.1-.486-.2.169-.016-.306.125-.093-.185.032-.181.438-.158.005-.284-.207-.094-.591-.06.557-.186-.251-.223.01-.136-.557-.066.235-.147-.311-.47-.3.038-.148-.322.066.563.425.388.672-.022.322-.093-.125-.2.35-.306.033-.2-.169.164.257h.465l.153.174.306-.327.136.338.545.257-.4-.153-.174.366.343.168.159.35.048-.093.082.355-.306-.41-.7-.268.13-.3-.148-.137-.148.2-.185-.054-.049-.185-.224-.011.312.491-.3-.07-.053-.148-.421.317.394.158.021.469.2-.093.487.164.027-.235.994.426.218.792-.065.24.246.039.038.283h.262l-.163.284-.3.016.088.169.269-.039-.284.186-.005.2-.29.269.269-.174.142.153-.043-.394.2.011.284-.355-.032-.269.163-.076-.115-.436.284.153-.044-.344.22.355.437.131.235.443-.028.617-1.441,1.136-.257.759-.733-.026-.436.215-2.094.371-6.962-2.2-5.968.016v-4.663l-1.3-6.743,21.692-9.944,20.577-1.747-1.321,1.294-.841,1.343-.409.215-1.311,1.474-.278.153-.24.448Z" transform="translate(-1991.956 -1103.467)"/><path class="h" d="M2089.765,1320.509h0l.142.087-.136.191.371.154-.186.18.546-.006-.034.224.164.033.623-.448.033.306.578.137.443.732.3-.076.054.748.541,1.091.682-.617.027-1.234.328-.083.1.12.142-.132.333.683.218.12.491-.42-.107-.453.4-.366.316-.076.219.333.354.2.989,1.84-.093.2.611.518.027.514h.3l.2.278-.076.591.312.115.333,1.282-.12.421h-.339l-.082.355.272.557,1,1.059.371.219-.218.448.107.224.41.12-.071.186.251.737-.027.333.383.021-.3.906.185.274-.032.382.5,1.141-.055.154.257.153-.044.163.153.132-.065.251.147.107-.152.322.376.1.147.382-.038.29.2.452-.2,1.872.273.328.061.747,1.772-.605.215.464.666.215-.044.349.2.2.158.623.328.234-.2.246.169.107.2,1.109.24-.011.142.345.333.011.092.262.345.18-.092.436.2.083.06.333.229.18.709.1.846.54.355-.01.4.464.415.049.354,1.393.3.06.135.251h.274l.218.35.672.1.426,1.84.256.136.191.382.317.121-.022.273.306.551.039.606.485.229-.215.252.224.649.273.12.47,1.518.169.137-.022.224.483.437.3,1.128,1.25,2.773-.289.283-.131.483.263.23.146.644-.114.322.365.185-.038.247.234.174-.06.327.339.049-.12.35.316.115.47,1.256h.376l.153.59.825.611-.169.257-.654.01-.142-.185-.956.4-.273-.563-.606-.514-.645-.859-.388-.027-.458-.289-.945-.978-.977-1.681-1.54-1.971-3.227-2.363-.174-.453-.332.6-.727,0-.591.546-4.214,2.254-.923-.246-.508-.634-.115-.611.192-.54-.274-.6-.644-.061-.322-.906-.393-.442-.9-1.731-7.867-9.157.268-.087.192-.344.153-.028.18.251.257-.12v-.18l.442.131.273-.36h.47l-.06-.224.13-.033.2-.5-.1-1.092.311-.159.6-.841.305-.186.333.039-.021-.132-.509-.215-.268-.524-1.065-.294-1.342.191-.852-.234-.945-.852-.453.022-.24-.142.053-.246-.25-.257-2.6-.994-2.856-1.906-1.449-.147-.159-.142-.306.071-.628-.376-.115-.546-.35-.552-.562-.273-.322-.41-1.529-.065-.152-.355-.376-.2-.568-.917.224-.107.082-.841-.229-.388-.388-.169.2-.224-.164-.125.076-.284-.125-.19.584-1.021,1.453-.142.436-.185.743-1.059,1.1,1.087.366-.53.333-.011-.47-1.092.774-.563.235.246.83-.126.365.083.148-.142.349.093,1.256-.524-1.566-3.069-.891-.885,1.513-1.311,1.626.4.913-.453.294.1.393-.142.557.333.3-.088.2.394.9.01Z" transform="translate(-1976.23 -1102.741)"/><path class="h" d="M2073.358,1310.058h0l-.017.4-.125-.054-.333.153-.142.229-.18-.005-.137.35.115.218-1.61-.349-.694.274-.234-.6-.694.247.312.7-.115.148-1.224.5-1.1,1.032.322.344.219.537.612.349.142.584.47.486-.066.148-.442-.333-.4.027-1.383-.583.115-.147-.214-.1-.689-.1-.464-.24-.174-.333-.25.093-.514-.252-.392.247-.389-.12-.627.107-1.147-.269-1.1-.859-.229.065-.537-.77-.1.049-.2-.164.092-.065-.29-.065.76-1.153,0-.332.218-.2-.065-.251.878.038.273-.906.574.1.269-.459.645.279.442-.639-.208-.218.214-.35,1.322.732-.107-.262.578.163.066-.268.278-.028.083-.4.415.2.751-.093-.361-.639.344-.36.634.027.714.393-.938,1.01.36.355,1.054.35.988-.18.579.426,1.181-.841.563-.131.568,1,.284-.164.2.361-.234.125.5.426Z" transform="translate(-1973.761 -1100.912)"/><path class="h" d="M2045.977,1302.858h0l4.855,2.288,1.386,1.038-.721,2.63-.7.989,5.286,1.032.2.322-.126.219.29.065-.093.065.2.164.1-.05.537.77.229-.066.978.808,1.267.317.628-.107.389.12.4-.246.508.251.251-.093.18.338.671.333.662.088-.453,2.15.207.3,1.228-.951.421-.1.415.06-.1.2.956.448-.224.465.126.246-.345.429-.115.83.142.257.524.269,4.1,5.5.727.284.279-.215.174.087-.076.453.082.219.269.136-.191.36.279.093-.294.429.027.229-.322.382.126.191-.077.283.164.125-.2.224.388.169.229.387-.071.808-.223.164.568.912.372.2.125.338,1.55.071.322.41.563.273.35.551.153.579.591.344.306-.071.158.142,1.45.147,2.856,1.906,2.6.993.251.257-.054.246.241.142.453-.022.945.852.852.234,1.342-.192,1.064.3.269.524.507.215.023.131-.333-.038-.306.186-.6.841-.312.158.1,1.093-.2.5-.131.033.06.223h-.47l-.273.361-.442-.131v.18l-.257.12-.181-.251-.153.027-.19.344-.269.087,7.861,9.158.9,1.73.393.443.322.906.645.06.273.6-.191.54.115.612.36.514-.66,2.862-.727.546-.759,5.982-.519.038-.038,3.1-.159.142-.47.1-.332-.372-.551-.246-.34.2-3.215.208-.6-3.759-4.717-3.2-47.443-26.613v-.664l.874,0v-1.349l.294-1.031-.01-1.081.131-.372-.115-.338.163-.333-.283-.688.311-.235-.537-.591.333.005.017-.415.207.017.174-.634-.038-.475-.207-.229-.083-.41-.327.107v-.483l-.366-.066-.038-.115.47-.557.01-.186-.317-.13.323-.257.12-.752.186-.12-.022-.229.186.076.088-.169-.065-.312-.3-.295.215.022.087-.164.273.185.038-.273.218-.125-.54-1.54.153-.081.1-.885.246-.054-.028-.191.312-.537.2.043.2-.644-.05-.425-.989-2.179,9.184-9.839-.387-3.947Z" transform="translate(-1970.379 -1100.341)"/><path class="h" d="M2080.033,1293.167h0l.163-.028.6.551.005.372.158.071.295.634.174-.005-.087.153.175.125h1.042l.448.191.107.224.154-.175.415.132.442-.18.033.338.4.153.453-.114.191.246.84.174-.07.322.715.584.311-.235.376.088.153.453.409-.136-.022-.514.4-.4.185.038.268-.284.159.169.693-.07.126-.24-.1-.2.429-.053.115-.229.64-.083.1-.415h.185l.153.207.18-.1.361.168.224-.049.2-.524.3-.2.022-.83.25.027.27-.382.273-.1.53-.022.256-.18.273.088.513,1.431.913-.033.262-.159.306-.5.077.429.387-.322.273.038.153.235.36-.071.115.655-.24.107.1.186-.4.375v.327l-.164.076-.192.5.137.278-.2.215.349.115.148.333.148-.082-.023.322.127-.022,0,.257.246.142.06.208-.164.032-.016.223.229.476-.1-.094-.18.175.4.021.322.317-.19.088.107.125-.595.382.093.344-.148,1.316-.47.666-.327.066-.06.311-.328.393-.322,1.07-1.825-1.551-4.5.262.093,1.912.452-.159.4.224,1.256,2.211.737.629-.053.18.813,1.409.6,1.529.181.053.229.459.622-.065.3.2.671.83.053.269.186-.039.285,1.381.2.269-.634.208-.584.519-.215.483-1.2.317-.781-.235-.475.311.229.317.35.038.606,1.011.54.41.107.344-.605.284-.107.158.107.453-.47.415-.241-.115-.333-.682-.142.131-.1-.121-.329.083-.026,1.235-.683.617-.541-1.093-.05-.742-.305.071-.443-.731-.579-.137-.032-.307-.568.426-.2.005.033-.234-.579-.01.208-.153-.387-.18.107-.224-1-.054-.2-.392-.3.088-.545-.333-.4.142-.294-.1-.914.453-1.119-.355-.617-.032-1.4,1.293.89.885,1.562,3.074-1.25.519-.35-.093-.147.142-.366-.082-.83.126-.235-.247-.775.563.47,1.093-.333.01-.366.53-1.1-1.086-.743,1.059-.437.186-1.451.142-.274-.115.191-.361-.29-.174-.005-.666-.2-.033-.234.191-.727-.284-4.1-5.5-.42-.159-.219-.3.087-.9.345-.429-.125-.245.224-.465-.955-.448.1-.2-.251-.075-.573.1-1.064.906-.175.054-.208-.3.366-1.986,1.381.578.4-.026.442.332.065-.148-.47-.486-.142-.584-.611-.349-.218-.537-.322-.344,1.1-1.031,1.223-.5.114-.147-.311-.705.693-.246.235.6.693-.273,1.611.35-.115-.218.136-.349.181.005.142-.229.333-.153.125.054.027-.421.235-.053-.027-.372.284-.038.054-.344.483-.065.186-.224.354-.065v-.454l.2-.107-.13-.322.2-.065.622-.808-.065-.305.208-.6-.35-.7.4-.322.132-.333.628-.491.584-.131.429.148.721-.382.388-.054.545.169,1.409,1.441,1.452-1.878.956-.7-.464-.666-.715-.443-.661-.371-.7-.093-.049-.224.913-.47-.382-.519-.541.6-.3-.366.01-.278-.256.1-.187-.224.344-.246-.208-.448-1.261-.805-.806-1-.815-.277.311-.485.7.065.153-1.431.159-.215.429-.038Z" transform="translate(-1974.868 -1098.926)"/><path class="h" d="M2055.317,1297.332h0l.49-.278-.215-.224.787-.537.344-.781-.257-.4-.12-.7,1.02.1-.322-.752,1.31-1.283.257.1.409-.289.437.2,1.074,1.3.582.365.284.421.825.076.985.709.568.223.426.426.605.142.187.246.4.076.115.175.218-.043.18.464.448.053.163.47,1.333.859.316.551.453.1,1.333,1.082.453.605.437.093.654-.246.453.246.633.066.289.169.218.371.29-.148.688.169.628-.294.076-.306.513.256.666-.256.546-.513.388.219.633-.257,1.425,1.534.148-.065.306.41.3.148.164-.06.306.375.425.087-.616.71-1.409-1.441-.524-.163-.409.049-.721.382-.429-.148-.629.153-1.114,1.128.349.7-.207.6.07.284-.628.829-.2.065.131.322-.2.107.05.388-.4.131-.186.224-.481.065-.053.344-.285.038-.016.41-.2.033-.5-.425.234-.126-.2-.36-.284.163-.568-1-.562.131-1.181.841-.579-.426-.977.18-.813-.229-.612-.475.939-1.01-.715-.393-.634-.028-.344.361.36.638-.751.094-.415-.2-.083.4-.278.027-.065.269-.579-.164.108.262-1.322-.732-.215.35.208.219-.443.638-.644-.278-.269.458-.573-.1-.274.907-.851-.082.038.294-.218.2-.006.333-.633.933-.2-.322-5.286-1.031.7-.989.966-3.533.694-.84.1.043.667-1.189-.126-.591.3-1.906-.284-.125v-.546l-.153-.429-.235-.18.175-.4-.3-.246-.224.087-.262-.13Z" transform="translate(-1972.881 -1098.85)"/><path class="h" d="M1982.406,1288.822h0l.2,1.256-.4.764-.4,5.34.442,2.02.289.088-1.611,1.54.2,1.026.634.688-.093.409.223.747.229.3.192.917-.077.332.688.458-.033.322.563.376.066.36.483.082,1.307,5.573-20.185-11.362-.317-.043-.7.568-.393.12-.269-.218-.143-.875-.273-.256-2.555-.044-.215-6.2h4.766l.5-.628.5-.131.317.154.4-.328.1.186.524-.388.262.2.241-.027.207-.355.394.158.338-.458.322.537.618.442.573.9.426.107,1.064.721.655.874.5-.12.044-.2,1.408-.273.343-.481-.207-.415.142-.087,1.3.71.972.758.392-.971.639-.628-.2-.366-.3-.13.186-.054-.044-.257.666-.453-.136-.159.148-.093.563-.032.269-.409.191-1.3.53-1.136.852-.306.136.065-.022-.273.53-.049,1.031.415Z" transform="translate(-1959.753 -1098.303)"/><path class="h" d="M2066.812,1286.657h0l1.1-.01v-.153l2.048-.885.295.256.6.017.344.215.683.1.327.476,1.246.545.054.29.273.132.415.075.551-.168.355.093.087-.176.459.005.011.426.229.142.076.415.629-.115.4.786.426-.491.345-.174-.028.295.241.465-.05.344.06.159.153-.011.164.4-.153.12.207.093.279.53-.1.087.257.229-.29-.1-.159.1.187.8.18.169-.163.229-.148,1.414-.7-.065-.312.486.83.273.806,1,1.261.805.208.448-.345.246.187.224.256-.1-.011.278.3.366.541-.6.382.519-.913.47.05.224.7.093.66.371.715.442.464.666-.956.7-.835,1.168-.426-.087-.306-.376-.164.06-.3-.148-.307-.409-.147.065-1.426-1.534-.634.257-.387-.219-.546.514-.666.257-.514-.257-.075.306-.629.295-.688-.168-.29.147-.218-.371-.289-.169-.634-.065-.453-.246-.655.246-.366-.065-.524-.634-1.332-1.081-.453-.1-.317-.551-1.333-.859-.164-.47-.448-.054-.207-.486-.191.066-.115-.174-.4-.076-.186-.246-.606-.143-.425-.425-.569-.224-.982-.709-.825-.076-.285-.42-.579-.366.054-.584-.131-.234.469-.022-.452-.53-.454-1.971-.06-1.567.187-.859-.054-1.065.475-.5.4-.158.394.158,1-.158.8.125.208.3.846.475.2-.054.486.453.813.043Z" transform="translate(-1973.976 -1097.867)"/><path class="h" d="M1992.951,1282.941h0l.65.7.033.524-.361,1.054.279.345-.093.153.365.322-.1.454-.2.153-.186-.269-.115.261-.606-.748-.164-.016-.344.262-.1.366-.5.5-.19.628.082.557-.421-.131-.4.257.262.469.41-.093.4.186.125.42.366.1.53.524,1.064.677.269-.039.332.453.5.022.667.382,2.157,3.631-10.522,2.615-.792-.251-.557.01-.442-2.02.4-5.34.4-.765-.235-1.1.251-1.142.551-.917.738-.125.578-.806,1.47-.524.49-.426,2.556-1.031.4-.3Z" transform="translate(-1963.293 -1097.531)"/><path class="h" d="M2018.644,1285.964h0l.584-.775.016-.846.224-.017.666-.688,1.049.18.879-2.522.361.049.093.6.667-.316.093.191-.24.683,1.8,1.01.465.639.9.12.108.163.333.05,1.109,2.26-1,1.1-1.074-.956-1.229.06.1.2-.088.219.475-.027,1.19,1.463-.016.284.53.273,2.036-1.589.546.483,2.151-1.228.088,1.135,1.293,1.13.349.077.24.945.972.667-.312.4.252.2-.088.606-.939,1.01.366,1.1.633,1.127-.136.224.269,0,.322.557,1.841-.634,2.227,4.248.388,3.947-9.184,9.839.989,2.178.049.426-.2.644-.2-.043-.312.537.028.191-.246.054-.1.885-.153.082.541,1.54-.218.125-.038.273-.274-.186-.087.164-.215-.022.3.294.065.312-.088.169-.185-.076.022.229-.187.12-.12.752-.322.257.317.131-.01.186-.47.557.038.115.366.066v.483l.327-.107.082.41.207.229.038.475-.174.634-.207-.017-.016.415-.333-.005.537.59-.312.235.284.688-.163.333.114.338-.13.372.01,1.081-.295,1.032v1.349l-.873.005v.667l-39.631-22.353-1.311-5.569-.484-.083-.065-.36-.562-.375.032-.323-.687-.458.076-.333-.191-.917-.229-.3-.224-.748.093-.41-.689-.848-.136-.868,1.781-1.616.89.229,10.522-2.615,2.163.5,4.914,3.98.279.018.049-.159.295-.043.1-.236.3.06-.016-.107.922-.524.234.006.153-.322.537-.187-.087-.125.107-.153.191.082.2-.218.142.218.142-.4.349.316.375-.48.628-.083.158-.278.546-.065.158-.426-.07-.437.147-.06-.114-.375.191-.05.011-.256h.283l-.038-.219.235-.158.224-.06.065.1,0-.215.186-.131-.013-.3.224-.016.252-.257.076-.475.252-.295.677-.224.709-.6-3.254-2.61-.923-2.381,5.951-1.775.437,2.605.813.392.546.584.251-.53.338-.158.154-.541.382-.349.295-1.458Z" transform="translate(-1963.148 -1097.299)"/><path class="h" d="M1999.719,1282.432h0l.148.246-.257.458.142.372-.115.075.1.192-.148.878.452.994-.158.508.2.366-.252.452-.005.35.53,1.12-.47.168-.279.274,1.36,2.938-1.463,1.627-.4-.251-.322.07.136.831-.234-.076-.2.3.039.279-2.156-3.63-.667-.382-.5-.022-.333-.453-.269.039-1.064-.677-.53-.524-.366-.1-.125-.421-.4-.186-.41.093-.262-.47.4-.256.421.13-.082-.556.192-.628.5-.5.1-.366.343-.262.164.016.606.748.114-.262.187.269.2-.154.1-.453-.365-.322.093-.153-.279-.344.361-1.054-.033-.524-.65-.7.574-.387.709-.159,1.114-.573.934-.743,1-.429.584-.483.387.218.4.852-.142,1.016-.215.169-.022.387.579.076Z" transform="translate(-1964.152 -1097.076)"/><path class="h" d="M2009.5,1279.3h0l1.5-.076.148-.126.322.1.295-.125.278.168,1.316-1.244,4.232,6.95-5.952,1.775.923,2.381,3.254,2.61-.709.6-.677.224-.251.295-.076.475-.251.257-.224.016.016.3-.186.131-.005.215-.065-.1-.224.06-.235.158.038.218h-.283l-.011.257-.191.05.114.375-.148.06.071.438-.158.426-.546.065-.159.278-.628.083-.375.48-.039-.153-.185.039-.164-.191-.1.387-.142-.218-.2.218-.192-.082-.107.153.088.125-.537.186-.163.328-.224-.011-.923.524.016.107-.3-.06-.1.235-.294.044-.05.158-.262-.01-4.93-3.986-2.163-.5-.038-.279.2-.3.235.076-.136-.83.322-.071.4.252,1.463-1.628-1.359-2.937.278-.273.47-.169-.524-1.1v-.372l.251-.393-.2-.426.169-.437-.467-1.064.148-.879-.1-.191.115-.077-.142-.371.257-.448-.115-.361.186-.153.465-.044.327-.54.4.022.082-.2.159.049.459-.284.415.06.082.136.208-.283.256.3.247-.065.283.229.191-.066.142.376.1-.043.107.169,1.059-.186.061-.273-.361-.148.3-.327.436-1.037.846.065.509-.2.859.229.563-.262.215-.306Z" transform="translate(-1965.31 -1096.834)"/><path class="h" d="M1977.554,1275.388h0l1.529-.863,5.427-.425,1.508.983.168.751.274-.12.393.41.131-.028.142.269-.229.053.082.279h.224l-.076.2.251.2.387-.087.376.611.033.525,1.059.136.136.164.136-.1.591.081.076.148.2-.24.655-.273-.032.563.464-.011.022.284.628.126.775-.2.376.114.093-.169.426-.1.234-.426.333.464-.053.208-.584.483-1,.429-.934.743-1.113.573-.71.161-.977.688-1.464.5-1.092.537-.491.426-1.469.524-.579.805-.737.125-.552.917-.219.984-1.032-.416-.53.05.022.273-.868.131-.649,1.245-.189,1.292-.268.41-.562.033-.148.093.136.159-.667.453.044.257-.187.054.3.131.2.366-.639.628-.393.972-.972-.758-1.3-.71-.142.088.207.415-.344.48-1.408.273-.044.2-.5.121-.654-.873-1.065-.721-.425-.107-.574-.9-.617-.442-.322-.537-.338.459-.393-.158-.207.355-.24.028-.262-.2-.524.387-.1-.186-.4.327-.316-.153-.5.131-.5.629h-4.769l-.257-7.508.251-3.342.612-3.669,9.118.005,1.321,2.363.366.322.426.06.513-.24,3.074-2.626,1.906-1.07Z" transform="translate(-1959.711 -1096.283)"/><path class="h" d="M2102.26,1278.788h0l.234.05-.107.382-.6.787-1,2.183.169.6-.142.862.563.442.66.859-.9.672.054,1.109.283.148-.147.709.388-.017.12.65-.387.912-.382.295.06.344-.274.107-.125.387.1.269-.35.218-1.031-.016-.126.114-.186-.24-.273-.038-.387.322-.077-.429-.306.5-.262.158-.913.032-.514-1.431-.273-.088-.256.18-.53.022-.273.1-.269.382-.251-.027-.022.83-.3.2-.2.524-.224.049-.36-.168-.18.1-.153-.207h-.186l-.1.415-.639.082-.115.229-.429.054.1.2-.126.24-.693.071-.159-.169-.269.284-.186-.039-.4.4.021.514-.41.135-.153-.453-.375-.087-.312.234-.715-.584.071-.322-.841-.175-.191-.246-.454.115-.4-.153-.032-.339-.443.18-.415-.131-.152.174-.107-.224-.448-.19-1.032.01-.726-.988-.032-.4-.584-.537-.579.075-.033-.229.284-.7,1.311-.2.306.449.994.158.312-.164.039-.158.191.06.78-.36.563-.023.61-.453.722.083.033-.18.322-.136.7.18-.273-.425-.273-.115.021-.644-.163-.246.115-.541-.169-.573.475-1.093-.354-.475.224-.557-.186-.169-.142-.53-.721-.355-.18-.622-.551-.569.06-.475-.18-.4.12-1.01-.164-.2.12-.311-.038-.792-3.609-8.032,7.677,6.514.966.279.53.448.9.169.989,1.02.627.148.372.365.59.154.229.229.376.006.25-.159.584.115.8-.071.541-.322.846-.748-.065-.1.158-.142.426-.032.2-.442.437-.224-.034-.382.175-.136.087-.509.41-.215.257.317-.153.41.215.142-.224.661.361.169-.023.234.246.289.4.033v.284l.246.071Z" transform="translate(-1976.871 -1095.736)"/><path class="h" d="M2085.944,1281.451h0l.541.546.181.622.72.356.142.53.186.168-.223.557.354.475-.475,1.092.169.574-.115.54.164.246-.023.644.273.115.273.426-.7-.18-.322.137-.033.18-.721-.082-.611.453-.562.022-.781.36-.192-.06-.038.159-.312.164-.994-.158-.305-.448-1.311.2-.283.912-.339-.939.153-.115.3.083-.252-.215.1-.087-.279-.53-.207-.093.153-.12-.163-.4-.154.011-.06-.161.05-.344-.24-.464.032-.29-.349.169-.41.49-.42-.786-.628.115-.076-.416-.229-.142-.011-.442.236-.065-.143-.192.054-.327.136-.05-.017-.41-.306-.322-.273.011-.486-.776.187-.375-.1-.644.677-.847-.2-.475.475-.278-.061-1.261.585.016.191-.125-.01-.279.19-.16-.005-.273,3.2-8.277,3.609,8.031.039.792-.12.312.163.2-.12,1.011.18.4-.049.5Z" transform="translate(-1976.241 -1095.734)"/><path class="h" d="M2119.709,1267.323h0l12.351,21.392,3.855,8.48,1.448,20.142-.5.537-.792.273,1.771,6.6-6.867,13.294-.234.038-.18.393-.361-.039-.463.289-.574.132-.153.375-.486.327-.088.224-.906.556-1.207.142-.612-.229,14,19.711-.463-.021-.5-.306-.033-.307-.279.1-.306-.12-1.031.181-.339.41-.241.038-1.13-.186-.163.18-.524.136-.662-.191-.939.591-.5.107-.174-.24-.7.415-.454.06-.215-.234.312-.054.049-.191-.913-.136-.174-.148-1.211-.027-.885-.35-.328.153-.983.083-.12-.333-.584-.519-1.046-.181.006-.355-.475.107-.327-.36-.649-.022-.748-.39-.623.032-.827-.61-.153-.591H2121l-.469-1.256-.317-.115.121-.349-.34-.049.06-.327-.234-.175.038-.246-.372-.2.12-.311-.148-.644-.262-.229.12-.47.295-.311-1.245-2.758-.3-1.127-.483-.437.022-.224-.169-.136-.47-1.518-.273-.12-.224-.65.215-.251-.486-.229-.038-.606-.306-.552.022-.272-.316-.12-.192-.382-.257-.137-.425-1.84-.671-.1-.219-.349h-.272l-.137-.251-.3-.06-.356-1.392-.415-.05-.4-.464-.356.01-.846-.54-.709-.1-.229-.18-.06-.333-.2-.082.093-.437-.344-.18-.094-.262-.332-.011-.142-.343-.241.01-.2-1.109-.169-.107.2-.246-.327-.235-.159-.623-.2-.2.044-.35-.667-.215-.215-.464-1.771.605-.06-.747-.273-.328.2-1.873-.2-.452.038-.29-.148-.382-.376-.1.153-.322-.148-.107.066-.25-.153-.132.043-.163-.257-.153.054-.154-.5-1.14.033-.382-.186-.274.3-.906-.382-.021.027-.333-.251-.737.07-.186-.409-.12-.107-.224.226-.448-.372-.218-1-1.059-.273-.557.082-.355h.339l.12-.42-.333-1.283-.312-.115.077-.59-.2-.279h-.3l-.027-.513-.614-.515.093-.2-.988-1.84-.356-.2-.349-.7-.229-.05-.29-.333-.606-1.01-.349-.039-.23-.317.475-.311.781.235,1.2-.317.214-.483.584-.519.634-.208-.2-.268-.284-1.382-.186.039-.3-.623-.715-.666-.644.053-.219-.452-.18-.054-.595-1.529-.5-.688-.136-.573-.18-.147.053-.18-.393-.241-.819-1.069-.5-1.135-.5-.591-.644.132-.093-1.911,4.5-.262,1.825,1.55.322-1.07.327-.393.06-.311.327-.065.47-.667.147-1.316-.093-.344.6-.383-.108-.125.186-.13-.169-.016.022-.148-.186-.115-.382-.016.18-.174.1.093-.246-.644.2-.115-.306-.322v-.246l-.131.01.022-.322-.147.081-.147-.332-.345-.1.2-.246-.142-.262.191-.5.163-.076,0-.35.394-.354-.1-.186.241-.107-.114-.655.8-.01.376-.218-.1-.3.126-.371.273-.107-.061-.344.383-.294.387-.912-.121-.65-.387.017.147-.71-.283-.147-.054-1.108.9-.672-.661-.859-.569-.454.148-.852-.163-.616.994-2.168.54-.661.107-.465.537-.1.4-.447.158-.934.142-.142-.215-.409.327-.3-.19-.322.24-.541.2-.1-.192-.393.405-.748.135-.617.841.033.644.229,1.342-.044.42.148.388-.1.677-.59.251-.53.6-.136.005-.36.6-1.065.121-1.152.251-.083.108-.207h.283l.034-.514.153-.087.278-.667.906-.573.661.279.262-.333.24.061.672-1.027.639.437.53-.136,1.08.759.388-.415.311.088.514-.18.442.18Z" transform="translate(-1978.552 -1095.223)"/><path class="h" d="M2134.458,1266.947h0l.556.312,1.508.464,2.02.06.644-.3.344.382.223.032.514-.415.382-.115.153-.727.47.017.332-.327.126.2.181.006.4-.394.49.338.918-.228.273.578.742.721.12.317.574.375.017.328.4-.039.039.333.895-.107.224.317.4-.05.6.235.355-.327.387-.071.039.263.59.1.257-.093.083.246.556-.294.218.131.415-.164.3.107.262-.208.453.393-.1.382.289-.028.163.317.421-.229.053.273.251-.18.677.869.4-.066.1.219.191-.153.649-.022.551.628.262.022.437.327.077.372.229.262.356.088.053.163.241-.032.375.9.23.148-.147.508.252-.06.163-.3.294.24.229-.131.6,1.2.508.252.081.234.215-.087.142.327-.07.153.224.06-.088.164.125.158-.164.224.153.107.011.452.18.12-.054.356.376.01-.1.934.115.088.147-.131.005.235.5.355-.2.425.054.6.295.168.005.366.224.294.66.47-.016.153-.208.044.053.344.284-.05.115.312.327-.175-.028.71.224.125.016.229.215-.115-.1.295,1.059.06.246-.186.032.262.3.284.208-.126.283.307.344.053-.24.524.415.71-.071.3.3-.038.049.355.29-.027-.131.322.076.311.142.215.158-.107-.082.312.229.038-.032.7-.186-.039.081.279.5.208-.257.125.05.278-.269.107.229.252-.229.131.115.169.465.131-.066.365.28.011-.273.339.524.016-.2.208.3.273.06.606-.327-.028.192.246-.05.2h.153l.088-.306.306.2-.241.682.257.345-.3.18.185.142-.125.159.4.573-.12.317.372.053.185.279-.3.311.017.361.387-.224-.049.574.169-.044.246.174-.273.115.215.387-.18.339.115.163.278.032.017.667.425.448-.13.273.273.224-.115.2.159.355.229.049.2,1.605.125.12.229-.053.038.235.339.179.218.722.568.8-.038.289.294.006.054.322.295.071-.148.366.131.215-.142.148.394.053-.207.454.229.082.1.229-.224.164.054.273-.224.229.159.24-.219.2.219.77.234.147-.339.584.039.416.223-.033.169.448-.18.153.4.672.082.661.208.066.093.262-.142.616.174.1-.1.224.2.546-.215.066.038.158.191.1,1-.616.509.1.562,1.049.3,1.409.885,1.042.339.672.185,1.147-.054,1.65.393.824-.407,1.246.164,1.867.764,1.234.06,2.287-.1.738.339.644v.633l.241.453,1.4,7.295v4.663l5.972-.016,6.956,2.2,2.094-.372-1.718,1.207-1.114,1.3-1.027.661-.224-.022-.938-.273-.683-.442-.485-.053-.409-.376-.257-.016-.082-.093.229-.355-.2-.262-.311-.076.016.322-.215-.093.022-.246-.125-.087.022.142-.371.022-.115.2-.279-.125.246.338-.136.044-.2-.251-.24.591-.344.076.005.246.486.088,1.049-.514.715.284-1.718.294-1.906.742-2.228,1.152-1.949,1.409.215-.429h.273l.3-.4,1.174-.639.345-.349-1.557.9-.655.537-.312.41.076.185-.895.891-1.158,1.715-.107-.06.082-.246-.229.021.273-.093-.071-.136.131-.1-.18-.07.327-.322-.107-.1.153-.18-.087-.392-.622.065-.219.682.269-.13.224.186-.366.426-9.03-12.755-20.991,23.836-.037-.235-.372.028-.283-.169-.415.071-.229-.2-.18.262-.175.015-.376-.649-.268.13-.076-.229-.245-.011-.153-.693-.514.163-.262.361-.475.223-.027.273-.229-.06-.005-.224-14.114-19.76.612.229,1.207-.142.906-.557.087-.224.487-.327.153-.376.573-.131.464-.29.361.038.18-.393.235-.038,6.863-13.3-1.772-6.6.792-.272.5-.537-1.449-20.142-3.854-8.483-12.351-21.392.125-.142.639.453.737-.317.24-.5.961.115.344-.269-.027-.371.327,0,.043-.355.375-.483.454.054,1.043.5.312-.137.841.732.305-.006.263-.215.791.269.23-.437.748.634,1.173.365.514-.093Z" transform="translate(-1982.861 -1095.039)"/><path class="h" d="M2079.46,1269.391h0l-3.2,8.277.005.273-.191.158.01.278-.19.126-.584-.017.06,1.262-.475.278.2.475-.678.846.1.644-.174.464.475.689.273-.011.29.284.033.447-.137.049-.053.327.142.2-.694.07-.088.175-.354-.094-.551.169-.415-.076-.273-.131-.054-.29-1.245-.545-.327-.476-.683-.1-.343-.215-.6-.017-.306-.256-2.037.885v.153l-1.912-.032-.485-.453-.2.054-.846-.476-.208-.3-.82-.131-.983.163-.393-.158-.4.158-.512.579.065,1.074-.083.125-.229-.2-.545-.852-.011-.443-.311-.164-.241-1.578-.214-.262.294-1.064-.05-.541-.43-.12.055-.8-.869-1,.251-.442-.916-.514.388-.513-.224-.678.191-.726,2.168-3.931-.1-.349h.224l-.884-.667,1.665-.508.158-.224,1.135-.273.338-.36.06.168.806-.251,1.2-.1v1l.95.24-.093.361.394.709-.6.623h-.388l.537,1.771.437-.164.284.349,2.6.764.751.356.322-.776-.241-.486.41-.218.327-.53-.147-.327.306-1.261-.382-.126.071-.83-.4-.142-.317-.333-.224-1.971,1.5-.71.846-1.223.365-.371.246.032.181-.279-.011.388,1.469,1.616.215-.547,5.537,3.565Z" transform="translate(-1973.46 -1094.91)"/><path class="h" d="M1981.653,1265.08h0l.425.2.224-.2.251.006-.05.612.115.148.338-.131.207-.148.3-.742-.1-.269.464-.349.312.41h.742l.787.429.867-.12-.114.5.229-.18.43.033.215-.36.393-.12.387.6.224-.033.235.273.262-.5.563.12.2-.442.5-.541.191-.027.284-.338.376-.065-.841,1.147.164.317.552.174,2.948-.054-.038.208.12.1.977-.18-.071-.126.371.169.437-.24.35.005-.017-.148.546.294,1.348.192.486,1.031.2-.36.605-.376.107-.415.2-.158-.033-.721,1.61,1.109.3-.247,1-.153.382.088.47.262.174.939v1.213l.312.41.524.027.53,1,.218-.24.229.382-.136.278.284-.027.2.339,1.081.01,0,.5.365,1.381-.89.387-.483-.332-.868-.011-.279-.135-.01-.3-.426-.338-.087-.354-.256-.022-.148-.218-.41.01-.107-.6-.355-.284-.546-.186-.093.191-.628-.1-.257.107-.541-.088-.295-.234-.759,1.425-.982.219-.278.218-.174.591-.169,1.866-1.382,1.382.126,1.649-.284.41-.426.1-.082.169-.383-.113-.486.2-.912-.131-.005-.268-.132-.054-.35.054.028-.568-.656.273-.2.24-.076-.148-.591-.082-.136.1-.137-.163-1.059-.136-.033-.524-.376-.612-.387.088-.251-.2.076-.2h-.224l-.082-.278.229-.054-.142-.268-.131.027-.393-.409-.274.12-.168-.752-1.508-.98-5.427.426-1.529.863-2.244-6.9,1.524-1.128.792-.387,1.354-.284.153-.169Z" transform="translate(-1962.232 -1094.837)"/><path class="h" d="M2012.832,1263.786h0l.945-.053.169.229-.393.153.039.136.614-.15,1.086.215.077-.229.215.017.644.747,1.218-.027.862.776.688.107.191.442-.12.126.174.215-.508.622-.279.1-.017.224.268.36-.6.623-.158-.011-.054.215.088.552.317.372.443-.262h.458l.246.027.219.42.49-.053-.153.7.246.1-.3.163-.076.339-.174.049.054.923-.344,1.1-.448.137-.027.376-.333.191-.283-.158-.215.148-.093-.322-.294-.175-.35.95-.372-.142.1-.666-1.354-.7-.107.328-.682-.034-1.044.273-1.774.769,1.207,1.966-1.3,1.239-.3-.164-1.638.246-.507-.1-.339.393-.6.256-.813-.235-.509.2-.846-.065-.436,1.038-.3.327.361.148-.06.272-1.059.186-.107-.168-.1.043-.142-.375-.192.065-.283-.229-.246.065-.262-.3-.2.284-.082-.136-.415-.06-.459.283-.159-.048-.082.2-.4-.022-.327.54-.465.044-.218.257-.562-.054.36-1.594-.4-.852-.382-.207.05-.24-.284-.426-.125-1.649,1.381-1.381.169-1.867.174-.591.28-.218.982-.219.759-1.425.294.234.54.088.257-.107.629.1.1-.192.9.47.107.6.408-.01.148.218.257.022.087.355.426.338.016.306.278.132.863.01.47.327.841-.273-.312-1.986-1.082-.011-.2-.338-.283.027.136-.279-.229-.382-.219.24-.53-1-.524-.028-.311-.41,1.67-.223.868-.393,1.031.709.956.028.955-.721.683-.283-.634-1.676.306-.928.748-.421-.082-.215Z" transform="translate(-1965.291 -1094.821)"/><path class="h" d="M2110.478,1263.762h0l.224.137.454-.137.513.215-.088.175.246.065.071.382.483.361.147-.215h.175l1,.316.459.629-.083.174.262.107-.246.482-.339.269-.082.273-.246-.054-.246.328-.672-.279-.912.579-.279.667-.153.087-.032.513h-.285l-.107.207-.251.083-.12,1.152-.6,1.065-.005.36-.6.137-.251.53-.677.591-.388.1-.42-.148-1.342.044-.644-.23-.813-.06-.164.644-.4.748.19.393-.2.1-.24.54.191.322-.327.3.215.409-.142.142-.159.934-.612.5h-.617l-.158-.163.049-.208-.425-.054-.247-.289.022-.234-.333-.126.2-.7-.214-.142.153-.409-.256-.317-.41.215-.088.507-.174.137.033.382-.437.224-.2.443-.426.033-.158.142.065.1-.845.747-.541.322-.8.071-.583-.115-.251.158-.376-.005-.229-.229-.59-.153-.372-.365-.628-.148-.988-1.02-.9-.169-.53-.448-.966-.278-7.677-6.514,6.857.945,1.971.06.376.344.365.011.313.344.475.044.115.164.573.131.12-.387.541.1,1.545-.262.371-.355.175.006.578-.989.294.082.208-.131.375.229,1.895-1.278-.174-.246.1-.136-.169-.12.4-1.127-.437-1.2.055-.366.125-.215.6-.049.344.257h.234l.257-.9.524.142.6-.038.191-.4-.065-.241.246-.033.273-.344-.317-.215.426-.644,1.059-.065.667.24.185.257.215.049.454.787.338-.083.475.12.279-.229.164.094.382-.611.3.043.29-.305.12.218.59.017.737.644.491.087.29.223Z" transform="translate(-1977.085 -1094.606)"/><path class="h" d="M2057.1,1268.781h0l.885.666h-.221l.1.349-2.168,3.931-.191.726.223.677-.387.514.917.519-.251.443.867,1-.053.8.429.12.05.541-.3,1.064.215.262.24,1.577.311.164.032.491.752,1-.017,2.206.453,1.971.453.53-.47.022.132.235-.054.584-1.073-1.3-.437-.2-.409.289-.257-.1-1.311,1.282.322.752-1.02-.1.121.7.256.4-.343.781-.787.537.215.224-.491.278-.312-.372.235-1.234-.066-.579.307-.382-.836-2.872-.447-1.073.709-.465-.682-1.359.218-.126-.088-.376-.256-.18.1-.229-.2-.1-.022-.345-.283.442-1.128.218-.47-.552-.107-1.31-1.2.251-.245-.2.131-.628-.224-.656.18-.229-.148-.246.05-.317-.2-.207-.005-.807-.268-.328.075-.66-.107-.458-.18-.131-.027-.546-.394-.284-.169-.524-.846.41-.672-.065-.088-.591-.54.2-.53.514-.372-1.583-.425.093-.574-.107-.215.4-.429-2.565,1.1-.514-.709-1.4-.153.05-.2-.284-.361-2.036.667-.972.2.076v.234l.573.071.175-.989-.115-1.1.136-.125.147-.885.366-.017.125-.639.672-.4.022.224.158-.016.126-.339,1.342-.465-.29-1,.382-.241.174.06.284.629.667.524.021-.174.219.215.215-.076-.011-.224.453.016.327-.2-.727-.426.7-.805.563-.191.667-1.524,1.5,1.718.338,1.142,1.638-.693.448.835.027.509.317.764,1.108-.4.464,1.031-2.119.131-.251.4-.458.339-.448.737.4.387-.164.333.224.043.289.339,2.009.161.649,1.414.115-.033Z" transform="translate(-1971.396 -1094.241)"/><path class="h" d="M1994.489,1257.443h0l-.316,1.376-.961.366-.071.2-.715.508,0,1.153-.344.458.027.274-.317.436-.043.317-.846-.022-1.5,1.262-.159-.4-.464.065-.107.295.251.7-.223.033-.388-.6-.392.12-.215.36-.429-.033-.235.174.12-.491-.868.12-.787-.429h-.745l-.312-.41-.464.35.1.269-.3.742-.207.148-.338.131-.115-.148.05-.611-.251-.006-.224.2-.425-.2.294-.344-.191-.306.429-.4.1-.793.186-.1.005-.776-.163-.53.235-.234.327.016.43-.268-.016-.35,1.605-.437.807.088.394-.1.2.256.41-.4.268.1.005-.262.388-.005.644-.29.016.224.29.185,1.2-.737.142.065.465-.208.327.071-.005-.487-.148-.2.163-.06.929.088.437-.5.224.12.223-.153.3.076.273-.29.333.35.694-.115Z" transform="translate(-1962.86 -1093.9)"/><path class="h" d="M2040.518,1264.206h0l-.148.885-.137.125.115,1.1-.174.989-.574-.071V1267l-.2-.075-.666.971.36,2.037.2.284.153-.049.709,1.4-1.1.513.429,2.567.215-.4.574.107.426-.093.371,1.583.53-.513.54-.2.088.59.672.065.846-.41.169.525.393.283.028.546.181.131.107.458-.076.661.268.327.006.808.2.207-.05.317.147.246-.18.229.224.655-.131.623.246.207,1.2-.251.107,1.31.47.551,1.128-.218.284-.442.021.344.2.1-.1.224.256.18.087.375-.218.127.682,1.358-.709.465.447,1.074.836,2.872-.306.382.066.579-.235,1.234.311.372.262.131.224-.087.3.246-.174.4.234.18.153.978.284.126.044.262-.344,1.643.125.591-.666,1.19-.1-.043-.693.841-.246.9-1.387-1.038-4.854-2.288-2.228-4.248-1.84.634-.322-.557-.268-.005.136-.223-.634-1.128-.366-1.1.94-1.01.087-.606-.251-.2.311-.4-.971-.666-.24-.945-.35-.077-1.293-1.13-.088-1.135-2.152,1.228-.545-.483-2.037,1.589-.53-.273.017-.283-1.19-1.463-.475.027.088-.219-.1-.2,1.228-.06,1.074.956,1-1.1-1.186-2.347-1.26-.247-.465-.638-1.8-1.011.24-.682-.094-.192-.666.317-.093-.595-.361-.05-.878,2.523-1.049-.18-.665.7-.234.028.021.742-.578.7-.328,1.627-.387.356-.148.537-.345.163-.214.514-.578-.574-.813-.393-.429-2.594-5.444-8.927,1.774-.77,1.043-.273.682.033.107-.327,1.354.7-.1.667.372.142.35-.951.295.175.093.322.215-.148.283.159.333-.192.027-.376.448-.135.2-.426.148-.672-.054-.922.175-.05.076-.338.3-.164-.247-.1.153-.7-.49.053-.219-.42-.246-.027h-.465l-.442.262-.317-.371-.087-.569.053-.2.158.01.6-.622-.269-.361.017-.223.278-.1.508-.622.29.628.591-.229.639.065-.027.629.137.425.42.41.727,1.168-.215.4.082,1.229.289.251.913.142.524-.94-.252-.082.556-.939-.016-1.578.513-.361.458.606,1.718-2.6.546.485.192-.107.537,1.054.316-.136-.016-.169.683-.661.622-1.092.273-.906-.07-.24-1.436-1.529.332-.805.644.246.136.295-.005.654,1.01-.088.29.9,1.064.317.339.519,1.321.568.579-.617-.215-1.725.687.065.645-3.948,1.55-.42-.066-.537-.36-.12-.175-.257.76-.2,1.059.806,1.256,1.9.24.644.1.5-.546.726-.447,1,.311.934-.3,1.506Z" transform="translate(-1967.365 -1093.756)"/><path class="h" d="M1974.174,1253.535h0l.819.661-.229.317.372.429-.1.859-.447.148.251.688-.208.835.491-.174.863-.835.508-.18.207.372-.475.142-.322.483.491.584-.219.355-.306.132.366.2.95-.36.465.186-.005.415-.317.224-.465.016.071.235.661.246-.2.076-.01.317.185-.093.426.107.06-.278.257-.148-.24-.192.147-.174.257.289.164-.382.344.2.53-.449.426.344-.065.295-.257.148.491.2-.174.235.158.169-.163.164.163.53-.005.775-.186.1-.093.792-.43.4.142.371-.4.448-1.354.284-.792.387-1.523,1.127,2.243,6.9-1.906,1.07-3.074,2.627-.512.24-.426-.06-.366-.322-1.321-2.363-9.118-.005,1.073-6.486-.989-3.233,2.151.028.71-.835.743-2.828.246-.448-.06-.465.475-.215.136.071.262-.365.163.005-.06.322.344-.617-.065-.966-.207-.333.332-1.037.011-.71.693-.485.6-.978.032-.339.53.18.4.591.458.257.038.234.1-.879.928-.043.393-.743.426-.053.726.246,1.458-.125.72.175.164.251.273-.279Z" transform="translate(-1959.853 -1093.344)"/><path class="h" d="M1993.2,1244.808h0l6.06-.491,1.693.7.207-.484.317.3.371.044.382.273.519-.107.279-.247-.164,1.311-.644,1.016,1.13,1.638.551,1.293.945,1.566,2.49,3.625,1.146.547-.126,1.583,1.092.5.47.792.322-.224.234.115,1.054,2.7-.748.42-.306.928.633,1.676-.682.284-.956.721-.955-.028-1.032-.71-.87.4-1.671.223v-1.212l-.175-.938-.464-.262-.388-.087-1,.153-.3.245-1.611-1.109.032.72-.2.159-.107.415-.606.375-.2.361-.486-1.032-1.349-.191-.546-.295.017.148-.349-.006-.437.24-.372-.169.071.125-.977.18-.12-.1.038-.207-2.949.053-.551-.174-.163-.317.841-1.147-.376.065-.284.34-.191.027-.5.54-.2.442-.556-.12-.257.491-.136-.005-.355-.951.044-.262.524-.107.158.4,1.5-1.261.846.022.044-.317.317-.437-.027-.273.344-.458-.006-1.152.715-.508.071-.2.961-.365.169-.339-.142-.18.372-1.108.425.005.426-1.059.693.022-1.036-2.347-.273-1.3.365.093.219-.393.06-1.507-1.02-1.867-.524-.562-.005-.3-1.748-1.349Z" transform="translate(-1963.912 -1092.081)"/><path class="h" d="M2111.519,1255.082h0l.387.537.978.688.3,1.453.677.524-.159.584.509.273.005.218.268-.016-.147.519.393.191.005.563.616.5.077.247.672.382-.028.24.208.163-.023.442.215.3-.065.355.29.223-.537.175-.333-.075-.355.409-1.109-.77-.53.136-.333-.344-.551-.2.081-.174-.458-.629-1-.317h-.174l-.153.208-.464-.349-.088-.4-.24-.05.088-.18-.557-.218-.426.142-.5-.361-.491-.088-.737-.644-.591-.016-.1-.215-.306.3-.3-.044-.382.611-.235-.082-.1.186-.4.049-.169-.13-.355.076-.448-.787-.215-.049-.186-.257-.667-.24-.939.022-.546.688.317.215-.273.344-.245.032.065.241-.191.4-.6.039-.524-.142-.257.9h-.235l-.344-.256-.6.049-.125.215-.053.366.436,1.2-.4,1.127.168.12-.1.137.174.246-1.895,1.278-.375-.229-.208.132-.295-.082-.579.989-.174-.006-.372.355-1.545.262-.54-.1-.12.387-.573-.131-.114-.164-.476-.044-.311-.344-.366-.011-.375-.344-1.971-.06-6.858-.945-5.384-3.428-.153-.136.032-.218-.66-.53-.224-.606-.469-.5.7-.518.906-.05.437-.327,1.093-.241,1.069-.556.328-.215.049-.59.4-.083.169.218.8-.939.053-.751.825-.852.966-.142-.142-.251.469-.126-.016-.343.59-1.223-.223-.224.4-.283.065-.262.775-.4v-.376l.885-.049,1.135.459,2.272.595.333-.47.086-.846-.1-.269.17-.289.087-.12.792.011.7-1.038-.142-1.272-.41-.01-.131-.569-.005-1.272.169-.246-.006-.393,7.475-2.517,7.344-3.3,3.6,10.532.605.234.017,2.932,1.015.376.808.54Z" transform="translate(-1975.958 -1091.538)"/><path class="h" d="M1975.945,1237.766h0l-.053.289-.284-.158-.6.083.393,1.212-.2.273.246.677-1.064.491-.131.966-.289.279.016.429.215.355-.269.53.71.765.545,1.019-.709.29.147,1.02-.885.153-.033.644-.556.366.545.59.556.039,1.392.963-.661.366-.148.584-.35.2-.093.6-.667.644-.163-.252-.688-.169-1.491.12-.961-.234-.191.044-.393.742-.927.044-.1.88-.038-.236-.459-.256-.4-.591-.53-.18-.032.339-.6.977-.7.513v.683l-.333,1.037.208.333.065.966-.345.617.06-.322-.163,0-.262.365-.136-.071-.475.215.06.465-.246.447-.742,2.829-.712.836-2.153-.029-1.2-3.943.065-.35,2.857-3.88-.011-.153.541-.448.107-.437.513-.24-.049-.4.283-.164.011-.317.311-.234-.038-.382.429-.044.863-.742.269-.885-.273-1.074-.322-.41-.005-.956.973-.751-.114-.922.191-.224-.19-.195.279-.437.028-.644.332-.868.437-.06.787-.633.278.038.191-.475.262-.191.464.082.164-.218.486.093.153-.192.333.1.781-.339.054-1.181,1.074-.508-.179-.744.251-1.387,1.365-.4.327.2.4-.053.557.546.2-.028.174-.317.382.016.284.978Z" transform="translate(-1959.669 -1090.968)"/><path class="h" d="M2051.75,1233.832h0l-.2,1.037,5.843.005.552-.125.661.093.819-.333.672-1.036,1.163-.344.693.421.579,1.731.306.174-.093.153.776,1.633.649.131.519-.215.338.366.18-.3.376-.147-.148.436-.107,1.982-.071.147-.251-.016-.115.89-.375.06-.126.274-.107-.033-.065.421-.136-.107-.518.5-.083.977,15.752,1.693-.3.35.017.819-.344.568-.021.513.186.885.262.114.235.792.29.159-.038.415.429.327.065,1.987-.18.12-.076.35-.35.1-.065.262-.4.284.224.224-.591,1.222.018.344-.47.125.142.252-.966.142-.825.852-.054.752-.8.938-.169-.218-.405.082-.049.591-.327.215-1.07.557-1.093.24-.437.327-.906.05-.7.519.469.5.224.605.662.53-.246.765-1.469-1.617.011-.387-.18.278-.247-.033-.365.372-.846,1.223-1.48.677.207,2,.317.333.4.142-.071.83.382.125-.306,1.261.147.328-.327.53-.41.218.24.486-.323.775-.751-.355-2.6-.764-.284-.35-.436.164-.537-1.772h.388l.6-.622-.394-.71.094-.36-.951-.24v-1l-1.2.1-.8.25-.06-.169-.339.361-1.135.272-.158.224-1.781.54-.649-1.414-1.867-.115-.655-.426.164-.332-.4-.387,1.1-1.442,2.178-.163-.463-1.032-1.109.4-.316-.765-.028-.507-.447-.836-1.638.694-.339-1.142-1.5-1.718-.663,1.521-.563.192-.7.8.727.426-.328.2-.452-.016.01.223-.215.076-.218-.215-.022.175-.666-.524-.284-.628-.174-.06-.382.24.284.994-1.342.464-.125.339-.159.017-.021-.224-.672.4-.126.638-.365.017.3-1.507-.311-.934.448-1,.546-.727-.1-.5-.241-.644-1.255-1.9-1.059-.805.415-.546-.978-1.938,1.425-3.506,2.02-4.329-.573-2.07.4-.4,1.747-.458,1.873-1.807,2.147-3.789.48-.257Z" transform="translate(-1971.32 -1090.502)"/><path class="h" d="M1996.4,1232.4h0l.185-.215.429-.06.027-.131.252.093.142-.1.852.185.142.388.573.284.339-.207-.022.786.393,1.1.017-.218.169-.083.486.083.043,2.718.224-.01-.029,2.06-.115.234.153.142-1,.279-.3.382-.3-.2-.551.541-.484.027-.2-.131-.338.093.022-.223-.5-.137.05.332-.372.53-.912-.687-.107.19-.551.164-.376.464-.644.083-.742.486-.971-.442.218.2-1.425,1.663,1.747,1.348,0,.3.524.563,1.02,1.867-.06,1.507-.219.393-.365-.093.273,1.3,1.038,2.347-.694-.021-.426,1.059-.425-.005-.083.251-.693.115-.333-.349-.273.29-.3-.077-.223.153-.224-.12-.425.491-.7-.131-.394.1.137.208.005.486-.327-.071-.465.208-.142-.065-1.195.737-.289-.185.01-.224-.672.29-.388.005,0,.261-.269-.1-.41.4-.2-.256-1.747.093-1.059.354.017.35-.429.268-.4.054-.158-.169.174-.234-.491-.208.257-.142.065-.311-.425-.327-.53.447-.344-.2-.164.382-.256-.29-.148.175.241.191-.257.148-.06.278-.426-.107-.185.093.01-.316.2-.076-.66-.246-.071-.235.465-.016.317-.224,0-.415-.464-.186-.95.36-.366-.2.306-.131.219-.356-.491-.584.322-.483.475-.142-.207-.372-.519.192-.868.835-.491.12.219-.79-.251-.689.447-.148.1-.859-.372-.43.229-.316-.819-.661.394-.365.093-.6.35-.2.148-.584.66-.366-1.393-.96-.556-.039-.546-.59.557-.366.033-.644.4-.121.246.077.3-.307.524-.229.945.41.649-.186.693-.475.47.83,1.073.47.18-.573.41-.274.361.376.464.054.115.8.273.344.066-.8.4-.163.344.229.049-.409.3-.216.131.307.355.088.743-.284.36-.372-.088-.355.41-.065.409-.682.252.093.158-.164.207.06.169-.115.235-.234.125-.415.312-.107.355-.366.142-.508,1.01-.649.41-.06-.344-.421.53-.53.482-.246.2-1.019.218-.361.4-.18.088-.278.667.016.322-.257.453.18.612-.508.1-.252-.229-.491.223-.475.339.022.279-.388.269.131.612-.246.628.365.442-.283.4.311.207-.278.273.1-.065-.215.2-.163.605-.082.1-.584-.107-.4-.355-.18-.344-.546-.42-.208-.087-.8-.366-.284.174-.874Z" transform="translate(-1961.882 -1090.341)"/><path class="h" d="M2009.673,1230.4h0l.573.284.215-.257,1.043.186-.136.945,1.682.234-.4.775,1-.027.137.556-.339,1.2.524.043.207,1.627-.153.175-.218,1.059.344.5-.022.252-2.932-.039,2.228,3.587-.513,2.6-.088,1.741.05.655.508.568.093.65-.415.638.361.3.1.311.41.262-.05.885.175.219-.017.9-.262.429.107.169-.29.229.617.808.694-.192.388.164-.874,1.157,1.36-.022.355-.235.016.311.251.083.383.465.071.638-.5,1.1-.033,1.452-1-.7-.043.306.169.246-.215.429.1.34-.464.021-.107.983-.214-.017-.077.229-1.086-.215-.612.147-.039-.136.393-.153-.169-.229-.945.054-.971-2.49-.235-.115-.322.224-.47-.792-1.093-.5.126-1.583-1.147-.546-2.488-3.617-.945-1.567-.552-1.293-1.13-1.638.644-1.016.164-1.311-.278.247-.519.107-.382-.273-.372-.044-.317-.3-.207.482-1.693-.7-6.06.49,1.426-1.664-.219-.2.972.442.742-.486.644-.082.376-.465.551-.164.107-.191.912.687.372-.529-.05-.333.5.137-.022.223.339-.093.2.131.483-.027.551-.541.3.2.3-.382.563-.251.429-.011-.148-.158.115-.234.032-2.059-.223.011-.044-2.719-.486-.082-.169.082-.016.218-.393-1.1.022-.787.132-.153-.132-.235.115-.426.322-.18.049-.215.841.06.339-.169.214.082.568-.147.982.169,1-.656.464.174.279.426.464.2.393.742.76-1.288.605.372.339-.771Z" transform="translate(-1964.481 -1090.117)"/><path class="h" d="M2152.125,1231.284h0l.469-.524,1.438-.9,3.194-1.288.6.453.4.563.169.885,1.07,2.392.977,3.123,1.594,2.267.989.835.591,1.354.759,1.081,1.081,1.119.274.563.917.429.4.53.769.388,1.578.174.765.591.945-.12,1.218,1.01,1.1.628,1.059.333,1.452.2,2.147,1.556,1.016.524,2.266,2.288,3.052,1.659,1.371.082.845.4.743-.2,1.5.121.655-.355.382.158.215-.483.6-.569.994.328.654.016.279-.322.295.005.24-.229,1.109.022,1.064-.819.053-.4.344-.218.661-1.311.606-.169.523-.562.662-.327,2.8-.775.727-.421,1.016-.983,1.84-.906.448-.361.023,40.377,17.783,23.991,0,1.906-20.582,1.749-21.688,9.943-.344-1.005v-.633l-.339-.644.1-.738-.06-2.287-.764-1.235-.164-1.867.41-1.245-.393-.824.053-1.65-.185-1.147-.34-.672-.885-1.042-.3-1.409-.562-1.049-.508-.1-1,.617-.191-.1-.038-.158.215-.066-.2-.545.1-.224-.175-.1.142-.616-.093-.263-.207-.065-.083-.66-.4-.672.18-.153-.169-.448-.224.033-.038-.416.339-.584-.234-.148-.218-.769.218-.2-.158-.24.223-.229-.053-.273.224-.164-.1-.229-.229-.081.207-.454-.392-.053.142-.148-.132-.215.148-.366-.294-.071-.053-.322-.295-.006.038-.288-.568-.8-.219-.721-.338-.18-.039-.234-.229.053-.127-.121-.2-1.6-.229-.048-.158-.356.115-.2-.273-.224.131-.273-.426-.448-.016-.666-.279-.033-.115-.164.181-.338-.216-.388.273-.115-.246-.174-.17.043.05-.573-.388.223-.016-.36.3-.312-.186-.278-.371-.054.12-.316-.4-.574.125-.158-.185-.142.3-.18-.257-.344.241-.682-.306-.2-.088.306h-.153l.049-.2-.191-.246.327.027-.06-.605-.3-.273.2-.208-.524-.016.273-.339-.279-.011.065-.366-.465-.13-.114-.169.229-.131-.229-.252.268-.107-.049-.278.256-.126-.5-.208-.083-.278.186.038.032-.7-.228-.039.081-.311-.158.107-.142-.215-.076-.312.132-.322-.29.027-.05-.355-.294.039.071-.3-.415-.709.24-.524-.344-.054-.284-.306-.207.126-.3-.283-.032-.262-.246.186-1.059-.06.1-.294-.215.114-.017-.229-.224-.126.028-.709-.328.175-.115-.312-.284.05-.053-.344.208-.044.015-.153-.66-.47-.224-.295-.005-.365-.295-.169-.054-.6.2-.426-.5-.355-.005-.235-.148.131-.115-.088.1-.934-.375-.01.053-.355-.18-.12-.01-.453-.154-.107.164-.224-.125-.158.087-.164-.224-.06.071-.153-.142-.327-.215.087-.082-.234-.507-.252-.6-1.2-.229.131-.294-.24-.164.3-.251.06.148-.508-.229-.148-.375-.9-.24.033-.054-.163-.355-.088-.229-.262-.076-.372-.437-.327-.262-.022-.551-.628-.649.022-.191.153-.1-.219-.4.066-.678-.868-.25.18-.054-.272-.42.228-.164-.316-.29.028.1-.383-.453-.392-.262.208-.294-.107-.415.163-.218-.131-.558.294-.081-.246-.257.093-.591-.1-.038-.262-.387.071-.355.327-.606-.239-.4.049-.224-.316-.868.12-.065-.344-.4.038-.017-.327-.573-.375-.12-.317-.743-.721-.273-.579-.917.229-.491-.338-.4.393-.181-.005-.125-.2-.332.328-.47-.017-.154.727-.382.115-.513.415-.224-.032-.344-.382-.644.3-2.207-.1-1.878-.732-.236-.191.159-.278-.4-.2.05-.316-.5-1.349-.011-.584-.19-.5-.108-1.4.136-1.655.1-.322.628-.748-.038-.606-2.469-9.435-.459-.448,1.02-.033.328.115.148-.2.4.054-.053-.3.115-.12.36.2.484-.153.136.251.333.126,1.283-1.261.545-.878,1.074-.612.361-.027.142.174,1.091-.142.481-.218.437-.7,1.174.223.269-.148.737.05.1-.475.322-.175.082-.578.234-.033.622-.655.989.333.372-.154.126-.279,1.261-.049.2-.491.859-.453.125-.945.694-1.311.7-.8.372-.8,1.921-1.987Z" transform="translate(-1984.028 -1089.859)"/><path class="h" d="M1982.849,1222.912h0l1.037,1.311.584.442.971.327-.322.792,2.654,3.784.912.53.524-.1.421.415.038.2-.425.47.8,2.14-.093.491,1.89-.667,1.818-.9.158.054.29-.537.53-.076.2-.223.649-.224-.017.153,1.021-.186-.174.859.366.3-.011.634.218.317.3.06.344.545.35.169.115.415-.107.595-.595.071-.2.164.065.215-.273-.1-.115.262-.229.022-.273-.317-.215.246-.246.033-.606-.36-.612.246-.268-.131-.279.388-.339-.022-.224.486.224.54-.595.667h-.387l-.175-.148-.322.257-.6-.044-.229.376-.327.107-.2.6-.174.115.077.289-.115.382-.483.246-.53.537.344.415-.41.06-1.01.65-.142.509-.355.365-.312.107-.125.416-.235.234-.169.115-.207-.06-.159.164-.251-.093-.41.682-.41.066.088.355-.361.371-.742.284-.355-.088-.131-.306-.295.215-.049.409-.344-.229-.415.169-.054.792-.273-.345-.043-.731-.537-.12-.361-.375-.41.273-.18.573-1.073-.47-.47-.83-.693.475-.661.186-.7-.387-.847.193-.115-.808.6-.164.1-.229-.568-.961-.678-.72.269-.53-.215-.355-.005-.514h.174l.1-.2.132-.966,1.064-.491-.246-.677.2-.274-.393-1.212.6-.083.284.159.065-.448-.294-.818-.382-.017-.174.317-.2.028-.557-.546-.4.054-.273-.191.306-.208.164-.375.131-.054.082.126.083-.306.344.022.5-.24-.2-.546.268-.219-.024-.226,1.01-.661.126-1.146.436-.355.47-.846.453-3.271.306-.792.748-1.114.01-.5,1.55.667.1-1.568Z" transform="translate(-1961.97 -1089.06)"/><path class="h" d="M1991.453,1218.808h0l2.823-.758-.142,1,2.058.18.655-.355.6.1.338.6.672.616-.29.366.2.289,1.294.792.12-.443.939-.147.224.131.874-.486.246.591,1.321,1.971.513.038.737,1.3,1.02.437,1.289.847,1.337.469-.016.306-.537.082.3.846-.4.186-.076.175.207.053-.093.093.114.508.508.06-.339.77-.606-.371-.759,1.288-.394-.743-.464-.2-.279-.425-.464-.174-1,.655-.982-.169-.568.148-.215-.082-.339.168-.819-.065-.071.219-.333.191-.1.415.126.257-.442.338-.5-.2-.289-.5-1.181-.153-.038.136-.429.06-.186.215-1.02.186.016-.153-.649.224-.2.223-.524.071-.295.54-.159-.053-1.818.9-1.889.667.093-.491-.805-2.14.426-.47-.038-.2-.421-.415-.524.1-.912-.53-2.654-3.783.322-.792-.971-.327-.584-.442-1.029-1.313,1.8-.677.787-.611.234-.508,2.293-.388.732.12.218-.135.6.043.526-.545.278-.715Z" transform="translate(-1963.099 -1088.374)"/><path class="h" d="M2021.929,1219.051h0l-.142.251.153.366-.229.727.2.12.107.688-.082.769.18.107-.273.65-.061.737h-.18l-.284.273-.011.246-.2.049-.169.5.115.327-.219.35.1.12-.158.033-.049.269-.269.076-.028.147-.215-.043-.169.147.06.273-.349.709.2.355-.12.12.022.573-.2.229.2,1.069-.115.247-.218.06-.088,1.244.088.442.54.43-.218.153.01.3.2.158-.269.339.1.693-.12.076-.251,1.239-.169.215.332.53.142.644-.251.344.06.093-.169.032.049.215-.628.174.12.874-.382.634-.028.375.06.295.464.376-.01.537-.328.573.011.683.295.322.038.426.557.246.021.654.453.662-.039.294.192.142.049.65.219.322-.169.53.169.387.207-.005.053.246.355.262.278-.017.234.223.071-.163.737.557-.361,1.239.131.289-.215,1.338.371.751.05.693-.922.727.1.611-3.406.016-.322-.464-.252-.083-.016-.312-.355.235-1.359.021.873-1.157-.387-.164-.694.191-.617-.807.29-.229-.107-.169.262-.43.016-.9-.174-.218.05-.885-.409-.262-.1-.312-.36-.3.415-.639-.093-.649-.508-.568-.042-.657.088-1.742.513-2.6-2.228-3.586,2.932.038.022-.252-.344-.5.218-1.059.153-.175-.207-1.627-.524-.043.333-1.037-.131-.709-1,.022.4-.776-1.682-.234.136-.945-1.043-.185-.215.257-.574-.284-.508-.06-.115-.507.093-.093-.207-.054.077-.174.4-.186-.3-.846.537-.082.017-.306-1.338-.47-1.288-.846-1.02-.437-.737-1.3-.513-.038-1.322-1.972-.246-.59,5.378,2.588.971-.486,5.876-4.777.993-.2.3.262.709.1.973-.727,1.771-.491-.049,1.114.229.361.142.01-.215.41.1.372Z" transform="translate(-1966.03 -1088.196)"/><path class="h" d="M2023.968,1211.811h0l-.044-.524.53-.628-.12-.426.584-.765.667-.332.508-1.342.24-.295.322-1.993-.42-.2-.1-.42.486-.629,9.511,15.43,2.415-.043,4.461,5.607.731-.06.306.846.382.082.142.235.458.044.2.207-.076.622.29.694.224.163.475-.053.36.551.486.4.5.053.885.721-.484.257-2.147,3.789-1.874,1.807-1.747.459-.4.4.573,2.07-2.02,4.33-1.425,3.506.977,1.938-.415.546-.759.2.174.257.361.12.065.537-1.551.42-.644,3.947-.688-.065.215,1.726-.579.616-1.321-.568-.338-.519-1.065-.317-.289-.9-1.01.088.005-.655-.137-.295-.644-.247-.332.806,1.506,1.7-.18.759-.375.716-.355.606-.667.644.027.159-.327.148-.537-1.054-.191.107-.546-.486-1.718,2.6-.459-.606-.513.361.017,1.578-.557.939.252.083-.524.939-.24.043-.339-.218-.35.027-.273-.246-.082-1.228.215-.4-.727-1.169-.421-.409-.135-.426.027-.628-.639-.065-.591.229-.464-.841.12-.125-.191-.442-.688-.107-.863-.776-1.217.027-.644-.747.107-.982.464-.022-.1-.338.215-.429-.169-.246.043-.306,1,.7.032-1.452.5-1.1-.071-.639,3.347-.016-.1-.612.922-.727-.049-.693-.372-.751.215-1.338-.131-.289.361-1.24-.737-.556-.071.161-.235-.224-.278.016-.355-.262-.054-.246-.207.005-.169-.387.169-.53-.219-.322-.049-.65-.191-.142.039-.294-.454-.66-.021-.656-.557-.246-.038-.426-.295-.322-.011-.682.328-.574.01-.537-.464-.375-.06-.294.028-.376.382-.634-.12-.873.628-.175-.049-.215.169-.033-.06-.093.247-.347-.142-.644-.333-.53.169-.215.251-1.239.12-.076-.1-.694.269-.338-.2-.158-.01-.3.218-.153-.541-.429-.087-.443.087-1.245.218-.06.115-.246-.2-1.07.2-.228-.022-.574.12-.12-.2-.354.349-.71-.06-.274.169-.147.215.043.028-.148.269-.076.049-.268.159-.032-.094-.126.224-.486-.107-.294.131-.065.021-.322.207-.066.066-.3.4-.2.06-.737.274-.65-.18-.107.082-.77-.107-.688-.2-.12.229-.726-.153-.366.142-.252-.1-.371.215-.409-.142-.01-.229-.361-.028-.442.131-.218-.125-.011.169-.7-.376-.617.1-.634.355-.557-.1-.07.093-.35.3-.065-.164-.154.154-.2-.107-.3Z" transform="translate(-1967.931 -1086.428)"/><path class="h" d="M2100.707,1214.543h0l12.312-9.825,1.354-5.738,18.092-10.5.71.867-.033.509.269.41-.1.387.148.568.792,1,.484.322.595,1.048.29.169.158.426.83.769h.219l.317.376.59.366.426.751-.022.36.813,1.228.323,1.181,1.043,1.748.518.081,1.109.662.29.005.792.584.239.005.164.355.175-.032.218.284.6.289.879,1.267.392.338.044.273.229.017.158.382.5.083.709.649.269.07-5.395,1.857,5.807,14.777-3.194,1.282-1.458.918-2.37,2.5-.372.8-.7.8-.694,1.311-.125.945-.859.454-.208.5-1.25.043-.126.279-.371.153-.989-.333-.623.656-.234.033-.082.578-.322.175-.1.475-.737-.05-.269.147-1.174-.223-.436.7-.483.218-1.092.142-.142-.174-.361.027-1.073.612-.546.879-1.282,1.262-.333-.126-.136-.251-.483.153-.36-.2-.115.121.053.3-.4-.054-.147.2-.328-.115-1.02.032.458.448,2.473,9.433.037.606-.628.748-.1.322-.126,2.2.3,1.939.5,1.348-.049.316.4.2-.159.279.234.191-.513.093-1.174-.365-.748-.634-.229.437-.792-.268-.262.215-.306.005-.841-.732-.311.136-1.043-.5-.453-.054-.375.483-.043.355-.328-.005.027.371-.316.246-.988-.094-.241.5-.616.289-.268.006-.491-.429-.115.136-.207-.021-.486-.333.038-.393-.215-.294.022-.442-.207-.164.028-.24-.672-.382-.076-.246-.616-.5-.005-.562-.394-.192.148-.518-.269.016,0-.218-.508-.273.158-.584-.672-.53-.3-1.452-.977-.688-.142-.316-.579-.465-1.49-.672-.016-2.932-.606-.234-3.6-10.533-7.344,3.3-7.475,2.518.005.393-.169.246.005,1.272.131.568.409.011.142,1.272-.7,1.038-.792-.011-.087.12-.169.289.1.269-.088.846-.333.47-2.271-.6-1.136-.458-.885.049v.376l-.425.3.306-.781-.136-.4.022-1.277-.429-.327.038-.416-.3-.161-.236-.792-.262-.114-.186-.885.022-.513.344-.568-.017-.819.3-.35-15.752-1.693.082-.977.519-.5.136.107.065-.421.108.032.125-.273.376-.06.115-.89.251.016.071-.147.107-1.983.224-.787.426.317,1.015-.016,2.416-.867.365.2.088-.415.928-.263.246.208.234-.082.215.169.126.355.257.224.475-.044.022.246.295.044.207.278,1.049-.12.125.159.429.065.841-.737.327-.022.552.623.437.229.35.485.977,2.2.344.142.316.759.039.649.295.044.049.382.295-.016.519.344,1.026-.093.126-.115.595.088.726-.4.235.164.429-.022.016.394,1.24.344.409-.4.387.219.732-.054.083-.491.7-.1.4-.269.443.094.284-.481-.142-.071.038-.208.372-.333.453-.016.5-.312.3-.639.573-.131.458.393.716-.672.349.115.5-.169.485.18,1.327-.235.393-.306-.071-.437.125-.252.9-.584-.087-.168.142-.263.36.164.751.841.743-.574.126-.268.556-.388.421-.1.268-.475.917-.715-.065-.235.125-.114.136.043-.01.169h.262l.715.387.1.187.951-.06-1.026-.764-.524-8.747-2.577-3.407-.094-2.14Z" transform="translate(-1974.81 -1084.201)"/><path class="h" d="M2060.016,1173.328h0l.628-.071,2.714,7.535.693.654.973,1.939.19,1.1.382.966-.082.805.229.016.032,1.288-.164,1.256.269.044.8-.262,1.786,1.245,2.795.06,2.589.751.349.9,1.289.945.387.545.672.126,1.25,3.538,1.387.727,2.889,4.831.819,1.032,2.763,4.935.6.514.159.278-.082.175.251-.093.328-.726.273.483.458-.021.033-.215h.224l.726-.538.137.175.519-.247.3.131.825-.262.835-.005.338-.187.65-.016.142.131.284-.306.36.169.732-.273.278.065.524-.158.294-1.038,3.074,2.25-.169,3.877.093,2.14,2.578,3.406.523,8.747,1.027.765-.951.06-.1-.186-.716-.388h-.262l.011-.168-.137-.044-.125.115.065.234-.917.715-.269.476-.42.1-.557.387-.125.269-.743.573-.751-.841-.36-.163-.142.262.087.169-.9.584-.126.251.071.437-.393.306-1.327.235-.485-.181-.5.169-.35-.114-.715.672-.459-.393-.572.131-.3.638-.5.312-.453.016-.372.333-.038.208.142.071-.284.483-.442-.093-.4.268-.7.1-.082.491-.732.053-.387-.218-.41.4-1.239-.344-.017-.393-.43.022-.235-.164-.726.4-.6-.087-.126.115-1.026.093-.519-.344-.294.017-.049-.382-.294-.044-.039-.649-.317-.759-.344-.142-.978-2.2-.35-.485-.437-.229-.611-.644-.269.043-.84.738-.429-.066-.126-.158-1.047.12-.208-.278-.294-.044-.022-.246-.475.043-.257-.223-.126-.355-.214-.168-.235.082-.219-.207-.955.262-.087.415-.366-.2-1.534.644-.879.224-.208-.083-.235.153-.572-.053-.415-.322-.1.354-.36.148-.1.279-.2.022-.06-.279-.18-.087-.677.218-.1-.148-.372.011-.775-1.633.093-.153-.306-.174-.579-1.731-.693-.42-1.163.344-.671,1.037-.819.333-.661-.093-.551.125-5.842-.005.136-1.153-.825-.605-.5-.054-.486-.4-.36-.55-.476.053-.223-.164-.087-.41.8-.562.775-1.069.088-.41-.186-.568.2.082.082.606.345.06-.027-.568-.169-.028.01-.537-.371-.879-.032-.765.107-.186-.208-.409.229-.841-.354-.879.279-.984-.737-.426-.825.421-.021-.35-.142-.071.294-.228-.077-.813.148-.208.426-.18.053.186.125-.017.107-.3-.256-.312v-.4l-.3.256-.508-.375.1-.192h.153l-.033-.229.29.131.125-.2.459.376.491.18.239.316.225-.1v-.224l-.088-.344-.47-.524.065-.415-.158-.049-.415.306-.5-.185-.049-.241-.355-.148.475-.191.137-.3.344-.257.038-.344.4-.13.077-.252.492-.283.152.01.257-.928-.169-.154-.187.164-.24-.429-.617.12-.021-.215-.307-.082-.859-.85-1.048.278-.251-.088-.923-.971-.927.186-.06-.186.344-.574-.12-.43.071-.971.115-.278,1.255-1.12.028.224.6-.038-.071-.491.285-.246.246.339-.169.66.083.491.4.787h.268l.514-1.2.666-.732,0-.42.289-.552.2-.087.208.185.376-.071-.107-.24.262-.655-.017-.465.279-.322-.028-.279.229-.169-.042-.628.524-.18-.05-.278.175-.125.021-.307.4-.3.016-.158-.163-.076.355-.2-.115-.366-.256.328.054-.143-.234-.333.278.2.044-.257-.137-.107.19-.054.083-.234-.115-.163.219-.017.126-.42-.323-.022-.18-.311-.065-.312.245.033.07-.218-.125-.107.174-.344-.158-.208-.186.107-.017-.84.366-.215.021-.279.389-.2-.077-.251.174-.623-.107-.153.005-1-.306.316.1-.327.256-.224.131-.551-.087-.409.033-.148.186-.011-.043-.731.135-.033.2-.54.389-.29-.142-1.431.486-.53.246-.775.234-.027.475-.5.005.2.824-.24.623-.3.8-.622.595-.169-.028-.606.355-.191-.07-.415.147-.317-.224-.442.507-.41.027-.813-3.833-1.841v-1.43l.247.289.316-.1.1-.491.257.083.114.234.164-.174-.044.6.174-.83.107.153.29-.2.464-.8.416-.393.442.087-.033-.344.18-.4-.107-1.043.279.131.868-.175Z" transform="translate(-1971.847 -1082.053)"/><path class="h" d="M2002.1,1169.225h0l.218-.9.082.175.737-.071.429.36,1.578,3.337-.148,1.326.071.792.284.649-.262.917.42,1.044-.142.859.906.612.312.371.95,1.868.524,2.206,1.66,5.536.053,1.436.18.568-.224.13-.215.464,2.392,2.4.234.06.016.153.429.088.154.36-.132.3.159.126-.181.279.421.153.016.246.12-.049.011.19.289.066.436.42.154.361.442-.137.563.053,1.277.47.584-.215.486.415.289.05.022-.115.923.284.4.425.874.508.693.033,1.321,1.127.933.215-.5.644.1.421.421.2-.322,1.993-.24.294-.5,1.327-.677.349-.289.306.033.169-.333.311.125.328-.082.294-.447.41.011.7.142.1-.153.218.163.153-.273.017-.12.382.1.114-.452.847.13.464-.114.039.223.071.136.36-.1.262-1.772.491-.971.726-.71-.1-.3-.262-.994.2-5.875,4.778-.972.485-5.378-2.588-.873.486-.224-.132-.939.148-.12.442-1.294-.792-.2-.29.29-.366-.672-.617-.339-.595-.6-.1-.655.355-2.058-.18.142-1.005-2.757.677.311-.283-.077-1.174-1.141-1.611.333-.393-.483-1.341,1.622-1.136.556.005.164-2.309.53-.294.2-.617.483.1.246-.366.317.028.682-.4,1.426-2.779.4-5.406.792-2.681-1.311-1.764-.027-.584-.6-2.009.89-.913-.813-2.937-1.01-1.911-.92-2.267-.687-2.047-.066-.78.634-.9.693-.4.634-.088-.065.076.95.519,1.267,1.027-.093-.661.394-.279.021-.3-.782-1.1.483-2.6.18-.215.257.12.115.751.863,1.6.262.8.322-.081.611-.475.355-.738.093-.742-.174-.808.355-1.469.35-.654Z" transform="translate(-1964.163 -1081.357)"/><path class="h" d="M2153.937,1137.464h0l.557.174,1.261-.06.846.153.311-.107.142.191.344-.175.071.274.169-.1.18.142.1-.142.371.153.5-.186.387.054.23-.236.208.083.054-.164.742.107.464-.191.4.207,1.763-1.092,5.177-5.225.359,10.469,8.031,3.412,4.326,4.731,2.719,3.194,6.967,3.2.107.519-.083.426.142.136-.125.486.311.2-.343.372.359.153v.327l.541.269-.027,1.081-.24.081-.153.339-.234.125.043.224.579.644.214.988.573,1.011.234,1.207.262.215-.092.246.688.9.01.693.492.484-.17.343.361.279.114.5.826,1.069.851.4.208.721-.061.306.327.387.033.269,1.026.835.3.644.4.317.737.1.732.306,1.048.841.792.1.121.34,1.054,1.222,1.228,1.037.933.447,1.45-.065-.006,53.541-.448.361-1.841.906-1.014.982-.727.421-2.8.775-.661.327-.524.563-.606.169-.661,1.311-.345.218-.053.4-1.065.819-1.107-.022-.24.229-.294-.005-.278.322-.655-.016-.994-.328-.6.569-.215.483-.382-.158-.655.355-1.5-.12-.742.2-.846-.4-1.371-.082-3.051-1.66-2.267-2.287-1.016-.524-2.147-1.557-1.452-.2-1.059-.332-1.1-.629-1.218-1.01-.945.12-.764-.591-1.578-.174-.769-.387-.4-.53-.922-.437-.269-.556-1.081-1.119-.759-1.081-.591-1.354-.988-.835-1.594-2.266-.977-3.124-1.07-2.391-.169-.885-.4-.562-.6-.453-1.96-4.729-3.855-10.039,5.395-1.857-.269-.071-.709-.65-.5-.082-.158-.382-.229-.017-.043-.273-.392-.338-.879-1.267-.6-.29-.218-.284-.174.032-.164-.355-.24-.005-.792-.584-.29-.005-1.106-.667-.519-.082-1.043-1.748-.322-1.181-.813-1.228.022-.36-.4-.72-.928-.776h-.218l-.83-.77-.159-.426-.29-.169-.595-1.048-.483-.322-.78-.979-.159-.6.1-.387-.268-.41.033-.507-.973-1.142-.568-1.693.071-1.7-.383-2.124.317-1.031-.148-.934.1-.841-.215-1.25-.806-2.047-.425-2.01,2.751-.759,2.081-3.412-.234-.43.388-.448.13-.693.421-.35-.027-4.521,1.458-.033.365-1.5.437-.229.306-.442,1.709-.125,1.436-1,.042-.215,1.246-1.235,1.081-.546.71-.54-.158-5.793-.1-.688-.317-.355-.458-3.692-.365-.622-.066-.437.154-.475.42-.5Z" transform="translate(-1985.189 -1076.136)"/><path class="h" d="M2230.378,1118.514h0l.153-.241.174.148.126-.215v.273l.218-.06.388.4.481-.065.18.273.181-.551.169.169.148-.283.633-.164.152-.262.131.2.279.053.087-.235v.306l.186-.114.442.1.055.328.589.005.2-.273.215.153.215-.148-.011.268.174.071-.153.077.131.338.688.005-.011.257.153.076.1-.147.215.24.022-.278.2-.017.246.215.125-.082.011-.322.343.027.083-.219.12.131.3-.115.06-.2.458-.262.241.148-18.037,25.727-10.484,10.281-.017,20.169-1.449.065-.934-.448-1.228-1.037-1.054-1.223-.12-.339-.792-.1-1.049-.841-.731-.306-.737-.1-.4-.317-.3-.644-1.031-.837-.033-.269-.327-.387.06-.306-.208-.721-.852-.4-.825-1.07-.115-.5-.36-.278.169-.344-.491-.483-.01-.693-.688-.9.093-.246-.262-.215-.234-1.207-.574-1.01-.215-.989-.579-.644-.042-.224.235-.125.152-.338.241-.083.027-1.081-.541-.268v-.328l-.36-.152.344-.371-.311-.2.125-.486-.142-.136.083-.425-.107-.519-6.967-3.206-2.72-3.194-4.324-4.733-8.032-3.413-.36-10.468,2.883-6.236,7.9-4.149,1.1-.426.859-.584.2-.409.186-.065.311.163,5.663-2.3.241.065.207-.279,9.259-3.758.088-.191.813-.1.584-.375.373-.552.753-.02.306.429,1.342.639.065-.121.338.1.229.623.393.021.552.443.042.655.394.3.208.819,1.544.426.623.512.2.43.552.05.633.9.279.066.065.207h.355l.218.47.519.475.192.556.327.071.065.223.649.307-.18.2.153.421.339-.022.338.3-.061.142.373.071-.174.164.759.283.541.47.2-.06.878.289.011-.306.272-.12-.021-.126.483.076.273-.3.159.317.114-.164.219.1.2-.114.486.169.1-.136.016.223h.464l-.054-.2.1-.049.278.284.361.071-.022-.1.328.186.78-.284.126-.332.7.268.075-.257.214.039.208-.18.759.5.6-.021.039-.252.294.076.442-.131.181.147.229-.1.148.115.1-.252.354.011.163-.208.2.215-.061.186.219.053.284-.18.153-.41.721-.36.394.262.12.246,1.718-.229Z" transform="translate(-1989.739 -1072.977)"/><path class="h" d="M2037.4,1102.6h0l5.656.159.437-.2.524.207,8.84.2,2.479-.3.563.016.53.371.584.011,5.1-.269,1.12.569.933.214,1.568.672-.005.169.835.082.6.546.147-.071.356.269.364-.437.355.339.132-.039.537.906.4-.049.4.18.722,1.119.572.426.187-.054,8.813,5.766.1-.053,10.707,7.617,4.74,3.161,2.222,1.229,1.382,1.409,2.948,2.61.224-.174,1.425-.3,8.322.569,2.331-.77-.005-.41-.2-.289.579-.148.393.3.322.769.591.437.726.039.376-.24,1.688.634.339-.53-.125-.349.311-.148.175.088.808,1.616,5.951,1.867,1.693-.093-.016-.317.284-.153.365.083.043.13.617-.125.136-.169.169.252.317.141.087-.361h.312l.164-.142.551.219.732-.312.017-.268.273.005.557.537.8.36.656.05-.017.283.859.361.327-.107.093.437,1.065-.093,1.272.333.751-.251.808.269-.42.5-.153.475.065.437.366.622.459,3.692.316.355.1.687.161,5.793-.71.541-1.08.545-1.246,1.235-.043.215-1.436,1-1.709.126-.306.443-.437.229-.366,1.5-1.458.033.027,4.52-.421.35-.13.694-.389.447.235.429-2.081,3.413-2.751.759.425,2.01.806,2.047.215,1.25-.1.841.148.934-.316.994.382,2.163-.076,1.675.573,1.718.262.273-18.091,10.5-1.354,5.738-12.313,9.825.164-3.886-3.074-2.25-.295,1.038-.524.158-.278-.065-.731.273-.36-.169-.284.307-.142-.132-.649.017-.339.186-.835,0-.824.262-.3-.131-.519.247-.136-.174-.727.537h-.224l-.033.215-.461.016-.273-.483-.328.726-.25.093.082-.175-.158-.278-.6-.513-2.763-4.935-.819-1.032-2.888-4.831-1.387-.726-1.25-3.538-.672-.126-.387-.545-1.289-.945-.35-.9-2.588-.752-2.8-.06-1.786-1.244-.8.262-.268-.044.163-1.256-.032-1.288-.229-.017.083-.8-.382-.966-.191-1.1-.971-1.939-.694-.654-2.713-7.535-1.327.234-.448-.12.107,1.043-.18.4.033.345-.442-.088-.415.393-.465.8-.289.2-.107-.153-.174.83.054-.591-.174.164-.339-.328-.131.5-.317.1-.562-.551-.186.215-.574.076-.214.241-.6-.227-.552-1.371.18-2.308-.18-.136-.306-1.064-.644-.449-.667-1.073-.6-.082-.47-.672-.137-1.382.421-.852-.585-.453-.223-.508-.071-.819-.721-1.181-.453-1.158-.661-.748-.447-.065-1.442-.752-.518-.13-.4-.519-.475-1.8-.006.339-.218.163-.4-.24-.3-.053-.06.115-.967-.421-1.8.044.093-.382-.24.164.011-.215-.18.016.552-1.775v-1.127l.234-.087.142-.312-.028-1.431-.365-.693.371-1.13.027-.846-.18-.224-.136.437-.366-.033-.573-.317-1.2-.185-.715-.415-.043-38.035Z" transform="translate(-1970.637 -1072.078)"/><path class="h" d="M2018.894,1069.771h0l.3-.082.42.169.1.2.573.033.021.174.437.311.246-.049.028.393-.136.53-.2.033-.339.54-.387.317-.076.633.339.966.5.289.295.612-.071.792-1.562,1.932.011,9.812,4.281,4.822-.328,1.381.159,1.141,3.328,2.872.044,38.034.715.415,1.2.186.574.316.365.033.137-.437.18.223-.027.847-.371,1.129.365.694.028,1.431-.142.311-.234.087v1.128l-.551,1.774.18-.016-.01.215.24-.164-.093.382,1.8-.043.966.42.06-.115.3.054.4.24.219-.163.005-.339.475,1.8.4.518,2.463,1.005.649.759.41,1.092.709,1.163.082.835.224.509.584.436-.421.868.137,1.381.47.672.6.083.667,1.073.644.448.305,1.065.18.136-.18,2.308.483,1.3.672.3.215-.241.573-.076.192-.207.311.257v1.43l3.833,1.841-.027.813-.508.41.224.442-.148.317.071.415-.355.191.049.579-.616.2-.8.622-.622.3-.825.24-.005-.2-.475.5-.235.027-.247.775-.485.53.142,1.431-.387.289-.2.54-.137.033.043.732-.185.011-.033.148.088.409-.132.551-.256.224-.1.327.307-.316-.006,1,.107.153-.174.623.077.251-.387.2-.022.278-.366.215.017.841.186-.107.158.208-.175.344.125.107-.071.218-.246-.033.065.312.18.311.322.022-.126.42-.219.017.115.163-.083.234-.191.054.136.107-.044.257-.278-.2.235.333-.054.142.257-.327.115.366-.355.2.163.077-.016.158-.4.3-.021.306-.174.126.049.278-.524.18.038.622-.229.169.027.278-.278.322.017.464-.262.655.107.24-.375.07-.207-.185-.2.088-.289.551,0,.42-.666.732-.513,1.2h-.269l-.4-.787-.081-.491.169-.66-.246-.339-.284.246.07.491-.6.038-.027-.224-1.256,1.12-.115.278-.071.971.12.429-.345.577.06.185.931-.185.922.971.252.088,1.048-.278.864.851.305.082.023.215.617-.12.24.429.186-.164.169.154-.257.927-.153-.01-.491.283-.076.252-.4.131-.039.344-.344.257-.136.3-.475.191.355.148.049.24.5.186.415-.306.159.049-.066.415.469.524.088.344v.224l-.224.1-.24-.316-.491-.18-.458-.376-.126.2-.289-.131.032.228h-.153l-.1.192.507.375.295-.256v.4l.257.312-.107.3-.126.017-.054-.186-.425.18-.148.208.076.814-.295.229.142.07.022.35.824-.42.737.425-.278.983.355.879-.229.841.207.409-.107.186.033.764.372.879-.011.537.169.028.027.568-.343-.06-.083-.606-.2-.082.185.568-.087.41-.784,1.068-.8.563-.2-.284.07-.633-.2-.2-.458-.044-.142-.234-.382-.082-.306-.846-.732.06-4.461-5.607-2.415.043-9.5-15.446-.934-.215-1.321-1.128-.693-.033-.874-.508-.4-.426-.922-.283-.022.114-.282-.046-.485-.415-.584.215-1.278-.47-.563-.054-.442.137-.153-.36-.436-.421-.29-.065-.01-.191-.12.05-.017-.246-.42-.153.18-.278-.158-.126.13-.3-.153-.36-.429-.088-.016-.153-.235-.06-2.394-2.4.215-.464.224-.13-.18-.569.05-.813-.284-1.376-1.278-4.08-.835-3.243-.841-1.534-.312-.372-.906-.612.142-.859-.42-1.043.262-.917-.284-.65-.071-.792.148-1.326-1.578-3.336-.429-.361-.885-.021-.86,2.943.175.808-.094.742-.442.831-.752.5-1.174-2.327-.154-.846-.327-.1-.234.524-.361,2.254.781,1.1-.022.3-.393.278.093.66-1.267-1.026-.953-.52.327-.158.05-.437-.175-.016-.483-1.371-.6-.005-.486-2.228-.126-.164-.426.115-.038.524-.339.06-.483-.393-.677-1.163-.988-1.093-.284-.885-.453-.429.279-1.633-.537-2.266-.215-.2-.327.094-.388-.918-.77-.316-.311-.4-.3.475-1.223-.148-.415-1.25-1.283-.578-.338-2.441-.339-.6-.06-2.37-.508-.43-.365-.808-1.07-.382-.579.3-.372-.726-.688-.3-.163-.262-.24-3.134-.579-1.884-.9-.879.028-1.338.257-.12.29-.491-.071-.53-.8-1.01-.071-.284.241.1.84-.088.859-.859.176-1.873-.1-1.031.306-1.807-.257-.229-1.611-.5-.107-.415-.923-.906-.508-.005-.918.246-.677,1.294.159-.825-1.262-1.092-.677-1.152-.393.1-.126.2-.246-.311-1.54.53-.2-.2.781-.295-.053-.376-1.093-.153-.01-.218.3-.1.519-.666,1.436.027v-.644l-.311-.945-1.251.05-.257.306-1.228-.06-1.228.327.088-.747.878-.513.465-1.867-.885-.475-.764-.835-.616-.183-.065-.584.956-.3.082-.972-.349-.513-.555-.258-.41-.862.5-.666-.573-1.135-1.742-1.381,11.641-11.082,25.87-21.934,3.035-4.827,6.029.027,2.339.215.868.234.153.148-.082.12.332.268.136-.005.016-.164.35-.005-.016.273.131.088-.071.376.442-.06.612-.356.114.2.5.094.257-.164.306.137.289-.2.557.01-.028.187.215-.033-.01.448.164-.18.065.136.186-.148.06.169.262-.033.039.142.114-.13.142.164-.115.07.1.279.617.311-.049-.289.295.044.42.327Z" transform="translate(-1960.084 -1067.069)"/></g></g></g></g></g></g><g transform="translate(-184 147.467)"><g transform="translate(1266 658.534)"><path class="i" d="M181.513,5239A14.513,14.513,0,0,0,167,5253.513c0,8.016,14.513,26.953,14.513,26.953s14.513-18.937,14.513-26.953A14.513,14.513,0,0,0,181.513,5239" transform="translate(-167 -5239)"/></g><g class="j" transform="translate(1276 669)"><circle class="l" cx="5" cy="5" r="5"/><circle class="c" cx="5" cy="5" r="4.5"/></g></g></g><circle class="k" cx="6" cy="6" r="6" transform="translate(1030 811)"/><circle class="k" cx="6" cy="6" r="6" transform="translate(1018 739)"/><circle class="k" cx="6" cy="6" r="6" transform="translate(1144 767)"/></g></svg>