<svg xmlns="http://www.w3.org/2000/svg" width="20" height="20" viewBox="0 0 20 20"><defs><style>.a{fill:#202020;}</style></defs><g transform="translate(-3 -3.2)"><path class="a" d="M42.26,11.394,41.1,12.548a1.266,1.266,0,0,1-1.791-1.79L40.469,9.6a2.272,2.272,0,0,0,0-3.209,2.323,2.323,0,0,0-3.208,0l-4.725,4.725a2.269,2.269,0,0,0,0,3.209,1.266,1.266,0,1,1-1.79,1.79,4.8,4.8,0,0,1,0-6.791L35.472,4.6a4.8,4.8,0,1,1,6.788,6.79Z" transform="translate(-20.663)"/><path class="a" d="M14.126,34.717a1.265,1.265,0,0,0,0,1.79,2.269,2.269,0,0,1,0,3.209L9.4,44.441a2.269,2.269,0,1,1-3.208-3.209L7.35,40.077a1.266,1.266,0,1,0-1.79-1.791L4.4,39.443a4.8,4.8,0,0,0,6.789,6.788l4.724-4.724a4.8,4.8,0,0,0,0-6.79A1.266,1.266,0,0,0,14.126,34.717Z" transform="translate(0 -24.434)"/></g></svg>