<svg xmlns="http://www.w3.org/2000/svg" width="20" height="20" viewBox="0 0 20 20"><defs><style>.a{fill:#202020;fill-rule:evenodd;}</style></defs><g transform="translate(-340 -7439)"><g transform="translate(56 160)"><path class="a" d="M289.87,7279.123a5.513,5.513,0,0,0-5.788,5.774c-.046,1.005-.313,8.6.463,10.594a5.041,5.041,0,0,0,2.91,2.9,7.3,7.3,0,0,0,2.415.461c8.861.4,12.145.183,13.531-3.364a7.238,7.238,0,0,0,.462-2.41c.4-8.883-.066-10.809-1.61-12.352-1.225-1.222-2.666-2.053-12.382-1.606m.082,17.945a5.512,5.512,0,0,1-1.848-.341,3.254,3.254,0,0,1-1.889-1.883c-.591-1.514-.4-8.7-.342-9.866a4.247,4.247,0,0,1,1.087-2.985c1-.993,2.281-1.479,11.034-1.084a4.271,4.271,0,0,1,2.992,1.084c1,.993,1.489,2.288,1.087,11.008a5.475,5.475,0,0,1-.342,1.843c-.9,2.308-2.972,2.628-11.778,2.224m8.138-13.378a1.195,1.195,0,1,0,1.194-1.191,1.193,1.193,0,0,0-1.194,1.191m-9.227,5.3a5.11,5.11,0,1,0,5.11-5.1,5.1,5.1,0,0,0-5.11,5.1m1.793,0a3.316,3.316,0,1,1,3.316,3.31,3.313,3.313,0,0,1-3.316-3.31"/></g></g></svg>