<svg xmlns="http://www.w3.org/2000/svg" width="20.005" height="20.028" viewBox="0 0 20.005 20.028"><defs><style>.a{fill:#202020;}</style></defs><g transform="translate(-7.2 -7.1)"><g transform="translate(7.2 22.319)"><g transform="translate(0)"><path class="a" d="M25.49,73.3v2.171h-15.2V73.3H8.1v4.318H27.638V73.3Z" transform="translate(-7.89 -73.067)"/><path class="a" d="M24.567,72.533V74.7l.233-.233H9.6l.233.233V72.533A.251.251,0,0,0,9.6,72.3H7.433a.251.251,0,0,0-.233.233v4.342a.251.251,0,0,0,.233.233H26.971a.251.251,0,0,0,.233-.233V72.533a.251.251,0,0,0-.233-.233H24.8a.233.233,0,0,0,0,.467h2.171l-.233-.233v4.342l.233-.233H7.433l.233.233V72.533l-.233.233H9.6l-.233-.233V74.7a.251.251,0,0,0,.233.233H24.8a.251.251,0,0,0,.233-.233V72.533A.233.233,0,0,0,24.567,72.533Z" transform="translate(-7.2 -72.3)"/></g></g><g transform="translate(11.516 7.1)"><path class="a" d="M26.8,16.153l2.8.63L29.694,8.1h5.042l.093,8.683,2.824-.63-5.439,7.166Z" transform="translate(-26.541 -7.867)"/><g transform="translate(0 0)"><path class="a" d="M25.88,15.6c.934.21,1.891.444,2.824.654a.253.253,0,0,0,.3-.233c0-2.871.023-5.789.07-8.683l-.233.233H33.91l-.233-.233c.023,2.894.047,5.812.07,8.683a.244.244,0,0,0,.3.233c.934-.21,1.891-.444,2.824-.654a3.34,3.34,0,0,1-.257-.35C34.8,17.627,33,20.032,31.179,22.413h.4c-1.821-2.381-3.618-4.785-5.439-7.166-.187-.233-.584,0-.4.233,1.8,2.381,3.618,4.785,5.415,7.166a.24.24,0,0,0,.4,0c1.821-2.381,3.618-4.785,5.439-7.166.14-.163-.093-.373-.257-.35-.934.21-1.891.444-2.824.654.093.07.187.14.3.233-.023-2.871-.047-5.789-.093-8.683a.251.251,0,0,0-.233-.233H28.821a.251.251,0,0,0-.233.233c-.023,2.894-.047,5.812-.07,8.683.093-.07.187-.14.3-.233-.934-.21-1.891-.444-2.824-.654C25.717,15.083,25.576,15.527,25.88,15.6Z" transform="translate(-25.691 -7.1)"/></g></g></g></svg>