<svg xmlns="http://www.w3.org/2000/svg" width="20" height="16" viewBox="0 0 20 16"><defs><style>.a{fill-rule:evenodd;}</style></defs><g transform="translate(-60 -7521)"><g transform="translate(56 160)"><path class="a" d="M10.29,7377a11.5,11.5,0,0,0,11.675-11.495c0-.175,0-.35-.012-.522A8.273,8.273,0,0,0,24,7362.892a8.27,8.27,0,0,1-2.356.636,4.069,4.069,0,0,0,1.8-2.235,8.3,8.3,0,0,1-2.606.981,4.153,4.153,0,0,0-5.806-.175,4.005,4.005,0,0,0-1.187,3.86,11.717,11.717,0,0,1-8.457-4.221,4,4,0,0,0,1.271,5.392,4.121,4.121,0,0,1-1.863-.5v.051a4.058,4.058,0,0,0,3.292,3.959,4.142,4.142,0,0,1-1.852.069,4.1,4.1,0,0,0,3.833,2.806,8.314,8.314,0,0,1-5.1,1.733,8.5,8.5,0,0,1-.977-.058A11.752,11.752,0,0,0,10.29,7377"/></g></g></svg>